<svg width="62" height="60" viewBox="0 0 62 60" fill="none" xmlns="http://www.w3.org/2000/svg">
<g clip-path="url(#clip0_148:466)">
<path d="M59.8889 60C50.3963 53.2769 40.9111 46.5509 31.4332 39.8219C31.0559 39.5533 30.8372 39.6355 30.5187 39.8615C21.2707 46.4183 12.0199 52.975 2.76605 59.5317C2.54733 59.6873 2.32567 59.8473 2.11135 60.0044H0.937012V58.8301C1.19309 58.5693 1.46465 58.3242 1.75024 58.0961C5.7019 55.2865 9.65894 52.4857 13.6214 49.6937C13.7847 49.5967 13.9176 49.4559 14.005 49.2873C14.0924 49.1187 14.1309 48.9289 14.1161 48.7396C14.0984 44.8916 14.0984 41.0437 14.1161 37.1958C14.1161 36.2739 13.9693 35.3976 13.4951 34.6122C12.4808 32.9329 12.1358 31.1289 12.2063 29.1809C12.2914 26.8601 12.2444 24.5335 12.221 22.2097C12.2048 20.7418 12.8081 19.6996 14.1572 19.0992C14.4962 18.9524 14.8236 18.7719 15.1553 18.606C16.0185 18.1759 16.1609 17.9131 15.9774 16.9766C15.9282 16.8141 15.8309 16.6703 15.6985 16.5641C14.6298 15.6041 14.1263 14.3945 14.1146 12.978C14.0937 12.2172 14.1192 11.4559 14.1909 10.6983C14.3773 9.08355 15.6192 7.74627 17.2383 7.61562C18.4591 7.49767 19.6904 7.55104 20.8964 7.77416C22.3071 8.05894 23.2935 9.47255 23.3713 10.9199C23.4095 11.6407 23.3978 12.3644 23.3963 13.0866C23.4062 13.7536 23.2678 14.4145 22.991 15.0215C22.7143 15.6284 22.3062 16.1664 21.7962 16.5964C21.2971 17.0368 21.4674 17.5931 21.6274 18.0526C21.7287 18.3462 22.1383 18.7058 22.4392 18.7352C23.6312 18.8541 24.4679 19.45 25.1461 20.3851C25.6261 21.0471 26.1663 21.6666 26.7256 22.3624C27.3127 21.8927 27.8867 21.4259 28.4724 20.984C28.923 20.6449 29.4148 20.3572 29.8522 20.002C30.0082 19.8524 30.1002 19.6483 30.1091 19.4324C30.1341 18.3183 30.1209 17.2056 30.1209 16.0914C30.1209 11.2864 30.1209 6.48141 30.1209 1.6764C30.1209 1.5208 30.1209 1.36373 30.1209 1.20813C30.1341 0.422792 30.4497 3.04636e-05 31.0163 0.0117739C31.5829 0.0235173 31.8648 0.427198 31.8824 1.17878C31.8824 1.39016 31.8824 1.603 31.8824 1.87751H44.4816C44.6196 1.87751 44.7561 1.87751 44.8926 1.87751C45.8497 1.90393 46.2137 2.49844 45.7939 3.37039C45.3535 4.26729 44.9264 5.16272 44.4537 6.0376C44.3629 6.18382 44.3156 6.35288 44.3175 6.52498C44.3193 6.69709 44.3701 6.86511 44.464 7.00937C44.9249 7.86811 45.3447 8.74739 45.7851 9.62374C46.2416 10.5632 45.8761 11.1416 44.8207 11.1431C41.5717 11.1431 38.3227 11.1431 35.0737 11.1431C34.9175 11.1515 34.7609 11.1422 34.6068 11.1152C34.2061 11.0197 33.9536 10.7717 33.9228 10.346C33.892 9.92027 34.0916 9.58265 34.5232 9.46522C34.7503 9.41002 34.9839 9.3863 35.2175 9.39475C37.8011 9.38888 40.3846 9.38888 42.9681 9.39475H43.6904C43.3058 8.61822 42.9828 7.91362 42.6115 7.23397C42.4804 7.01664 42.4118 6.76742 42.4131 6.51365C42.4144 6.25988 42.4855 6.01137 42.6188 5.7954C42.9887 5.11575 43.3131 4.41262 43.6801 3.67425H31.8897V4.33482C31.8897 9.31598 31.8868 14.2966 31.8809 19.2768C31.8809 19.6908 31.9807 19.9154 32.3785 20.1312C33.98 21.0031 34.2956 23.2608 32.8762 24.4439C32.0233 25.1544 31.8574 25.8957 31.8706 26.8998C31.9176 30.4228 31.8956 33.9311 31.8794 37.4468C31.8708 37.6233 31.91 37.7989 31.9929 37.955C32.0759 38.1111 32.1995 38.2418 32.3506 38.3334C41.6093 44.8774 50.8622 51.4293 60.1091 57.9889C60.4424 58.2501 60.7619 58.5284 61.0662 58.8227V59.9971L59.8889 60ZM20.5749 44.7512C21.1269 44.3622 21.5394 44.0349 21.9871 43.7677C22.4348 43.5005 22.5963 43.1702 22.5933 42.633C22.5713 37.1855 22.5801 31.738 22.5801 26.2906C22.5801 26.0763 22.5258 25.8238 22.6168 25.655C22.7739 25.3702 22.9823 25.0135 23.251 24.921C23.4888 24.8373 23.8778 25.0135 24.1317 25.1823C24.3857 25.3511 24.5383 25.6506 24.7365 25.8913C25.6789 27.048 26.7197 27.1669 27.8867 26.2451C28.8653 25.47 29.8439 24.69 30.8225 23.9052C31.1411 23.6483 31.533 23.4252 31.7282 23.0905C31.8943 22.7593 31.9349 22.3792 31.8427 22.0204C31.7297 21.6079 31.3069 21.4493 30.8857 21.5506C30.6046 21.6211 30.3412 21.7491 30.1121 21.9264C29.1682 22.653 28.2478 23.412 27.3083 24.1459C26.68 24.6377 26.2646 24.5863 25.7552 23.961C25.2855 23.387 24.8011 22.8204 24.3681 22.22C23.6825 21.2703 22.9794 20.3675 21.6524 20.3866C21.4513 20.3866 21.2003 20.4101 21.0652 20.526C20.6748 20.8475 20.3474 21.2468 19.9613 21.5756C19.2274 22.2009 18.2894 22.1833 17.5583 21.5521C17.3514 21.373 17.1635 21.1734 16.9712 20.9796C16.0904 20.0989 16.1066 20.1312 14.9557 20.6596C14.2555 20.9811 13.9781 21.4449 13.9883 22.2127C14.0221 24.5158 14.0588 26.822 13.9883 29.1237C13.9311 30.8338 14.2291 32.4059 15.1157 33.8812C15.7029 34.8721 15.9055 35.9759 15.8981 37.1371C15.8746 40.5544 15.8893 43.9717 15.8893 47.3891V48.0922C16.7495 47.483 17.4644 46.9355 18.2218 46.4569C18.6857 46.1633 18.8575 45.8345 18.8501 45.2752C18.8178 42.4862 18.8325 39.6971 18.8369 36.8993C18.8369 36.1036 19.1525 35.7102 19.7426 35.7249C20.3327 35.7396 20.594 36.1051 20.5955 36.8787C20.5955 38.8325 20.5955 40.7849 20.5955 42.7372L20.5749 44.7512ZM24.3695 42.0032C24.4506 41.9793 24.5292 41.9478 24.6044 41.9093C26.3424 40.6806 28.0863 39.4579 29.8067 38.2043C29.8987 38.1164 29.9721 38.011 30.0226 37.8943C30.073 37.7775 30.0995 37.6518 30.1003 37.5246C30.1179 34.1278 30.1135 30.7325 30.1106 27.3357C30.1106 27.1772 30.0783 27.0201 30.046 26.7207C28.3608 28.3589 26.614 29.3101 24.3636 27.9948L24.3695 42.0032ZM21.6847 12.2044H21.6318C21.6318 11.8726 21.6436 11.5394 21.6318 11.2091C21.5878 10.1067 20.8509 9.33457 19.7514 9.27732C19.0874 9.24282 18.422 9.24282 17.758 9.27732C16.7598 9.33163 15.9965 10.0113 15.9128 10.9948C15.8401 11.8498 15.8534 12.7099 15.9524 13.5622C16.0401 14.1972 16.346 14.782 16.8176 15.2161C17.2893 15.6503 17.8973 15.9068 18.5375 15.9417C19.9525 16.0239 21.143 15.2283 21.5012 13.8866C21.6421 13.3405 21.6348 12.7622 21.6847 12.2044ZM18.7635 20.2295C20.0435 19.2401 20.114 19.0552 19.6927 17.7561H17.8739C17.2574 18.9465 17.8945 19.6321 18.7635 20.2266V20.2295Z" fill="#68E2AA"/>
<path d="M45.1214 52.3213C45.1067 53.1522 44.5239 53.5617 43.9705 53.3489C43.7919 53.2717 43.6234 53.1731 43.4685 53.0553C40.8262 51.1861 38.184 49.3155 35.5417 47.4434C35.3625 47.3265 35.1987 47.1874 35.0543 47.0295C34.9184 46.8845 34.8415 46.694 34.8385 46.4953C34.8355 46.2966 34.9067 46.104 35.0382 45.9549C35.1426 45.7975 35.301 45.6837 35.4835 45.6351C35.6661 45.5864 35.8601 45.6062 36.029 45.6907C36.2046 45.7729 36.3722 45.8712 36.5296 45.9843C39.1719 47.8544 41.8141 49.7202 44.4564 51.6065C44.7544 51.8296 44.9746 52.1657 45.1214 52.3213Z" fill="#68E2AA"/>
<path d="M33.7363 44.352C33.7246 45.1417 33.0435 45.5806 32.4842 45.2327C31.7702 44.7907 31.0839 44.3053 30.4291 43.7795C30.0372 43.4683 30.0298 43.0176 30.3249 42.6242C30.3808 42.536 30.4542 42.4602 30.5405 42.4014C30.6267 42.3425 30.7241 42.3019 30.8266 42.282C30.9291 42.2621 31.0346 42.2633 31.1366 42.2855C31.2386 42.3077 31.3351 42.3506 31.42 42.4114C32.1099 42.8517 32.7793 43.3303 33.4281 43.8323C33.6072 43.9688 33.6791 44.2433 33.7363 44.352Z" fill="#68E2AA"/>
</g>
<defs>
<clipPath id="clip0_148:466">
<rect width="60.1262" height="60" fill="white" transform="translate(0.937012)"/>
</clipPath>
</defs>
</svg>
