<svg width="60" height="60" viewBox="0 0 60 60" fill="none" xmlns="http://www.w3.org/2000/svg">
<path d="M56.944 31.0087C56.944 31.357 56.959 31.6087 56.944 31.8553C56.8857 32.6386 56.979 33.2202 57.7939 33.7318C58.8638 34.3985 59.1755 35.5801 58.8138 36.8266C58.4522 38.0732 57.5823 38.7798 56.314 38.9831C55.7322 39.0655 55.139 38.9673 54.6147 38.7018C54.0905 38.4362 53.6604 38.0161 53.3826 37.4982C53.1726 37.0999 52.941 36.9983 52.5243 36.9983C51.2978 37.0216 50.0712 36.9866 48.8446 37.0216C48.549 37.0415 48.2683 37.1587 48.0463 37.3549C47.2997 38.0482 46.6248 38.8215 45.8582 39.4897C45.5197 39.7752 45.0998 39.9467 44.6582 39.9797C43.205 40.038 41.7485 40.0131 40.2936 39.9964C39.9403 39.9964 39.7786 40.123 39.572 40.413C39.2332 40.8779 38.8219 41.2853 38.3537 41.6196C38.0838 41.8162 37.9621 41.9712 37.9704 42.2995C38.0121 43.1108 38.0071 43.9237 37.9554 44.7343C37.9204 45.1327 37.7688 45.6609 37.4805 45.8726C36.1622 46.8375 35.7889 48.0941 35.9622 49.659C36.0656 50.6056 36.0039 51.5738 35.9622 52.5321C35.9473 52.9737 36.0589 53.2187 36.4755 53.447C37.0902 53.7907 37.5599 54.3451 37.7979 55.0079C38.0359 55.6707 38.0261 56.3972 37.7704 57.0534C37.5237 57.7186 37.0481 58.2741 36.4288 58.6204C35.8096 58.9667 35.0873 59.0811 34.3914 58.943C33.6954 58.805 33.0714 58.4236 32.6312 57.8672C32.191 57.3108 31.9634 56.6158 31.9892 55.9068C31.9932 55.3823 32.1433 54.8693 32.4226 54.4254C32.702 53.9815 33.0996 53.6242 33.5708 53.3937C33.9041 53.2137 33.9857 53.0137 33.9824 52.6704C33.9707 50.8805 33.9474 49.0874 33.9991 47.2975C34.0124 46.8892 34.199 46.3409 34.499 46.1109C35.7406 45.1593 36.2089 43.9694 35.9889 42.4445C35.9322 42.0546 35.8989 41.8046 35.4889 41.5779C35.0251 41.3232 34.6386 40.948 34.3703 40.4918C34.1021 40.0357 33.962 39.5155 33.9649 38.9864C33.9678 38.4572 34.1136 37.9386 34.3868 37.4854C34.6601 37.0322 35.0506 36.6612 35.5173 36.4117C35.8506 36.2233 36.0372 36.0417 35.9672 35.655C35.6939 34.1552 36.2355 32.9886 37.4471 32.0953C37.8121 31.8237 38.1137 31.4804 38.5787 31.0587H29.0028C29.0028 31.687 28.9794 32.327 29.0194 32.9636C29.0294 33.1069 29.2428 33.2719 29.3994 33.3652C30.416 33.9602 30.9893 34.8318 30.986 36.0133C30.9826 37.1949 30.416 38.0882 29.3711 38.6315C29.0494 38.7981 28.9928 38.9964 28.9961 39.3114C29.0061 40.7696 28.9861 42.2279 29.0078 43.6861C29.0078 44.2077 28.8878 44.6527 28.4662 44.946C27.1913 45.8326 26.8629 47.0358 26.9663 48.5474C27.0929 50.2456 27.0029 51.9605 26.9913 53.6687C26.9913 54.002 27.0596 54.2103 27.4012 54.3903C28.0009 54.6949 28.4764 55.1982 28.7466 55.8142C29.0167 56.4302 29.0649 57.1208 28.8828 57.7684C28.7169 58.4081 28.3429 58.9745 27.8198 59.3785C27.2968 59.7825 26.6542 60.0011 25.9933 60C25.3324 59.9988 24.6906 59.778 24.1689 59.3722C23.6472 58.9664 23.2753 58.3987 23.1116 57.7584C22.9324 57.1092 22.984 56.4179 23.2575 55.8025C23.531 55.1871 24.0095 54.6857 24.6114 54.3836C24.7428 54.3324 24.8537 54.2394 24.9269 54.1189C25.0001 53.9984 25.0315 53.8572 25.0164 53.717C25.0014 51.4255 25.0164 49.134 24.9947 46.8425C24.9758 46.5648 24.8623 46.3019 24.6731 46.0976C23.6649 45.0477 22.6383 44.0111 21.59 43.0011C21.3928 42.8192 21.2382 42.596 21.1373 42.3473C21.0365 42.0987 20.9919 41.8308 21.0067 41.5629C21.0267 38.2932 21.0167 35.0234 21.0167 31.752V31.0371H17.017C17.017 32.0103 17.0054 32.9619 17.0304 33.9135C17.0478 33.9966 17.0827 34.0751 17.1327 34.1437C17.1827 34.2123 17.2466 34.2696 17.3203 34.3118C19.5902 35.6584 19.5918 38.3382 17.3287 39.6847C17.2453 39.7449 17.1756 39.8221 17.1242 39.9111C17.0728 40.0001 17.0408 40.0991 17.0304 40.2014C16.9987 40.9913 17.017 41.7829 17.017 42.5745C17.017 43.7094 16.722 43.9977 15.5655 43.9977C13.4873 43.9977 11.4074 43.9977 9.32926 43.9977C9.19104 43.9811 9.05117 44.0101 8.93087 44.0801C8.81057 44.1502 8.7164 44.2576 8.66265 44.386C7.97437 45.6726 6.64614 46.2509 5.30458 45.9009C4.65848 45.7375 4.08557 45.3628 3.67692 44.8363C3.26827 44.3099 3.04734 43.6619 3.04925 42.9955C3.05117 42.329 3.27582 41.6824 3.68749 41.1583C4.09916 40.6342 4.67422 40.2627 5.32124 40.103C6.66447 39.7581 7.95271 40.3497 8.68932 41.6279C8.77764 41.7812 8.96096 41.9862 9.10262 41.9879C11.0525 42.0112 13.0023 42.0029 15.0238 42.0029C15.0238 41.3196 15.0422 40.6796 15.0088 40.043C15.0088 39.9114 14.8005 39.7864 14.6755 39.6664C14.2439 39.2314 13.8173 38.7898 13.3673 38.3732C13.2006 38.2165 12.9657 38.0249 12.7573 38.0215C11.2824 37.9915 9.80423 38.0399 8.33101 37.9815C7.88933 37.9455 7.47043 37.7705 7.13443 37.4816C6.35283 36.7966 5.66121 36.0117 4.9046 35.2984C4.7105 35.1276 4.4645 35.0272 4.20632 35.0134C3.18973 34.9818 2.16981 35.0001 1.09989 35.0001V33.0202C2.46478 33.0202 3.84969 33.0019 5.23125 33.0402C5.45956 33.0402 5.71288 33.2736 5.89786 33.4552C6.64781 34.1768 7.35942 34.9384 8.11936 35.6467C8.34149 35.8427 8.6221 35.9598 8.91763 35.98C10.1859 36.015 11.4541 35.98 12.7223 36.0017C13.0557 36.0017 13.2056 35.895 13.4023 35.62C13.7356 35.1518 14.1412 34.7394 14.6039 34.3985C14.8888 34.1918 15.0372 34.0385 15.0272 33.6785C15.0022 32.8086 15.0272 31.9387 15.0272 30.9954H1.46987C0.359949 30.9954 0.0299756 30.6904 0.064973 29.5955C0.381616 19.6279 4.51797 11.6169 12.5107 5.69565C18.0103 1.62096 24.2815 -0.325559 31.1059 0.0444132C42.4384 0.659367 50.8994 6.07728 56.4374 15.9849C58.7822 20.1795 59.8588 24.7592 59.9371 29.5688C59.9538 30.6987 59.6454 30.9937 58.4939 30.9954L56.944 31.0087ZM36.6955 21.8878H23.2965C23.1932 24.1926 23.0866 26.5857 22.9782 28.9739H37.0222C36.9105 26.5557 36.8022 24.1759 36.6955 21.8878ZM36.5389 19.7362C36.1056 17.0698 35.6828 14.47 35.2706 11.9368H24.7164C24.3015 14.52 23.8832 17.1031 23.4632 19.7379C27.8142 20.1015 32.188 20.1009 36.5389 19.7362ZM54.9458 31.0087C50.4661 31.0087 46.0848 31.0087 41.7035 31.022C41.4658 31.0527 41.2458 31.1639 41.0802 31.337C40.3302 32.0553 39.647 32.8486 38.8587 33.5219C38.1421 34.1318 37.8038 34.8234 37.9938 35.7384C38.0571 35.9696 38.1794 36.1803 38.3487 36.35C38.7537 36.7833 39.2337 37.1533 39.592 37.6199C39.7869 37.8765 39.9253 38.0215 40.2586 38.0165C41.5451 37.9965 42.8334 38.0165 44.12 37.9932C44.3968 37.9725 44.6586 37.8592 44.8632 37.6715C45.5765 37.0049 46.2681 36.315 46.9381 35.6017C47.1138 35.3991 47.3336 35.2395 47.5806 35.1349C47.8276 35.0303 48.0952 34.9836 48.363 34.9984C49.7962 35.0301 51.2294 35.0201 52.6626 34.9984C52.8849 34.9725 53.0921 34.8727 53.2509 34.7151C53.7509 34.2601 54.2159 33.7785 54.6875 33.2985C54.7892 33.1952 54.9275 33.0602 54.9325 32.9353C54.9608 32.3136 54.9458 31.6937 54.9458 31.0087ZM20.9717 28.9805C21.0917 26.4807 21.2084 24.0593 21.3233 21.6478L12.2557 20.1779C11.5218 23.0546 11.1187 26.0057 11.0541 28.9739L20.9717 28.9805ZM39.022 28.9556H48.9462C48.8296 25.9308 48.498 22.996 47.7297 20.1879L38.672 21.6561C38.787 24.0643 38.9037 26.4924 39.022 28.9556ZM49.8345 19.6046C50.2628 22.7294 50.6861 25.8291 51.1161 28.9705H57.9222C57.784 25.1128 56.8376 21.327 55.1441 17.8581L49.8345 19.6046ZM8.87931 28.9756L10.1592 19.6029L4.84294 17.8547C3.15481 21.3277 2.2146 25.1163 2.08315 28.9756H8.87931ZM22.7299 11.7002C22.6764 11.6753 22.6206 11.6558 22.5633 11.6419C20.6151 11.3535 18.6635 11.0786 16.7187 10.7669C16.3221 10.7036 16.1654 10.8786 15.9888 11.1669C14.7396 13.2065 13.7328 15.385 12.989 17.6581C12.9407 17.8081 12.9123 17.9647 12.8423 18.258L21.4667 19.6513C21.91 16.9031 22.3199 14.3067 22.7299 11.7002ZM38.5204 19.6563L47.1864 18.2497C46.4488 15.9139 45.4627 13.6639 44.2449 11.5385C43.8833 10.8969 43.54 10.7053 42.7884 10.8553C40.9552 11.2119 39.1103 11.4385 37.2688 11.7185C37.6771 14.3033 38.0871 16.8998 38.5204 19.6563ZM34.7023 9.917C33.9124 7.31719 33.1891 4.84904 31.4726 2.83086C31.307 2.6445 31.1169 2.48138 30.9076 2.3459C30.2527 1.89594 29.6844 1.85927 29.0744 2.3709C28.5745 2.79253 28.0562 3.27917 27.7712 3.84913C27.0313 5.32901 26.403 6.86556 25.758 8.39211C25.577 8.89193 25.4223 9.40093 25.2947 9.917H34.7023ZM23.0132 31.0321C23.0132 34.5018 23.0132 37.9099 23.0132 41.3163C23.0029 41.4379 23.0341 41.5595 23.1016 41.6613C24.0598 42.6312 25.0297 43.5894 26.1113 44.661C26.4446 44.1327 26.9229 43.6961 26.9629 43.2228C27.0729 41.9012 27.0146 40.5563 26.9863 39.2348C26.9739 39.1235 26.9377 39.0162 26.8802 38.9202C26.8227 38.8241 26.7452 38.7416 26.653 38.6781C25.6097 38.0815 25.0114 37.2099 25.0114 36.0117C25.0114 34.8134 25.6047 33.9268 26.6563 33.3452C26.7946 33.2686 26.9729 33.1036 26.9796 32.9702C27.0129 32.3353 26.9946 31.697 26.9946 31.0371L23.0132 31.0321ZM14.0789 10.2136C13.324 9.98032 12.5057 9.75868 11.7124 9.47203C11.5556 9.39462 11.3763 9.3754 11.2066 9.41783C11.0369 9.46025 10.8878 9.56155 10.7858 9.70367C9.70758 10.9369 8.581 12.1285 7.54607 13.3967C6.89946 14.19 6.37949 15.0916 5.73787 16.0532L10.7275 17.6731C11.8741 15.1216 12.9673 12.6901 14.0789 10.2136ZM45.9198 10.2136C47.0414 12.7134 48.1397 15.1616 49.2696 17.6831L54.1225 16.0949C54.1218 16.0195 54.1117 15.9445 54.0925 15.8715C52.735 13.5339 51.0377 11.4109 49.0562 9.57202C48.9922 9.51188 48.9162 9.46593 48.8332 9.43721C48.7502 9.40849 48.6621 9.39764 48.5746 9.40537C47.663 9.66035 46.7681 9.95365 45.9198 10.2136ZM33.8174 2.57756C35.1673 4.71906 35.9389 6.91056 36.5555 9.15872C36.6639 9.55369 36.8088 9.72035 37.2221 9.65868C37.6921 9.58036 38.1737 9.57202 38.6454 9.50702C39.8703 9.34037 41.0935 9.15539 42.4601 8.95873C40.1319 5.99229 37.4571 3.77413 33.8174 2.57756ZM26.1763 2.57756C22.5333 3.77413 19.8601 5.98896 17.5103 8.97207C19.3735 9.20872 21.0734 9.4137 22.7716 9.64702C23.1999 9.70535 23.3332 9.53536 23.4382 9.14705C24.0598 6.90222 24.8314 4.71405 26.1763 2.58088V2.57756ZM47.0081 7.82048C45.1514 6.38152 43.1163 5.18893 40.9535 4.27242C42.0868 5.58232 43.2317 6.91722 44.3983 8.23213C44.4718 8.29182 44.5574 8.3348 44.6492 8.35811C44.741 8.38142 44.8368 8.3845 44.9299 8.36711C45.5815 8.22879 46.2165 8.0388 47.0147 7.82382L47.0081 7.82048ZM19.0335 4.26409C16.872 5.18082 14.8403 6.37765 12.9907 7.82382C13.7873 8.03547 14.4556 8.22378 15.1322 8.38044C15.2074 8.39413 15.2846 8.39092 15.3584 8.37103C15.4322 8.35114 15.5007 8.31508 15.5588 8.26546C16.737 6.93889 17.8919 5.59565 19.0402 4.26742L19.0335 4.26409ZM27.9762 37.0083C28.1744 37.0148 28.37 36.9623 28.5383 36.8574C28.7066 36.7525 28.8399 36.5999 28.9212 36.4191C29.0026 36.2382 29.0283 36.0373 28.9952 35.8418C28.962 35.6462 28.8715 35.465 28.7351 35.3211C28.5987 35.1771 28.4225 35.077 28.2291 35.0334C28.0356 34.9898 27.8336 35.0048 27.6487 35.0763C27.4637 35.1478 27.3042 35.2727 27.1904 35.4351C27.0766 35.5975 27.0137 35.7901 27.0096 35.9883C27.0042 36.2513 27.1026 36.5058 27.2835 36.6967C27.4644 36.8876 27.7133 36.9996 27.9762 37.0083ZM55.9624 37.0083C56.1606 37.0062 56.3538 36.9453 56.5173 36.8333C56.6809 36.7212 56.8074 36.5631 56.8809 36.3789C56.9544 36.1948 56.9714 35.993 56.9299 35.7991C56.8884 35.6053 56.7902 35.4281 56.6479 35.2902C56.5055 35.1522 56.3253 35.0597 56.1302 35.0245C55.9351 34.9892 55.7339 35.0126 55.5522 35.0919C55.3705 35.1712 55.2165 35.3027 55.1097 35.4698C55.0029 35.6368 54.9482 35.8318 54.9525 36.03C54.9582 36.2932 55.0674 36.5435 55.2565 36.7266C55.4455 36.9098 55.6992 37.011 55.9624 37.0083ZM17.0187 37.0083C17.0187 36.8098 16.9596 36.6158 16.8489 36.451C16.7383 36.2863 16.5812 36.1581 16.3975 36.083C16.2138 36.0078 16.0119 35.989 15.8175 36.029C15.6231 36.0689 15.445 36.1658 15.3058 36.3073C15.1666 36.4488 15.0727 36.6286 15.0361 36.8236C14.9994 37.0187 15.0216 37.2202 15.0998 37.4026C15.1781 37.585 15.3088 37.74 15.4754 37.8478C15.642 37.9557 15.837 38.0115 16.0354 38.0082C16.2995 38.0038 16.551 37.8951 16.7353 37.7059C16.9195 37.5167 17.0214 37.2623 17.0187 36.9983V37.0083ZM37.9771 39.0248C37.9794 38.8265 37.9227 38.6321 37.8143 38.4661C37.7058 38.3001 37.5505 38.1702 37.368 38.0927C37.1855 38.0152 36.9841 37.9937 36.7893 38.031C36.5946 38.0683 36.4153 38.1626 36.2743 38.3019C36.1333 38.4413 36.0369 38.6194 35.9974 38.8137C35.9579 39.008 35.977 39.2096 36.0523 39.393C36.1276 39.5764 36.2558 39.7333 36.4204 39.8437C36.5851 39.9541 36.7789 40.013 36.9772 40.013C37.1089 40.013 37.2393 39.987 37.361 39.9365C37.4826 39.8859 37.5931 39.8118 37.686 39.7184C37.7789 39.625 37.8525 39.5142 37.9024 39.3923C37.9524 39.2704 37.9777 39.1399 37.9771 39.0081V39.0248ZM6.05285 42.0246C5.85454 42.0219 5.65992 42.0783 5.49374 42.1865C5.32756 42.2948 5.19732 42.45 5.11959 42.6325C5.04186 42.815 5.02014 43.0164 5.05721 43.2113C5.09427 43.4061 5.18844 43.5855 5.32774 43.7267C5.46703 43.8679 5.64517 43.9644 5.83949 44.0041C6.03381 44.0438 6.23554 44.0248 6.41903 43.9495C6.60252 43.8742 6.75948 43.7461 6.86996 43.5814C6.98043 43.4166 7.03942 43.2228 7.03944 43.0245C7.04164 42.8929 7.01785 42.7622 6.96942 42.6398C6.92099 42.5174 6.84887 42.4058 6.75721 42.3113C6.66555 42.2169 6.55616 42.1415 6.43529 42.0894C6.31442 42.0373 6.18445 42.0096 6.05285 42.0079V42.0246ZM34.9973 55.0236C34.7989 55.0203 34.6039 55.0761 34.4373 55.1839C34.2707 55.2918 34.14 55.4468 34.0617 55.6292C33.9835 55.8115 33.9613 56.0131 33.998 56.2081C34.0346 56.4032 34.1285 56.5829 34.2677 56.7244C34.4068 56.866 34.5849 56.9629 34.7794 57.0028C34.9738 57.0428 35.1757 57.024 35.3593 56.9488C35.543 56.8736 35.7002 56.7455 35.8108 56.5807C35.9215 56.4159 35.9805 56.222 35.9806 56.0235C35.9828 55.8922 35.9591 55.7617 35.9109 55.6395C35.8627 55.5174 35.7908 55.4059 35.6995 55.3115C35.6082 55.2171 35.4992 55.1416 35.3787 55.0894C35.2582 55.0371 35.1286 55.0091 34.9973 55.0069V55.0236ZM25.998 56.0235C25.7997 56.0235 25.606 56.0825 25.4413 56.1928C25.2766 56.3032 25.1484 56.4601 25.0731 56.6435C24.9978 56.8269 24.9787 57.0285 25.0182 57.2228C25.0578 57.4171 25.1542 57.5952 25.2952 57.7346C25.4362 57.874 25.6154 57.9683 25.8102 58.0055C26.0049 58.0428 26.2063 58.0213 26.3888 57.9438C26.5713 57.8664 26.7267 57.7364 26.8351 57.5704C26.9436 57.4045 27.0002 57.21 26.9979 57.0118C26.9986 56.8802 26.9733 56.7497 26.9234 56.628C26.8736 56.5062 26.8002 56.3954 26.7074 56.3021C26.6147 56.2087 26.5044 56.1346 26.383 56.0839C26.2615 56.0332 26.1313 56.007 25.9997 56.0068L25.998 56.0235Z" fill="#68E2AA"/>
<path d="M43.9699 47.0608C43.9699 48.3524 43.9565 49.6206 43.9865 50.8938C43.9865 51.0605 44.1915 51.2688 44.3548 51.3638C45.6347 52.1021 46.2264 53.437 45.8547 54.8052C45.6777 55.4588 45.2838 56.0327 44.7377 56.433C44.1916 56.8332 43.5257 57.0361 42.8492 57.0082C42.1726 56.9803 41.5257 56.7233 41.0144 56.2794C40.5031 55.8356 40.1578 55.2311 40.0352 54.5652C39.9144 53.9471 39.9967 53.3064 40.2696 52.7388C40.5426 52.1712 40.9917 51.707 41.55 51.4155C41.91 51.2255 41.9917 51.0138 41.9867 50.6455C41.9684 49.1873 41.975 47.7291 41.9867 46.2709C41.9867 45.3676 42.3333 45.0176 43.2266 45.016C45.0348 45.016 46.843 45.006 48.6529 45.016C48.8017 45.0332 48.952 45.0009 49.0807 44.9241C49.2093 44.8473 49.309 44.7302 49.3645 44.591C49.6703 43.9924 50.1746 43.5186 50.791 43.2505C51.4074 42.9824 52.0978 42.9367 52.7442 43.1211C53.382 43.2931 53.9448 43.6715 54.3448 44.1971C54.7449 44.7228 54.9596 45.3662 54.9554 46.0267C54.9512 46.6872 54.7284 47.3278 54.3217 47.8483C53.915 48.3689 53.3474 48.7401 52.7075 48.904C52.0693 49.078 51.3908 49.0286 50.7846 48.764C50.1783 48.4994 49.6808 48.0354 49.3745 47.4491C49.315 47.3006 49.208 47.1759 49.0702 47.0945C48.9325 47.0131 48.7717 46.9796 48.6128 46.9991C47.138 47.0241 45.6614 47.0125 44.1849 47.0158C44.1121 47.025 44.0402 47.04 43.9699 47.0608ZM52.9458 46.0142C52.9482 45.816 52.8915 45.6215 52.783 45.4556C52.6746 45.2896 52.5192 45.1596 52.3367 45.0821C52.1542 45.0047 51.9528 44.9832 51.7581 45.0204C51.5634 45.0577 51.3841 45.152 51.2431 45.2914C51.1021 45.4307 51.0057 45.6089 50.9662 45.8031C50.9266 45.9974 50.9457 46.1991 51.0211 46.3825C51.0964 46.5659 51.2245 46.7227 51.3892 46.8331C51.5539 46.9435 51.7477 47.0025 51.9459 47.0025C52.2103 47.0025 52.4639 46.8978 52.6512 46.7114C52.8386 46.5249 52.9445 46.2719 52.9458 46.0076V46.0142ZM42.965 55.0069C43.1633 55.0095 43.3579 54.9531 43.5241 54.8449C43.6902 54.7366 43.8205 54.5814 43.8982 54.3989C43.9759 54.2165 43.9977 54.015 43.9606 53.8202C43.9235 53.6253 43.8294 53.4459 43.6901 53.3047C43.5508 53.1636 43.3726 53.067 43.1783 53.0273C42.984 52.9876 42.7823 53.0067 42.5988 53.0819C42.4153 53.1572 42.2583 53.2853 42.1478 53.4501C42.0374 53.6148 41.9784 53.8086 41.9784 54.0069C41.9783 54.2698 42.0819 54.5222 42.2665 54.7093C42.4511 54.8965 42.7021 55.0034 42.965 55.0069Z" fill="#68E2AA"/>
<path d="M12.0325 53.0071C11.3309 53.0022 10.6532 52.7515 10.1173 52.2986C9.58139 51.8458 9.22118 51.2194 9.09931 50.5284C8.97745 49.8374 9.10163 49.1256 9.45028 48.5168C9.79892 47.9079 10.35 47.4405 11.0076 47.1959C11.6657 46.9462 12.3921 46.9437 13.0519 47.1889C13.7117 47.4341 14.2602 47.9103 14.5956 48.5291C14.8123 48.9324 15.0456 49.0674 15.4556 49.0174C15.5796 49.0041 15.7048 49.0041 15.8289 49.0174C16.6371 49.1007 17.2404 48.9941 17.7537 48.1524C18.4403 47.0242 19.9202 46.7442 21.1418 47.2425C21.7348 47.4816 22.2355 47.9044 22.5705 48.449C22.9055 48.9936 23.057 49.6312 23.003 50.2683C22.9489 50.9053 22.692 51.5083 22.2701 51.9886C21.8481 52.469 21.2833 52.8014 20.6585 52.9371C20.0468 53.0811 19.4047 53.0213 18.8301 52.7668C18.2555 52.5123 17.7798 52.077 17.4754 51.5272C17.2521 51.1189 17.0171 50.9372 16.5671 51.0106C16.4011 51.0307 16.2332 51.0307 16.0672 51.0106C15.3456 50.9472 14.7756 51.0106 14.3623 51.8088C13.949 52.6071 12.9458 53.0071 12.0325 53.0071ZM13.0324 50.0256C13.0367 49.8274 12.982 49.6324 12.8752 49.4654C12.7684 49.2984 12.6144 49.1669 12.4326 49.0876C12.2509 49.0083 12.0498 48.9848 11.8547 49.0201C11.6596 49.0554 11.4794 49.1479 11.337 49.2858C11.1946 49.4237 11.0964 49.6009 11.0549 49.7948C11.0135 49.9886 11.0305 50.1904 11.104 50.3746C11.1775 50.5587 11.304 50.7168 11.4675 50.8289C11.6311 50.941 11.8243 51.0019 12.0225 51.0039C12.2851 51.0053 12.5378 50.9032 12.7258 50.7199C12.9138 50.5365 13.0222 50.2866 13.0274 50.024L13.0324 50.0256ZM21.0168 49.979C21.0117 49.7808 20.9479 49.5886 20.8333 49.4269C20.7188 49.2651 20.5587 49.141 20.3735 49.0703C20.1883 48.9997 19.9863 48.9857 19.7931 49.0301C19.5999 49.0746 19.4243 49.1754 19.2886 49.3198C19.1528 49.4643 19.0631 49.6458 19.0307 49.8414C18.9983 50.0369 19.0248 50.2377 19.1068 50.4182C19.1888 50.5987 19.3226 50.7507 19.4911 50.855C19.6597 50.9593 19.8554 51.0111 20.0535 51.0039C20.3161 50.993 20.5639 50.8792 20.7432 50.6871C20.9226 50.495 21.019 50.24 21.0118 49.9773L21.0168 49.979Z" fill="#68E2AA"/>
</svg>
