<svg width="38" height="60" viewBox="0 0 38 60" fill="none" xmlns="http://www.w3.org/2000/svg">
<g clip-path="url(#clip0_148:480)">
<path d="M2.2422 59.9999C1.02583 59.5584 0.604717 58.6724 0.609414 57.4075C0.637592 50.6133 0.621934 43.8176 0.625065 37.0219C0.615279 36.7699 0.63897 36.5178 0.695513 36.272C0.739219 36.0771 0.855821 35.9062 1.02143 35.7944C1.18704 35.6827 1.38912 35.6385 1.58627 35.6709C1.78592 35.6751 1.97683 35.7536 2.12161 35.8911C2.26639 36.0287 2.35462 36.2153 2.36901 36.4145C2.38754 36.6284 2.39276 36.8433 2.38466 37.0579C2.38466 43.8333 2.38466 50.6091 2.38466 57.3855C2.38466 58.2418 2.38466 58.2418 3.2128 58.2418H34.7838C35.6182 58.2418 35.6182 58.2418 35.6182 57.3902C35.6182 55.1453 35.6182 52.8989 35.6182 50.6587C35.6182 49.865 36.1739 49.4189 36.8048 49.6803C37.2744 49.876 37.3762 50.2752 37.3746 50.7338C37.3746 52.6677 37.3746 54.6011 37.3746 56.5339C37.3746 56.8267 37.3574 57.121 37.3746 57.4121C37.4654 58.6755 36.9692 59.5647 35.7528 60.0046L2.2422 59.9999Z" fill="#68E2AA"/>
<path d="M21.1596 21.0745C21.0735 20.8209 21.0219 20.6409 20.953 20.4671C18.6048 14.4358 16.2566 8.40407 13.9084 2.37176C13.7377 1.92717 13.5311 1.73305 13.0254 1.74557C11.5868 1.78471 10.1465 1.75966 8.62801 1.75966C8.72664 2.02892 8.79552 2.22931 8.87066 2.42029C9.60122 4.31139 10.3359 6.20144 11.0749 8.09045C11.1171 8.20003 11.1657 8.30648 11.2017 8.41763C11.3895 8.98747 11.2017 9.44145 10.7195 9.62775C10.2373 9.81404 9.78021 9.6027 9.56104 9.03443C8.98964 7.60515 8.43703 6.16648 7.87815 4.73094C7.53845 3.85897 7.18934 2.99169 6.86372 2.11346C6.43635 0.964402 7.09229 0.0110254 8.31805 0.00319804C9.93989 -0.00619482 11.5602 0.00319804 13.182 0.00319804C14.425 0.00319804 15.0245 0.419615 15.4848 1.59842C16.5399 4.30356 17.5945 7.01027 18.6486 9.71854C18.7394 9.95336 18.8365 10.1882 18.9868 10.5592C19.1104 10.2727 19.1934 10.0896 19.2654 9.91266C20.3435 7.15325 21.4211 4.39279 22.4981 1.63129C22.9834 0.388304 23.5517 0.00476352 24.8933 0.00319804H29.5224C30.9486 0.00319804 31.5904 0.923696 31.0769 2.24652C29.3414 6.71752 27.6021 11.187 25.8592 15.6548C25.7684 15.8881 25.6839 16.1245 25.5633 16.447H26.2537C29.1248 16.447 31.9948 16.447 34.8638 16.447C36.5999 16.447 37.3686 17.2172 37.3686 18.9423V46.13C37.3686 46.2865 37.3686 46.4431 37.3686 46.5996C37.3232 47.1788 36.9475 47.5467 36.4403 47.5201C35.9331 47.4935 35.6278 47.1444 35.6215 46.5683C35.6074 45.5147 35.6215 44.4596 35.6215 43.4045V19.0879C35.6215 18.2065 35.6215 18.205 34.7495 18.205H21.9706C22.3369 19.1584 22.6625 20.0444 23.032 20.9086C23.0774 21.0166 23.3638 21.0651 23.5407 21.0651C24.4581 21.0808 25.3755 21.0651 26.2944 21.0745C26.977 21.0745 27.3276 21.361 27.3495 21.9011C27.3715 22.4412 26.9895 22.8247 26.3132 22.8263C21.432 22.8325 16.5499 22.8325 11.6666 22.8263C11.0185 22.8263 10.649 22.4772 10.649 21.9402C10.649 21.4033 11.0075 21.0808 11.6666 21.0745C12.4854 21.0667 13.3041 21.0745 14.2512 21.0745C13.8724 20.118 13.528 19.2225 13.1554 18.3396C13.1194 18.2535 12.8908 18.2113 12.7499 18.2113C9.48903 18.2113 6.22658 18.2112 2.96569 18.1987C2.42873 18.1987 2.37864 18.4836 2.37864 18.9095C2.38803 23.2855 2.38803 27.6605 2.37864 32.0344C2.37864 32.2097 2.37864 32.3851 2.37864 32.5604C2.36142 33.2038 2.0311 33.5842 1.49884 33.578C0.966578 33.5717 0.626867 33.1756 0.625302 32.5401C0.61904 27.8916 0.61904 23.2432 0.625302 18.5948C0.625302 17.2798 1.50823 16.4579 2.88898 16.4517C5.79764 16.4391 8.70785 16.4517 11.6181 16.4517H12.4165C12.2505 15.9992 12.1128 15.6094 11.964 15.2243C11.6619 14.4416 11.3488 13.6588 11.0514 12.8761C10.8134 12.2499 10.9903 11.7662 11.521 11.5705C12.0204 11.3826 12.4446 11.6112 12.6889 12.2311C13.7847 15.0083 14.8696 17.7839 15.9341 20.5704C16.0906 20.9696 16.2863 21.0902 16.698 21.0839C18.1586 21.0588 19.6145 21.0745 21.1596 21.0745ZM29.3815 1.76436C27.8301 1.76436 26.3727 1.78158 24.9152 1.7534C24.4675 1.74557 24.2687 1.90995 24.1106 2.31697C22.9678 5.30077 21.8657 8.30336 20.6086 11.2402C20.0685 12.4926 19.9464 13.6072 20.6227 14.8079C20.9045 15.3104 20.9467 16.0759 21.3506 16.3483C21.7545 16.6207 22.4809 16.4047 23.0601 16.4626C23.5376 16.508 23.7364 16.3155 23.9024 15.885C25.46 11.8288 27.0427 7.78361 28.6176 3.73373C28.8618 3.09971 29.106 2.46882 29.3815 1.76436Z" fill="#68E2AA"/>
<path d="M10.8852 45.9686C11.0903 44.7601 11.3204 43.395 11.5537 42.0314C11.6821 41.2816 11.8511 40.5364 11.9294 39.7818C11.9465 39.4888 11.8476 39.2009 11.6539 38.9803C10.2794 37.5944 8.88456 36.2282 7.46937 34.8819C6.92928 34.3669 6.61776 33.8064 6.86354 33.0628C7.10932 32.3192 7.71516 32.1095 8.41179 32.0108C10.3436 31.7416 12.2723 31.4473 14.2041 31.1905C14.3565 31.1824 14.5035 31.1306 14.6273 31.0412C14.7511 30.9518 14.8466 30.8286 14.9023 30.6864C15.7695 28.8971 16.6666 27.1219 17.5338 25.3325C17.8469 24.7063 18.2727 24.268 19.0038 24.2711C19.7349 24.2743 20.1623 24.711 20.4691 25.3419C21.327 27.114 22.2193 28.8689 23.0709 30.6457C23.2478 31.0105 23.467 31.142 23.8615 31.1952C25.7964 31.4504 27.7235 31.7494 29.6537 32.0218C30.3363 32.1189 30.9061 32.3725 31.1362 33.0738C31.3664 33.7751 31.0877 34.3512 30.5633 34.8537C29.1653 36.1891 27.8002 37.5589 26.396 38.888C26.2486 39.0094 26.139 39.1704 26.0801 39.3521C26.0213 39.5338 26.0158 39.7286 26.0641 39.9134C26.4132 41.8123 26.7326 43.7175 27.0629 45.6195C27.1834 46.3146 27.1192 46.9549 26.4837 47.3963C25.8778 47.8159 25.2861 47.7 24.6693 47.3681C22.9472 46.4445 21.2127 45.5616 19.5032 44.6317C19.3507 44.5364 19.174 44.487 18.9941 44.4892C18.8143 44.4914 18.6389 44.5452 18.4888 44.6442C16.7208 45.5929 14.9409 46.528 13.1489 47.4495C12.0312 48.0272 10.8665 47.3337 10.8852 45.9686ZM8.95345 33.7297L8.85013 33.9145C9.03477 34.0224 9.21018 34.1455 9.37457 34.2823C10.652 35.5144 11.9169 36.7605 13.1959 37.9925C13.6655 38.4465 13.8769 38.9631 13.7501 39.6237C13.5935 40.466 13.4605 41.3144 13.3164 42.1598C13.127 43.2885 12.9345 44.4172 12.7231 45.6696C13.0221 45.5271 13.21 45.4442 13.3931 45.3487C14.9273 44.5409 16.4724 43.7503 17.9925 42.9159C18.6985 42.5277 19.3326 42.5433 20.0276 42.9253C21.5477 43.7582 23.0913 44.5503 24.6286 45.3549C24.8023 45.4473 24.9855 45.5224 25.2548 45.6445C25.2094 45.3174 25.1859 45.106 25.1499 44.8978C24.854 43.1492 24.5691 41.3974 24.2513 39.6535C24.1276 38.9678 24.3343 38.4434 24.8242 37.9737C26.1189 36.7307 27.3995 35.469 28.6831 34.2166C28.8178 34.0867 28.943 33.9458 29.1074 33.772C28.9086 33.7219 28.7802 33.6749 28.6471 33.6561C26.911 33.4057 25.1765 33.1348 23.4357 32.9235C22.5371 32.8139 21.9469 32.4273 21.5571 31.5772C20.9027 30.1197 20.1591 28.703 19.4515 27.2706C19.3185 27.0013 19.1776 26.7352 18.9975 26.3845C18.841 26.6647 18.7439 26.8542 18.6516 27.0326C17.8688 28.6231 17.0736 30.209 16.3034 31.8058C16.0075 32.4194 15.566 32.7732 14.8757 32.8578C13.8894 32.9799 12.9078 33.1395 11.9247 33.2867C10.9416 33.4338 9.94596 33.5826 8.95345 33.7297Z" fill="#68E2AA"/>
<path d="M7.66945 23.728C8.25494 23.728 8.84043 23.7092 9.42435 23.728C10.4028 23.7672 10.9429 24.2931 10.9663 25.2716C10.9945 26.441 10.9961 27.612 10.9663 28.7814C10.9413 29.7207 10.3949 30.2717 9.45722 30.2968C8.26902 30.3296 7.0777 30.3312 5.8895 30.2968C4.98465 30.2701 4.43048 29.716 4.40386 28.8127C4.36942 27.6057 4.36786 26.394 4.40386 25.187C4.43204 24.3119 4.98152 23.7859 5.85505 23.7374C6.45776 23.703 7.06361 23.7374 7.66788 23.7374L7.66945 23.728ZM6.14936 25.5158C6.14936 26.4551 6.13997 27.3552 6.16032 28.2475C6.16032 28.3509 6.31687 28.5356 6.4155 28.5372C7.32504 28.5591 8.23459 28.5513 9.18014 28.5513V25.5158H6.14936Z" fill="#68E2AA"/>
<path d="M23.4511 54.1326C23.4511 54.6962 23.4636 55.1815 23.4511 55.6652C23.4339 56.257 23.0863 56.6186 22.5666 56.6139C22.0469 56.6092 21.704 56.246 21.7009 55.648C21.6915 53.8133 21.6915 51.979 21.7009 50.1453C21.7009 49.5192 22.014 49.1794 22.6136 49.156C23.2561 49.1209 23.9005 49.1361 24.5407 49.2014C25.1466 49.277 25.7027 49.5753 26.1009 50.0382C26.499 50.5012 26.7107 51.0957 26.6948 51.7061C26.6696 52.3275 26.4161 52.9177 25.9828 53.3637C25.5495 53.8097 24.9669 54.0802 24.3465 54.1232C24.0788 54.1498 23.8049 54.1326 23.4511 54.1326ZM23.4949 50.7543V52.3668C24.0178 52.3824 24.5548 52.5061 24.8256 51.9629C24.9179 51.775 24.9007 51.3523 24.7817 51.2772C24.4201 51.0502 23.988 50.9422 23.4949 50.7543Z" fill="#68E2AA"/>
<path d="M14.1886 53.0915C14.5549 52.0505 14.8602 51.1785 15.167 50.3081C15.2312 50.1234 15.2922 49.9386 15.3674 49.7586C15.585 49.2357 16.017 49.0056 16.4742 49.159C16.9704 49.3265 17.199 49.7852 17.0111 50.3394C16.5415 51.7483 16.0421 53.1369 15.5537 54.5349C15.3799 55.0311 15.2593 55.5603 15.0042 56.0111C14.8235 56.313 14.5365 56.5363 14.1995 56.6373C13.7862 56.7328 13.4747 56.4322 13.3307 56.0111C12.6841 54.1325 12.0282 52.254 11.3942 50.3754C11.1938 49.7852 11.4333 49.314 11.9546 49.1559C12.4243 49.0134 12.8501 49.2639 13.0598 49.8494C13.4246 50.8685 13.7753 51.8923 14.1886 53.0915Z" fill="#68E2AA"/>
<path d="M18.5214 52.852C18.5214 51.955 18.5214 51.0564 18.5214 50.1594C18.5214 49.5489 18.8454 49.181 19.3558 49.1606C19.8661 49.1403 20.2684 49.5301 20.2716 50.1484C20.2841 51.9623 20.2841 53.7767 20.2716 55.5916C20.2716 56.2366 19.9303 56.6107 19.3965 56.6154C18.8626 56.6201 18.5261 56.2475 18.5198 55.6026C18.5151 54.6867 18.5214 53.7694 18.5214 52.852Z" fill="#68E2AA"/>
<path d="M15.1293 40.7447C15.2295 40.1733 15.3375 39.4798 15.4753 38.7926C15.5199 38.6345 15.5164 38.4667 15.4654 38.3107C15.4144 38.1546 15.3181 38.0171 15.1888 37.9159C14.7067 37.4916 14.2605 37.0251 13.8018 36.5727C13.4558 36.2299 13.3134 35.8276 13.4887 35.3485C13.6641 34.8695 14.0132 34.6425 14.4953 34.5752C15.1513 34.4828 15.8135 34.4186 16.46 34.2793C16.7057 34.2099 16.9167 34.0514 17.0517 33.8347C17.3836 33.2633 17.6576 32.6575 17.9456 32.061C18.1617 31.618 18.5014 31.3613 19.0008 31.3581C19.227 31.3521 19.4497 31.4152 19.6391 31.5392C19.8285 31.6631 19.9756 31.8419 20.0606 32.0516C20.3439 32.6293 20.6508 33.196 20.9044 33.7862C20.9617 33.9394 21.0636 34.0718 21.197 34.1664C21.3304 34.2611 21.4892 34.3135 21.6527 34.3169C22.2789 34.3889 22.8878 34.4875 23.5046 34.572C23.9884 34.6378 24.3484 34.8663 24.5191 35.3391C24.7007 35.8401 24.5347 36.2534 24.1715 36.6087C23.7394 37.033 23.3293 37.4838 22.8659 37.8611C22.5106 38.1554 22.4589 38.4779 22.5528 38.8896C22.6655 39.4234 22.7485 39.9635 22.8471 40.5005C22.9458 41.0374 22.8988 41.5196 22.4151 41.8609C21.9579 42.1834 21.5024 42.0988 21.0406 41.8468C20.4942 41.5478 19.9447 41.2394 19.378 40.992C19.1437 40.902 18.8844 40.902 18.6501 40.992C18.0098 41.277 17.4102 41.6495 16.7715 41.9454C15.9183 42.3446 15.1012 41.7904 15.1293 40.7447ZM18.9851 33.9177C18.589 35.5818 17.512 36.1813 15.9042 36.1767C17.3367 37.0658 17.6263 38.2587 17.1112 39.7992C18.3996 38.7033 19.616 38.8176 20.9216 39.7647C20.2735 38.1898 20.7823 37.0658 22.0785 36.1422C20.4206 36.2267 19.4454 35.516 18.9851 33.9192V33.9177Z" fill="#68E2AA"/>
</g>
<defs>
<clipPath id="clip0_148:480">
<rect width="36.7809" height="60" fill="white" transform="translate(0.609375)"/>
</clipPath>
</defs>
</svg>
