<svg width="112" height="81" viewBox="0 0 112 81" fill="none" xmlns="http://www.w3.org/2000/svg">
<path d="M0.570557 1.28054C1.76489 -0.165379 2.4329 -0.301297 4.07258 0.644336C7.18999 2.44306 10.3084 4.24179 13.4277 6.04052C14.2085 6.48875 14.7753 7.05845 14.57 8.03011C14.3184 9.21866 13.1009 9.65532 11.9037 8.97574C9.55552 7.6426 7.22469 6.27765 4.88518 4.92716C4.596 4.75365 4.26922 4.60038 3.81809 4.34879V5.53156C3.81809 15.9229 3.81039 26.3133 3.79497 36.7027C3.79497 37.5009 4.04077 37.9202 4.72614 38.2933C6.71573 39.3806 8.66484 40.5402 10.7527 41.7432L25.212 16.6796C23.4566 15.6559 21.7215 14.6553 19.9893 13.6374C19.5411 13.4064 19.1083 13.1466 18.6937 12.8595C18.3563 12.6367 18.1199 12.2903 18.0355 11.8948C17.9511 11.4994 18.0255 11.0867 18.2426 10.7456C18.688 9.92138 19.5064 9.64086 20.2669 10.0602C22.9187 11.5061 25.5301 13.0446 28.1154 14.6119C28.3215 14.7517 28.4941 14.9355 28.6206 15.15C28.7471 15.3646 28.8245 15.6045 28.847 15.8525C28.8008 16.7779 29.3589 17.0845 30.0038 17.4402C31.5393 18.3077 33.0922 19.155 34.5786 20.1007C35.2206 20.5084 35.6573 21.2314 36.2935 21.6478C37.1045 22.1538 37.9625 22.5799 38.8557 22.9202C40.1917 23.4581 41.4092 23.3395 42.7105 22.5125C45.3508 20.8352 48.1038 19.3314 50.8308 17.7843C54.3762 15.7774 57.9592 15.7398 61.5306 17.7294C63.8875 19.0451 66.2068 20.4274 68.552 21.7779C69.3595 22.2586 70.2554 22.5718 71.1865 22.699C72.1175 22.8262 73.0646 22.7647 73.9714 22.5182C74.8042 22.2985 75.5995 22.0642 76.0217 21.1417C76.1952 20.7687 76.6955 20.5142 77.0917 20.2742C78.8268 19.2476 80.5995 18.2759 82.3115 17.2146C82.6885 16.951 82.9454 16.5485 83.0257 16.0955C83.1645 15.1122 83.7574 14.5888 84.5411 14.1377C91.1248 10.3474 97.7076 6.55045 104.289 2.74671C105.631 1.97169 106.959 1.17354 108.312 0.433232C109.931 -0.466131 111.409 0.398531 111.409 2.24353C111.409 14.2601 111.415 26.2748 111.427 38.2875C111.451 38.7204 111.349 39.1512 111.133 39.5271C110.917 39.903 110.596 40.2078 110.209 40.4043C107.494 41.9659 104.801 43.5709 102.045 45.0602C101.419 45.3757 100.697 45.4468 100.021 45.2597C99.7514 45.1421 99.4563 45.095 99.1634 45.1228C98.8705 45.1506 98.5894 45.2525 98.3467 45.4188C96.7446 46.3846 95.1136 47.3014 93.4104 48.2846C94.1102 50.2915 94.2952 52.3042 93.3496 54.2591C92.404 56.214 90.773 57.3014 88.6533 57.8855C89.4688 60.5894 89.0523 63.0532 87.0772 65.092C85.1021 67.1307 82.6729 67.5298 79.9025 66.8068C79.8302 69.4297 78.8326 71.4974 76.629 72.8335C74.4254 74.1695 72.1235 74.1348 69.7261 73.1082C69.6481 73.6576 69.6191 74.1463 69.5093 74.6177C69.2919 75.644 68.8417 76.6066 68.1935 77.4314C67.5453 78.2562 66.7163 78.9211 65.7705 79.3748C64.8247 79.8286 63.7873 80.0591 62.7384 80.0486C61.6894 80.038 60.6569 79.7867 59.7204 79.3141C58.4913 78.7212 57.323 77.9954 56.1547 77.2898C55.9569 77.1457 55.7184 77.0681 55.4737 77.0681C55.2289 77.0681 54.9905 77.1457 54.7927 77.2898C53.8008 77.8681 52.7857 78.4841 51.6955 78.7704C47.5775 79.8548 43.8007 77.1481 43.1414 72.6571C40.7325 73.6981 38.3409 73.8311 36.0622 72.3679C33.7834 70.9046 32.8667 68.7502 32.8349 66.0289C30.426 66.2314 28.2976 65.6819 26.6261 63.8803C24.9546 62.0787 24.5497 59.9156 24.9344 57.5038C24.5295 57.4026 24.1507 57.3245 23.7776 57.2146C22.1067 56.7645 20.6707 55.6935 19.763 54.2203C18.8552 52.7471 18.5441 50.9829 18.8933 49.2881C19.009 48.7097 18.8933 48.4465 18.3959 48.1747C16.6955 47.2262 15.0356 46.214 13.3236 45.2828C13.0171 45.118 12.5544 45.251 12.1668 45.2366C11.4439 45.2077 10.5937 45.413 10.0211 45.1036C7.19866 43.5882 4.44273 41.9514 1.6868 40.3118C1.24724 40.0515 0.940716 39.5657 0.573451 39.184L0.570557 1.28054ZM41.308 58.2007C45.7846 58.2007 48.4277 60.3551 49.1912 64.7276C55.1223 63.1458 60.1252 68.5304 57.7163 74.3951C58.8933 75.0631 60.0298 75.8786 61.2848 76.3528C62.1612 76.6467 63.1031 76.6848 64.0003 76.4627C65.4462 76.1157 66.2039 74.9763 66.3456 73.5362C66.428 72.8854 66.3197 72.2247 66.0338 71.6343C65.7478 71.0439 65.2966 70.5493 64.7348 70.2106C63.7718 69.5801 62.7308 69.0683 61.7678 68.4407C60.9002 67.8826 60.7325 66.9717 61.227 66.1822C61.4472 65.8263 61.7961 65.569 62.2012 65.464C62.6063 65.359 63.0363 65.4142 63.4017 65.6183C63.821 65.8207 64.2172 66.0752 64.6249 66.3094C66.8083 67.5703 68.9627 68.8658 71.1778 70.0688C71.999 70.5426 72.9728 70.6765 73.8914 70.442C74.8099 70.2075 75.6004 69.6232 76.094 68.8138C77.109 67.0787 76.5249 64.9821 74.7117 63.8629C74.3126 63.62 73.8962 63.4003 73.4913 63.166C71.3716 61.9399 69.2143 60.7716 67.1611 59.4442C66.8912 59.2393 66.6725 58.9748 66.522 58.6712C66.3715 58.3677 66.2933 58.0334 66.2935 57.6946C66.3542 57.2001 67.0801 56.6247 67.6411 56.4107C68.0257 56.2632 68.6677 56.5928 69.1189 56.8473C72.7799 58.9324 76.3976 61.0983 80.0934 63.1197C80.9708 63.579 81.9607 63.7795 82.9477 63.6981C84.3618 63.5651 85.4838 62.2667 85.6544 60.974C85.8684 59.3285 85.3652 57.9665 83.8875 57.1018C80.1281 54.9127 76.3398 52.7467 72.5717 50.5576C71.4526 49.9069 71.1258 49.0394 71.6116 48.1602C72.1264 47.2348 73.0894 47.0613 74.2345 47.712C75.8944 48.6547 77.5428 49.6177 79.1969 50.5691C81.2849 51.775 83.3699 52.9925 85.4722 54.1782C86.0311 54.518 86.6752 54.6917 87.3292 54.6789C87.9832 54.6661 88.62 54.4673 89.1651 54.1059C90.3739 53.3656 90.7903 52.2348 90.6458 50.8641C90.4896 49.3806 89.6914 48.3598 88.4161 47.6252C82.2912 44.1223 76.1827 40.5942 70.0905 37.0411C69.5729 36.7374 68.9685 36.2111 68.8557 35.6906C68.7429 35.1701 69.0813 34.4153 69.4774 34.0278C70.0876 33.4321 70.8713 33.7039 71.574 34.1117C76.3398 36.8724 81.1104 39.6283 85.8858 42.3794C86.2039 42.5616 86.5306 42.7265 86.8545 42.9L86.9933 42.7091L76.8198 25.0891C76.6791 25.1036 76.5398 25.1297 76.4034 25.1672C72.965 26.6131 69.6712 26.295 66.4786 24.4037C64.249 23.0793 62.0049 21.7779 59.7348 20.5258C57.5312 19.3112 55.2004 19.2129 53.0055 20.4072C49.2461 22.4517 45.5503 24.6322 41.8603 26.8097C41.2168 27.1895 40.715 27.7689 40.431 28.4601C40.147 29.1512 40.0965 29.9161 40.2872 30.6385C40.9292 33.0561 43.4306 34.1088 45.6891 32.8219C48.9511 30.9827 52.19 29.0972 55.426 27.2117C56.7157 26.4627 58.0286 26.3442 59.3242 27.0642C60.9976 27.9838 62.6527 28.9343 64.2895 29.9156C65.2611 30.494 65.5156 31.3615 65.0471 32.203C64.5787 33.0446 63.6301 33.3048 62.6296 32.7496C61.2444 31.9804 59.8505 31.2169 58.5202 30.3609C57.777 29.8867 57.2131 29.9532 56.4815 30.387C53.3843 32.2262 50.2872 34.0683 47.1235 35.786C42.2594 38.4234 36.7128 34.9532 36.9586 29.424C37.0078 28.3135 37.4387 27.2204 37.7019 26.0752L35.1773 25.0602C31.7562 30.9942 28.3699 36.8589 24.9864 42.7265L25.1368 42.9462C28.3438 40.7571 31.6348 40.0544 34.7753 42.7785C37.323 44.9879 37.7163 47.8421 36.4612 50.974C39.7435 52.2869 41.3456 54.6987 41.308 58.2007ZM86.7475 16.6796C89.3357 21.1649 91.8661 25.5258 94.356 29.9098C94.6452 30.4101 94.9344 31.1128 94.8071 31.59C94.6889 31.8738 94.5137 32.1303 94.2924 32.3437C94.071 32.5571 93.8082 32.7228 93.5202 32.8306C92.7076 33.1198 92.1032 32.5645 91.6897 31.8444C89.7849 28.5362 87.8763 25.2308 85.9639 21.9283C85.5416 21.1938 85.1108 20.465 84.6625 19.6987L79.2981 22.8017L92.2045 45.1527L97.5717 42.0469C96.9702 41 96.3861 40.0515 95.8742 39.0654C95.666 38.6692 95.3999 38.1024 95.5387 37.7698C95.7611 37.1932 96.1814 36.7145 96.7244 36.4193C97.4821 36.1041 98.1703 36.4888 98.6186 37.2493C99.4861 38.7415 100.354 40.2221 101.236 41.7519C103.353 40.5316 105.359 39.3401 107.407 38.2123C107.662 38.0977 107.873 37.9051 108.012 37.6624C108.15 37.4197 108.207 37.1394 108.176 36.8618C108.153 26.3258 108.146 15.7918 108.156 5.25972C108.156 4.99946 108.107 4.73919 108.069 4.36614L86.7475 16.6796ZM19.7753 45.1498L32.67 22.7959L27.2883 19.6929L14.3878 42.0469L19.7753 45.1498ZM25.825 54.1464C26.1603 54.1352 26.4906 54.0627 26.7996 53.9324C28.7198 52.8768 30.6804 51.8734 32.4907 50.6472C34.009 49.6206 34.2432 47.524 33.2687 46C32.2941 44.476 30.3999 43.863 28.821 44.6727C26.9965 45.6109 25.2205 46.6407 23.5 47.7583C22.164 48.6258 21.7302 50.2944 22.2449 51.7866C22.725 53.1863 24.035 54.1203 25.825 54.1464ZM31.7678 62.7756C31.9446 62.787 32.1219 62.7614 32.2883 62.7004C33.8528 61.8329 35.5214 61.107 36.9297 60.0342C38.338 58.9613 38.3207 56.9486 37.3201 55.5229C36.8501 54.8489 36.1584 54.3613 35.3656 54.1451C34.5729 53.929 33.7294 53.998 32.9824 54.3401C31.7823 54.9237 30.623 55.5874 29.5121 56.3268C28.902 56.7522 28.4469 57.3646 28.2158 58.0716C27.9846 58.7786 27.99 59.5416 28.2311 60.2453C28.4674 60.9929 28.9399 61.6437 29.5776 62.1C30.2153 62.5562 30.9839 62.7933 31.7678 62.7756ZM36.2097 66.2921C36.2386 69.2215 38.8846 70.9191 41.2646 69.7912C42.3004 69.2895 43.2996 68.7155 44.2548 68.0735C44.8794 67.6706 45.3564 67.0758 45.614 66.3786C45.8716 65.6813 45.8959 64.9193 45.6833 64.2071C45.2235 62.6455 43.9482 61.4569 42.378 61.6189C41.2321 61.7317 40.124 62.09 39.129 62.6694C38.134 63.2487 37.2754 64.0355 36.6116 64.9763C36.2848 65.3927 36.2762 66.0463 36.2097 66.2921ZM54.9662 71.3789C55.0068 70.7444 54.865 70.1115 54.5575 69.555C54.2501 68.9986 53.7898 68.5417 53.2311 68.2383C51.7042 67.3245 50.2987 67.7988 48.8759 68.6287C47.4532 69.4587 46.4468 70.4274 46.4612 72.1597C46.4648 72.4818 46.5125 72.8019 46.6029 73.1111C46.8263 73.8967 47.3127 74.5819 47.9807 75.0519C48.6486 75.522 49.4578 75.7485 50.2727 75.6935C52.4445 75.4766 54.7551 73.5564 54.9343 71.8097C54.9546 71.668 54.9604 71.5234 54.9662 71.3789Z" fill="#68E2AA"/>
</svg>
