<svg width="492" height="479" viewBox="0 0 492 479" fill="none" xmlns="http://www.w3.org/2000/svg">
<path d="M252.689 478.621C384.857 478.621 492 371.478 492 239.311C492 107.143 384.857 0 252.689 0C120.521 0 13.3784 107.143 13.3784 239.311C13.3784 371.478 120.521 478.621 252.689 478.621Z" fill="#F3F6F9"/>
<path d="M343.9 352.112C340.83 351.082 338.088 349.259 335.948 346.829C333.809 344.398 332.349 341.446 331.716 338.271L322.654 293.431L245.158 296.183L235.616 342.899C234.287 349.437 239.63 356 245.789 358.406L278.21 371.095C284.235 373.451 290.721 374.392 297.167 373.847L365.693 367.957C366.672 367.875 367.592 367.454 368.292 366.765C368.993 366.077 369.431 365.164 369.53 364.187C369.765 362.168 371.213 359.904 369.261 359.265L343.9 352.112Z" fill="#98A5B4"/>
<path d="M344.666 349.403C341.612 348.399 338.877 346.606 336.739 344.204C334.601 341.803 333.135 338.88 332.491 335.73L323.445 291.462L247.834 294.18L238.309 340.307C237.657 343.435 238.139 346.693 239.668 349.498C241.197 352.304 243.674 354.474 246.656 355.621L279.043 368.15C285.07 370.476 291.546 371.403 297.984 370.859L366.434 365.07C367.416 365.006 368.345 364.6 369.058 363.922C369.772 363.244 370.225 362.337 370.339 361.36C370.453 360.382 370.221 359.395 369.683 358.571C369.144 357.747 368.334 357.138 367.393 356.85L344.666 349.403Z" fill="url(#paint0_linear)"/>
<path d="M468.423 262.256V61.2054C468.393 59.1849 467.592 57.2523 466.184 55.8025C464.777 54.3527 462.869 53.4952 460.85 53.4053L115.435 39.5218C110.185 39.3114 105.868 42.9464 105.868 47.5911V269.787L468.423 262.256Z" fill="url(#paint1_linear)"/>
<path d="M453.412 63.4518L125.314 51.209C120.534 51.0323 116.613 54.356 116.613 58.5968V252.125C116.613 256.45 120.618 259.883 125.499 259.749L453.311 250.426C455.197 250.365 456.987 249.58 458.31 248.234C459.632 246.888 460.385 245.085 460.413 243.198V70.5871C460.383 68.7269 459.641 66.9489 458.338 65.6209C457.035 64.2928 455.271 63.5163 453.412 63.4518Z" fill="url(#paint2_linear)"/>
<path d="M105.885 269.787V314.156C105.885 318.809 110.202 322.436 115.452 322.208L460.867 307.61C462.886 307.514 464.793 306.652 466.2 305.2C467.607 303.748 468.408 301.814 468.44 299.793V260.969L105.885 269.787Z" fill="url(#paint3_linear)"/>
<g style="mix-blend-mode:soft-light" opacity="0.48">
<g style="mix-blend-mode:soft-light" opacity="0.48">
<path d="M431.013 236.298C402.64 226.715 379.173 246.261 358.785 230.871C335.788 213.529 354.376 180.192 333.104 160.561C303.57 133.282 244.51 175.581 218.855 149.867C201.185 132.197 222.027 103.883 207.075 74.1383C199.502 58.9925 185.257 48.6766 167.982 41.6591L115.435 39.5471C110.185 39.3368 105.868 42.9718 105.868 47.6165V314.181C105.868 318.834 110.185 322.461 115.435 322.233L460.85 307.635C462.87 307.539 464.777 306.677 466.183 305.225C467.59 303.773 468.391 301.839 468.423 299.818V271.125C456.264 249.601 442.835 240.295 431.013 236.298Z" fill="white"/>
</g>
</g>
<path d="M215.936 251.798L178.913 272.547C178.913 272.547 161.285 257.452 162.858 238.949C166.056 201.203 132.769 201.034 118.843 198.88C97.8075 195.632 83.1245 184.467 95.3252 165.046C109.125 143.077 75.4507 124.035 40.767 123.673C6.83221 123.32 -12.1336 62.7875 61.3988 56.805C105.313 53.2289 120.593 93.3567 133.122 111.776C145.651 130.194 175.362 115.671 178.753 144.86C181.647 169.784 173.906 193.487 193.899 200.546C213.891 207.606 223.845 222.491 215.936 251.798Z" fill="url(#paint4_linear)"/>
<g style="mix-blend-mode:soft-light" opacity="0.5">
<g style="mix-blend-mode:soft-light" opacity="0.5">
<path d="M201.817 264.234L200.975 264.529C200.79 263.999 182.624 211.451 148.908 164.794C117.85 121.797 66.8515 75.1569 0.277686 97.0677L0 96.2262C29.6351 86.4741 58.698 89.2592 86.381 104.497C108.485 116.673 129.782 136.783 149.648 164.289C183.44 211.048 201.64 263.713 201.817 264.234Z" fill="#BBB8ED"/>
</g>
<g style="mix-blend-mode:soft-light" opacity="0.5">
<path d="M97.6814 111.363L96.84 111.7C85.5816 84.059 55.1893 52.8756 54.8779 52.5643L55.5174 51.9332C55.8372 52.2446 86.3558 83.5625 97.6814 111.363Z" fill="#BBB8ED"/>
</g>
<g style="mix-blend-mode:soft-light" opacity="0.5">
<path d="M78.9512 101.712C43.4261 100.029 23.2318 121.705 23.0383 121.907L22.3735 121.301C22.5755 121.082 43.039 99.1206 78.9933 100.795L78.9512 101.712Z" fill="#BBB8ED"/>
</g>
<g style="mix-blend-mode:soft-light" opacity="0.5">
<path d="M169.287 196.499C139.888 164.525 84.6561 183.558 84.1345 183.794L83.7222 182.994C84.2102 182.725 140.283 163.641 169.952 195.893L169.287 196.499Z" fill="#BBB8ED"/>
</g>
<g style="mix-blend-mode:soft-light" opacity="0.5">
<path d="M160.78 180.731L159.938 181C151.6 154.562 168.168 123.884 168.353 123.573L169.135 124.01C168.933 124.313 152.559 154.663 160.78 180.731Z" fill="#BBB8ED"/>
</g>
<g style="mix-blend-mode:soft-light" opacity="0.5">
<path d="M197.929 256.317C188.766 242.593 161.899 242.711 161.63 242.711V241.819C162.757 241.819 189.246 241.693 198.653 255.82L197.929 256.317Z" fill="#BBB8ED"/>
</g>
<g style="mix-blend-mode:soft-light" opacity="0.5">
<path d="M193.798 243.821L192.956 244.115C188.589 231.822 198.552 209.818 201.825 202.591C202.288 201.564 202.667 200.68 202.725 200.512L203.567 200.706C203.296 201.477 202.976 202.231 202.608 202.961C199.402 210.105 189.549 231.864 193.798 243.821Z" fill="#BBB8ED"/>
</g>
</g>
<path d="M212.048 332.347L212.73 332.431C227.92 334.113 243.291 332.955 258.058 329.015L267.608 325.818C268.028 317.403 266.918 309.292 256.249 309.242C239.672 309.157 231.426 282.484 232.823 271.781C234.506 258.529 237.872 227.598 212.292 227.076C190.97 226.647 177.121 230.719 168.37 206.04C159.619 181.361 141.301 169.648 118.961 177.836C95.4515 186.46 66.4138 160.326 49.905 176.775C21.1534 205.435 68.4164 251.663 114.771 255.474C161.125 259.286 141.638 281.289 146.56 302.174C153.291 330.69 189.473 313.541 202.717 321.619C206.838 324.172 210.091 327.912 212.048 332.347Z" fill="url(#paint5_linear)"/>
<g style="mix-blend-mode:soft-light" opacity="0.5">
<g style="mix-blend-mode:soft-light" opacity="0.5">
<path d="M237.543 332.516L238.587 331.969C198.131 255.787 120.896 199.63 37.031 185.367L36.8374 186.537C120.349 200.715 197.256 256.653 237.543 332.516Z" fill="#FBFCFD"/>
</g>
<g style="mix-blend-mode:soft-light" opacity="0.5">
<path d="M211.931 292.876L213.058 292.539C203.39 260.052 223.66 226.445 223.862 226.108L222.861 225.486C222.65 225.831 202.103 259.875 211.931 292.876Z" fill="#FBFCFD"/>
</g>
<g style="mix-blend-mode:soft-light" opacity="0.5">
<path d="M229.718 318.708L230.56 317.867C206.293 293.533 145.222 307.256 144.608 307.391L144.877 308.544C145.508 308.409 205.906 294.837 229.718 318.708Z" fill="#FBFCFD"/>
</g>
<g style="mix-blend-mode:soft-light" opacity="0.5">
<path d="M150.818 234.456L151.718 233.699C134.183 212.823 138.844 171.282 138.895 170.861L137.717 170.726C137.675 171.147 132.954 213.193 150.818 234.456Z" fill="#FBFCFD"/>
</g>
<g style="mix-blend-mode:soft-light" opacity="0.5">
<path d="M103.386 207.042L103.689 205.907C73.6839 197.871 36.9556 218.183 36.5938 218.385L37.1659 219.42C37.5277 219.209 73.8438 199.133 103.386 207.042Z" fill="#FBFCFD"/>
</g>
</g>
<path d="M460.371 408.901L57.8569 405.392V415.767C57.8569 418.577 59.6071 420.975 61.9883 421.404L175.8 441.826C177.146 442.07 178.518 442.136 179.881 442.019L455.996 418.728C458.461 418.518 460.363 416.12 460.363 413.225L460.371 408.901Z" fill="url(#paint6_linear)"/>
<path d="M330.799 392.081L62.2826 411.063C61.1689 411.162 60.0468 411.026 58.9888 410.665C57.9308 410.304 56.9602 409.724 56.1396 408.965C55.3191 408.206 54.6668 407.283 54.2249 406.256C53.783 405.229 53.5611 404.12 53.5738 403.002V211.047C53.576 209.906 53.803 208.776 54.2419 207.722C54.6807 206.669 55.3228 205.712 56.1315 204.906C56.9402 204.1 57.8996 203.462 58.955 203.027C60.0104 202.592 61.1411 202.37 62.2826 202.372H330.799C334.754 202.372 337.96 205.881 337.96 210.214V383.734C337.96 388.109 334.754 391.803 330.799 392.081Z" fill="url(#paint7_linear)"/>
<path d="M335.082 392.081L66.5657 411.063C65.452 411.162 64.33 411.026 63.272 410.665C62.2139 410.304 61.2434 409.724 60.4228 408.965C59.6023 408.206 58.95 407.283 58.5081 406.256C58.0662 405.229 57.8443 404.12 57.857 403.002V211.047C57.8592 209.906 58.0861 208.776 58.525 207.722C58.9639 206.669 59.606 205.712 60.4147 204.906C61.2234 204.1 62.1828 203.462 63.2382 203.027C64.2936 202.592 65.4243 202.37 66.5657 202.372H335.082C339.037 202.372 342.243 205.881 342.243 210.214V383.734C342.243 388.109 339.037 391.803 335.082 392.081Z" fill="url(#paint8_linear)"/>
<path d="M326.718 379.846L76.6206 396.33C75.711 396.405 74.7958 396.289 73.9337 395.99C73.0715 395.69 72.2815 395.214 71.6144 394.591C70.9472 393.968 70.4177 393.213 70.0597 392.374C69.7017 391.534 69.5233 390.629 69.5358 389.716V221.658C69.5402 219.778 70.2872 217.976 71.6142 216.644C72.9412 215.312 74.7406 214.559 76.6206 214.548L326.718 213.513C329.983 213.513 332.608 216.374 332.608 219.941V373.014C332.625 376.573 329.983 379.636 326.718 379.846Z" fill="url(#paint9_linear)"/>
<path d="M210.298 207.623C210.271 208.229 210.067 208.814 209.711 209.306C209.355 209.797 208.862 210.173 208.294 210.386C207.726 210.6 207.108 210.642 206.516 210.507C205.924 210.372 205.385 210.066 204.966 209.627C204.547 209.189 204.265 208.636 204.157 208.039C204.049 207.442 204.119 206.826 204.358 206.268C204.597 205.71 204.995 205.235 205.502 204.901C206.009 204.568 206.603 204.39 207.21 204.391C208.047 204.414 208.841 204.766 209.42 205.371C209.998 205.976 210.314 206.786 210.298 207.623Z" fill="white"/>
<path d="M328.376 391.222L57.8569 411.198L175.8 432.36C177.146 432.604 178.518 432.669 179.881 432.553L460.363 408.901L332.676 391.357C331.251 391.161 329.81 391.116 328.376 391.222Z" fill="url(#paint10_linear)"/>
<path style="mix-blend-mode:multiply" opacity="0.3" d="M97.3281 411.694L322.545 394.824L392.249 404.315L168.967 422.355L97.3281 411.694Z" fill="url(#paint11_linear)"/>
<g style="mix-blend-mode:soft-light" opacity="0.48">
<path d="M270.385 339.441C249.686 328.3 233.413 342.411 217.703 328.502C208.178 320.088 212.856 313.769 201.135 301.156C188.161 287.18 179.704 291.9 166.637 279.279C150.145 263.376 158.399 251.007 144.187 239.588C126.955 225.739 108.368 238.553 91.96 225.284C84.892 219.554 81.0215 211.224 78.9768 202.372H62.956C61.6117 202.37 60.321 202.899 59.3657 203.845C58.4104 204.791 57.8681 206.076 57.8569 207.421V406.393C57.8473 407.049 57.9755 407.7 58.2333 408.303C58.491 408.907 58.8726 409.449 59.3532 409.896C59.8339 410.342 60.4029 410.683 61.0235 410.896C61.6441 411.108 62.3025 411.188 62.956 411.131L336.614 391.702C337.281 391.639 337.925 391.425 338.497 391.075C339.069 390.725 339.553 390.249 339.912 389.683C319.878 388.959 307.568 382.244 299.7 375.294C284.344 361.756 286.978 348.368 270.385 339.441Z" fill="white"/>
</g>
<path d="M453.076 269.704V389.885C453.076 391.685 451.536 392.089 449.803 392.173L391.66 395.985L390.819 396.027C390.399 396.042 389.98 395.971 389.588 395.819C389.196 395.667 388.84 395.437 388.54 395.142C388.24 394.848 388.003 394.496 387.844 394.107C387.684 393.718 387.606 393.301 387.613 392.88V271.664C387.612 270.798 387.944 269.966 388.541 269.339C389.138 268.712 389.954 268.339 390.819 268.298H391.988L450.366 269.274C452.083 269.165 453.076 267.903 453.076 269.704Z" fill="url(#paint12_linear)"/>
<path d="M454.935 269.586V389.86C454.937 390.724 454.612 391.556 454.025 392.19C453.438 392.824 452.633 393.212 451.771 393.276L392.568 396.002C392.147 396.019 391.727 395.95 391.334 395.799C390.94 395.648 390.582 395.418 390.281 395.123C389.98 394.828 389.743 394.475 389.583 394.085C389.424 393.695 389.346 393.276 389.354 392.855V271.555C389.353 270.688 389.687 269.854 390.286 269.227C390.885 268.6 391.702 268.228 392.568 268.189L451.771 266.439C452.187 266.432 452.6 266.509 452.986 266.664C453.372 266.82 453.722 267.051 454.017 267.344C454.312 267.638 454.545 267.987 454.703 268.372C454.861 268.757 454.939 269.17 454.935 269.586Z" fill="url(#paint13_linear)"/>
<path d="M452.966 276.317V387.646C452.969 388.451 452.666 389.227 452.12 389.819C451.574 390.41 450.824 390.773 450.021 390.835L394.344 393.359C393.951 393.376 393.559 393.311 393.192 393.17C392.825 393.029 392.491 392.814 392.211 392.539C391.93 392.264 391.709 391.934 391.56 391.57C391.412 391.206 391.34 390.816 391.348 390.423V278.218C391.345 277.406 391.654 276.624 392.212 276.033C392.769 275.443 393.533 275.089 394.344 275.046L450.021 273.363C450.41 273.358 450.796 273.43 451.157 273.577C451.517 273.723 451.845 273.941 452.119 274.216C452.394 274.492 452.611 274.82 452.756 275.181C452.902 275.541 452.973 275.928 452.966 276.317Z" fill="url(#paint14_linear)"/>
<path d="M423.382 270.898C423.382 271.197 423.268 271.484 423.063 271.702C422.858 271.919 422.578 272.05 422.279 272.067C422.134 272.07 421.99 272.043 421.856 271.988C421.722 271.933 421.6 271.852 421.498 271.749C421.395 271.646 421.315 271.524 421.261 271.389C421.208 271.254 421.182 271.11 421.185 270.965C421.181 270.666 421.292 270.377 421.496 270.159C421.7 269.941 421.981 269.811 422.279 269.795C422.425 269.792 422.57 269.818 422.705 269.872C422.84 269.926 422.963 270.008 423.066 270.111C423.169 270.214 423.251 270.337 423.305 270.472C423.359 270.607 423.385 270.752 423.382 270.898Z" fill="#D190D9"/>
<g style="mix-blend-mode:soft-light" opacity="0.48">
<g style="mix-blend-mode:soft-light" opacity="0.48">
<path d="M435.7 339.306C430.307 325.734 415.758 328.94 411.223 315.224C407.521 304.033 415.75 297.47 412.536 284.504C410.727 277.234 406.275 271.832 401.732 267.928L392.712 268.189C391.835 268.221 391.003 268.587 390.388 269.213C389.773 269.839 389.421 270.677 389.405 271.554V392.72C389.397 393.14 389.481 393.557 389.65 393.943C389.818 394.328 390.068 394.672 390.382 394.952C390.696 395.231 391.067 395.44 391.469 395.563C391.871 395.686 392.295 395.721 392.712 395.665L438.065 390.911C435.047 386.296 433.125 381.052 432.444 375.58C430.568 359.761 440.648 351.7 435.7 339.306Z" fill="white"/>
</g>
</g>
<path d="M288.888 342.764C283.917 342.921 279.006 341.651 274.735 339.104C261.819 331.355 242.761 318.573 225.562 301.829C203.769 280.591 191.248 259 188.539 237.796L188.497 237.46L187.967 146.989C187.967 129.109 199.629 114.594 221.523 105.061C239.614 97.1766 263.594 93.2808 288.921 94.0044C313.962 94.728 337.127 99.8944 354.267 108.502C374.621 118.734 385.315 133.156 385.315 150.161L384.827 236.652L384.785 236.971C382.261 257.275 370.767 278.26 350.405 299.481C334.081 316.503 315.62 329.991 302.948 338.355C298.762 341.104 293.893 342.631 288.888 342.764Z" fill="#32684C"/>
<path d="M293.86 342.764C288.949 342.921 284.097 341.649 279.893 339.104C267.145 331.355 248.306 318.573 231.368 301.829C209.861 280.591 197.509 259 194.808 237.796L194.765 237.46L194.235 146.989C194.235 129.109 205.746 114.594 227.354 105.061C245.201 97.1766 268.862 93.2808 293.827 94.0044C318.531 94.728 341.384 99.8944 358.306 108.502C378.424 118.734 388.976 133.114 388.976 150.161L388.53 236.652V236.972C386.064 257.275 374.697 278.26 354.603 299.481C338.49 316.503 320.281 329.991 307.778 338.355C303.646 341.105 298.822 342.633 293.86 342.764Z" fill="#4EA579"/>
<path d="M200.201 147.057L200.731 237.089C206.621 283.015 260.633 320.197 284.142 334.325C287.499 336.305 291.345 337.301 295.241 337.196C299.137 337.092 302.925 335.893 306.171 333.736C329.192 318.59 380.216 280.457 385.66 236.299L386.14 150.094C386.157 86.1119 200.201 80.264 200.201 147.057Z" fill="#68E2AA"/>
<path d="M295.19 320.434C294.577 320.45 293.973 320.289 293.449 319.971C283.772 314.081 265.008 301.838 248.684 285.8C231.014 268.484 220.917 251.647 218.553 235.828L218.031 147.301C218.031 138.811 224.763 131.541 237.956 125.727C252.673 119.231 273.566 115.823 295.173 116.337C316.588 116.841 336.866 121.158 350.926 128.117C363.354 134.284 369.64 141.579 369.657 149.758L369.177 235.222C366.998 250.519 357.456 267.02 340.695 284.362C324.943 300.668 306.533 313.601 296.94 319.887C296.42 320.23 295.814 320.42 295.19 320.434Z" fill="#4EA579"/>
<path d="M292.986 314.383C283.208 308.366 265.824 296.713 250.662 281.811C234.094 265.504 224.502 249.837 222.247 235.381L221.733 147.368C221.733 141.292 227.329 135.722 238.284 130.876C252.218 124.699 272.194 121.452 292.977 121.914C313.567 122.377 332.979 126.45 346.315 133.046C356.682 138.171 361.924 143.766 361.932 149.69L361.453 234.834C359.341 248.886 350.295 264.284 334.476 280.591C319.802 295.753 302.712 307.954 292.986 314.383Z" fill="#F3F6F9"/>
<path d="M327.989 199.158L262.357 199.738C259.981 199.711 257.69 200.62 255.978 202.268C254.267 203.917 253.273 206.173 253.211 208.548V250.721C253.211 255.508 257.309 259.227 262.332 259.017L327.719 256.333C329.955 256.229 332.068 255.279 333.63 253.677C335.192 252.074 336.087 249.937 336.134 247.7L336.344 207.412C336.346 206.319 336.131 205.236 335.711 204.227C335.291 203.218 334.674 202.303 333.896 201.534C333.118 200.766 332.195 200.16 331.181 199.752C330.167 199.344 329.082 199.142 327.989 199.158Z" fill="#68E2AA"/>
<path d="M304.151 223.34C304.141 222.219 303.9 221.112 303.442 220.088C302.984 219.064 302.319 218.146 301.489 217.392C300.66 216.637 299.683 216.062 298.621 215.703C297.559 215.344 296.433 215.208 295.316 215.305C293.234 215.435 291.267 216.31 289.777 217.769C288.286 219.229 287.37 221.177 287.196 223.256C287.102 224.778 287.449 226.295 288.195 227.625C288.941 228.954 290.055 230.041 291.403 230.753C291.951 231.051 292.389 231.517 292.654 232.081C292.919 232.646 292.997 233.28 292.876 233.892L290.983 244.544C290.923 244.864 290.937 245.193 291.024 245.507C291.111 245.821 291.269 246.11 291.485 246.354C291.701 246.597 291.969 246.788 292.27 246.912C292.571 247.036 292.896 247.089 293.221 247.069L298.025 246.9C298.353 246.893 298.674 246.816 298.97 246.675C299.265 246.534 299.527 246.332 299.739 246.083C299.95 245.833 300.106 245.541 300.197 245.227C300.287 244.912 300.31 244.582 300.264 244.258L298.429 233.698C298.338 233.071 298.438 232.43 298.717 231.861C298.997 231.292 299.442 230.82 299.994 230.509C301.247 229.775 302.288 228.728 303.016 227.472C303.745 226.216 304.136 224.792 304.151 223.34Z" fill="url(#paint15_linear)"/>
<path d="M327.063 194.967C326.598 194.974 326.137 194.888 325.705 194.715C325.274 194.541 324.881 194.284 324.55 193.958C324.218 193.631 323.955 193.242 323.776 192.813C323.597 192.384 323.504 191.923 323.504 191.458L323.546 182.278C323.513 177.781 321.703 173.48 318.511 170.312C315.319 167.143 311.005 165.366 306.507 165.366L285.085 165.13C275.282 165.038 267.213 172.703 267.204 182.228V191.719C267.178 192.71 266.762 193.651 266.047 194.337C265.332 195.024 264.375 195.402 263.384 195.388C262.894 195.402 262.405 195.32 261.947 195.145C261.488 194.969 261.069 194.705 260.713 194.367C260.357 194.03 260.072 193.625 259.873 193.176C259.674 192.727 259.567 192.244 259.556 191.753V182.236C259.556 168.63 271.109 157.709 285.101 157.902L306.533 158.205C319.995 158.39 330.74 169.203 330.682 182.278L330.64 191.433C330.626 192.374 330.244 193.271 329.575 193.932C328.906 194.593 328.004 194.965 327.063 194.967Z" fill="#68E2AA"/>
<path d="M190.373 240.859C191.072 239.863 191.721 238.832 192.317 237.771C192.981 236.5 191.357 232.975 190.634 230.03C189.91 227.085 189.548 231.712 189.456 232.714C189.359 234.845 188.963 236.953 188.278 238.974L190.373 240.859Z" fill="url(#paint16_linear)"/>
<path d="M182.211 417.92L181.723 425.813C181.723 425.813 182.842 426.999 184.996 426.175L187.352 418.425L182.211 417.92Z" fill="url(#paint17_linear)"/>
<path d="M183.204 423.726C183.204 423.726 179.333 425.299 180.09 427.007C180.98 428.647 181.981 430.224 183.086 431.728C183.632 432.505 184.408 433.091 185.304 433.403C186.201 433.716 187.173 433.739 188.084 433.47C188.715 433.284 189.355 433.099 189.918 432.956C190.173 432.89 190.4 432.744 190.565 432.54C190.731 432.335 190.826 432.083 190.838 431.82C190.849 431.557 190.775 431.297 190.628 431.079C190.481 430.861 190.267 430.696 190.019 430.609C189.5 430.42 188.965 430.276 188.421 430.18C187.007 429.961 185.055 426.62 184.828 425.283C184.742 424.891 184.542 424.534 184.253 424.257C183.963 423.98 183.598 423.795 183.204 423.726Z" fill="url(#paint18_linear)"/>
<path d="M173.906 342.141C179.603 344.11 200.664 352.07 205.359 370.329C206.001 372.984 206.309 375.709 206.276 378.441C206.402 396.876 195.682 412.476 187.891 421.547L180.512 421.421C178.76 415.008 178.558 408.271 179.923 401.765C182.624 389.665 189.616 386.527 188.27 380.586C185.813 369.808 160.772 371.44 158.416 361.78C157.566 358.288 159.434 352.373 173.906 342.141Z" fill="url(#paint19_linear)"/>
<path d="M103.437 452.487L114.131 452.243C114.276 452.238 114.416 452.19 114.532 452.104C114.649 452.018 114.737 451.899 114.784 451.762C114.832 451.625 114.836 451.477 114.798 451.338C114.76 451.198 114.68 451.074 114.569 450.981C114.291 450.732 113.964 450.543 113.609 450.427C113.254 450.312 112.879 450.271 112.507 450.308C110.471 450.518 105.911 447.674 103.841 448.288C103.168 448.49 102.612 450.08 102.335 450.518C102.21 450.713 102.14 450.938 102.133 451.17C102.126 451.401 102.182 451.631 102.295 451.833C102.409 452.035 102.575 452.203 102.776 452.318C102.977 452.433 103.205 452.491 103.437 452.487Z" fill="url(#paint20_linear)"/>
<path d="M108.266 444.274L103.866 448.288C104.42 448.644 105.039 448.886 105.688 448.999C106.337 449.112 107.002 449.093 107.644 448.944L112.145 445.848L108.266 444.274Z" fill="url(#paint21_linear)"/>
<g style="mix-blend-mode:color-burn" opacity="0.3">
<path style="mix-blend-mode:color-burn" opacity="0.3" d="M192.805 389.7C195.758 381.723 199.301 371.886 195.254 366.308C191.206 360.729 182.186 365.466 173.191 360.872C169.826 359.189 166.46 356.16 163.574 350.691C158.525 355.908 157.835 359.408 158.416 361.781C160.772 371.44 185.813 369.808 188.27 380.587C189.616 386.527 182.624 389.666 179.923 401.766C178.687 407.552 178.718 413.537 180.015 419.309C180.942 414.747 182.391 410.306 184.332 406.074C187.58 399.048 189.692 398.097 192.805 389.7Z" fill="url(#paint22_linear)"/>
</g>
<path d="M177.171 339.836C168.138 381.671 145.29 419.249 112.305 446.521C111.114 446.878 109.862 446.984 108.628 446.833C107.663 446.706 106.725 446.422 105.852 445.991C106.888 439.619 108.924 433.451 111.885 427.715C118.692 414.614 124.75 415.043 131.582 403.474C136.589 395.009 138.221 386.022 141.469 368.033C143.993 354.141 143.994 350.825 147.427 346.845C154.385 338.827 167.452 338.734 177.171 339.836Z" fill="url(#paint23_linear)"/>
<g style="mix-blend-mode:multiply" opacity="0.3">
<path style="mix-blend-mode:multiply" opacity="0.3" d="M114.493 430.71C116.916 426.882 121.224 422.885 129.731 415.018C138.516 406.873 138.146 408.345 139.904 405.939C147.645 395.177 143.455 383.666 145.373 369.757C146.442 362.008 149.858 351.885 159.821 340.551C155.151 341.393 150.683 343.261 147.427 346.854C143.438 351.254 143.733 355.571 141.469 368.041C138.221 386.031 136.589 395.017 131.582 403.482C124.75 415.051 118.692 414.622 111.885 427.723C108.924 433.46 106.888 439.628 105.852 445.999C107.485 446.778 109.315 447.044 111.102 446.765C110.538 437.686 113.256 432.705 114.493 430.71Z" fill="url(#paint24_linear)"/>
</g>
<path d="M186.528 236.416C186.528 236.416 189.38 257.62 167.041 272.597L190.811 278.269C190.811 278.269 198.384 264.04 192.914 240.472L186.528 236.416Z" fill="#F3F6F9"/>
<path d="M164.112 256.585C165.282 254.288 165.795 254.305 166.047 253.085C166.704 250.325 165.013 246.808 163.582 246.757C162.665 246.757 162.589 248.162 160.637 250.4C158.239 253.135 156.792 252.773 155.378 255.155C155.05 255.71 153.569 258.209 154.478 260.077C155.647 262.458 160.233 262.837 162.152 261.003C163.06 260.127 162.673 259.421 164.112 256.585Z" fill="url(#paint25_linear)"/>
<path d="M160.654 259.068C161.118 261.684 161.197 264.354 160.89 266.994C160.359 270.208 154.411 273.54 153.266 274.499C152.122 275.459 156.295 276.493 160.115 275.997C163.936 275.501 174.42 272.143 175.985 270.284C177.55 268.424 174.134 269.333 171.239 268.98C168.345 268.626 165.585 263.78 165.501 261.306C165.416 258.832 160.654 259.068 160.654 259.068Z" fill="url(#paint26_linear)"/>
<path d="M161.925 262.332C162.833 262.69 163.819 262.805 164.785 262.666C165.751 262.527 166.665 262.14 167.436 261.541C169.758 259.69 166.308 253.968 163.944 253.918C163.44 253.956 162.948 254.097 162.5 254.331C162.051 254.566 161.655 254.889 161.336 255.281C160.932 255.769 160.907 256.122 160.242 256.88C159.577 257.637 159.35 257.671 159.257 258.016C159.165 258.361 159.341 259.194 160.94 260.448C160.63 260.351 160.298 260.349 159.988 260.444C159.677 260.538 159.402 260.724 159.198 260.978C159.115 261.144 159.08 261.331 159.097 261.516C159.182 262.374 160.301 262.778 161.925 262.332Z" fill="url(#paint27_linear)"/>
<path d="M226.201 247.128C226.201 247.128 227.968 246.884 227.413 243.501C226.984 240.85 227.312 239.959 227.934 240.43C228.557 240.901 228.65 242.432 228.65 242.432C230.047 241.191 231.148 239.653 231.872 237.931C232.815 235.406 233.421 237.527 233.622 238.772C233.824 240.017 232.276 244.006 231.401 244.746C230.526 245.487 229.256 248.743 229.256 248.743L226.201 247.128Z" fill="url(#paint28_linear)"/>
<path d="M230.913 248.036L224.872 243.829C222.423 258.899 216.845 264.814 212.116 267.389C200.698 273.632 190.508 262.509 168.648 267.053C162.623 268.298 152.13 270.629 146.308 279.211C144.776 281.466 144.229 283.174 141.688 299.355C138.44 320.037 138.323 323.647 138.785 328.098C139.627 336.252 140.132 341.182 143.884 345.558C153.864 357.161 175.076 351.179 177.735 350.396C182.649 348.94 190.281 346.677 193.31 340.181C194.74 337.135 194.589 334.341 192.393 323.167C188.051 301.046 187.496 299.607 188.707 297.192C192.797 289.014 205.772 293.692 216.727 286.094C223.13 281.634 230.35 271.941 230.913 248.036Z" fill="white"/>
<path style="mix-blend-mode:multiply" opacity="0.3" d="M167.798 347.418C169.935 343.034 167.057 339.003 170.213 333.719C174.226 326.988 181.463 329.285 184.18 324.32C188.834 315.83 170.524 303.992 174.243 290.478C176.019 284.024 182.22 279.355 187.403 277.579C198.905 273.658 206.436 283.671 217.215 280.541C220.488 279.531 223.417 277.635 225.68 275.063C223.73 279.467 220.639 283.269 216.727 286.078C205.788 293.65 192.797 288.997 188.707 297.176C187.496 299.599 188.051 301.03 192.393 323.151C194.589 334.325 194.74 337.119 193.31 340.165C190.281 346.66 182.649 348.924 177.735 350.38C172.486 351.899 167.044 352.647 161.58 352.601C165.004 351.204 166.847 349.353 167.798 347.418Z" fill="url(#paint29_linear)"/>
<defs>
<linearGradient id="paint0_linear" x1="303.024" y1="309.385" x2="304.202" y2="353.56" gradientUnits="userSpaceOnUse">
<stop stop-color="#444D87"/>
<stop offset="1" stop-color="#25274C"/>
</linearGradient>
<linearGradient id="paint1_linear" x1="358901" y1="224826" x2="335280" y2="94257.6" gradientUnits="userSpaceOnUse">
<stop stop-color="#444D87"/>
<stop offset="1" stop-color="#25274C"/>
</linearGradient>
<linearGradient id="paint2_linear" x1="387.511" y1="36.3073" x2="165.601" y2="293.12" gradientUnits="userSpaceOnUse">
<stop stop-color="#5C00FF"/>
<stop offset="1" stop-color="#8D77ED"/>
</linearGradient>
<linearGradient id="paint3_linear" x1="269814" y1="62753.6" x2="426024" y2="62753.6" gradientUnits="userSpaceOnUse">
<stop stop-color="#444D87"/>
<stop offset="1" stop-color="#25274C"/>
</linearGradient>
<linearGradient id="paint4_linear" x1="127.813" y1="131.002" x2="72.0597" y2="280.305" gradientUnits="userSpaceOnUse">
<stop stop-color="#68E2AA"/>
<stop offset="1" stop-color="#5C00FF"/>
</linearGradient>
<linearGradient id="paint5_linear" x1="523795" y1="23383" x2="555518" y2="60783.7" gradientUnits="userSpaceOnUse">
<stop stop-color="#68E2AA"/>
<stop offset="1" stop-color="#5C00FF"/>
</linearGradient>
<linearGradient id="paint6_linear" x1="227.876" y1="424.374" x2="199.604" y2="436.247" gradientUnits="userSpaceOnUse">
<stop stop-color="#40457A"/>
<stop offset="1" stop-color="#3B3C68"/>
</linearGradient>
<linearGradient id="paint7_linear" x1="240081" y1="215184" x2="230889" y2="220442" gradientUnits="userSpaceOnUse">
<stop stop-color="#40457A"/>
<stop offset="1" stop-color="#3B3C68"/>
</linearGradient>
<linearGradient id="paint8_linear" x1="195383" y1="216915" x2="291500" y2="216915" gradientUnits="userSpaceOnUse">
<stop stop-color="#40457A"/>
<stop offset="1" stop-color="#3B3C68"/>
</linearGradient>
<linearGradient id="paint9_linear" x1="255119" y1="159282" x2="212806" y2="244358" gradientUnits="userSpaceOnUse">
<stop stop-color="#5C00FF"/>
<stop offset="1" stop-color="#8D77ED"/>
</linearGradient>
<linearGradient id="paint10_linear" x1="276511" y1="48600" x2="469057" y2="48600" gradientUnits="userSpaceOnUse">
<stop stop-color="#40457A"/>
<stop offset="1" stop-color="#3B3C68"/>
</linearGradient>
<linearGradient id="paint11_linear" x1="34210.8" y1="13763.9" x2="137581" y2="13763.9" gradientUnits="userSpaceOnUse">
<stop stop-color="#40457A"/>
<stop offset="1" stop-color="#3B3C68"/>
</linearGradient>
<linearGradient id="paint12_linear" x1="77203.9" y1="142758" x2="70906.9" y2="140006" gradientUnits="userSpaceOnUse">
<stop stop-color="#444D87"/>
<stop offset="1" stop-color="#25274C"/>
</linearGradient>
<linearGradient id="paint13_linear" x1="323861" y1="184807" x2="324174" y2="168192" gradientUnits="userSpaceOnUse">
<stop stop-color="#444D87"/>
<stop offset="1" stop-color="#25274C"/>
</linearGradient>
<linearGradient id="paint14_linear" x1="70755.3" y1="125032" x2="60857.1" y2="131867" gradientUnits="userSpaceOnUse">
<stop stop-color="#5C00FF"/>
<stop offset="1" stop-color="#8D77ED"/>
</linearGradient>
<linearGradient id="paint15_linear" x1="16567.6" y1="30375.4" x2="16909.9" y2="30375.4" gradientUnits="userSpaceOnUse">
<stop stop-color="#5C00FF"/>
<stop offset="1" stop-color="#8D77ED"/>
</linearGradient>
<linearGradient id="paint16_linear" x1="255.173" y1="132.239" x2="237.669" y2="165.42" gradientUnits="userSpaceOnUse">
<stop stop-color="#E3765E"/>
<stop offset="1" stop-color="#F6C45D"/>
</linearGradient>
<linearGradient id="paint17_linear" x1="4556.37" y1="13532.4" x2="4601.21" y2="13524.8" gradientUnits="userSpaceOnUse">
<stop stop-color="#E3765E"/>
<stop offset="1" stop-color="#F6C45D"/>
</linearGradient>
<linearGradient id="paint18_linear" x1="189.416" y1="392.742" x2="182.335" y2="457.347" gradientUnits="userSpaceOnUse">
<stop stop-color="#D692D8"/>
<stop offset="1" stop-color="#8D77ED"/>
</linearGradient>
<linearGradient id="paint19_linear" x1="202.557" y1="363.867" x2="144.953" y2="411.189" gradientUnits="userSpaceOnUse">
<stop stop-color="#9D3C6B"/>
<stop offset="1" stop-color="#70323E"/>
</linearGradient>
<linearGradient id="paint20_linear" x1="12289.8" y1="5377.32" x2="12232.6" y2="5675.12" gradientUnits="userSpaceOnUse">
<stop stop-color="#D692D8"/>
<stop offset="1" stop-color="#8D77ED"/>
</linearGradient>
<linearGradient id="paint21_linear" x1="7551.94" y1="5711.1" x2="7630.49" y2="5718.5" gradientUnits="userSpaceOnUse">
<stop stop-color="#E3765E"/>
<stop offset="1" stop-color="#F6C45D"/>
</linearGradient>
<linearGradient id="paint22_linear" x1="32902.8" y1="108054" x2="29166.9" y2="107576" gradientUnits="userSpaceOnUse">
<stop stop-color="#9D3C6B"/>
<stop offset="1" stop-color="#70323E"/>
</linearGradient>
<linearGradient id="paint23_linear" x1="48056" y1="196473" x2="42346.6" y2="203770" gradientUnits="userSpaceOnUse">
<stop stop-color="#9D3C6B"/>
<stop offset="1" stop-color="#70323E"/>
</linearGradient>
<linearGradient id="paint24_linear" x1="50188" y1="193114" x2="44993" y2="198346" gradientUnits="userSpaceOnUse">
<stop stop-color="#9D3C6B"/>
<stop offset="1" stop-color="#70323E"/>
</linearGradient>
<linearGradient id="paint25_linear" x1="51977.8" y1="15968.6" x2="51995.3" y2="15659.6" gradientUnits="userSpaceOnUse">
<stop stop-color="#444D87"/>
<stop offset="1" stop-color="#25274C"/>
</linearGradient>
<linearGradient id="paint26_linear" x1="19067" y1="16693.3" x2="19135.9" y2="18104.4" gradientUnits="userSpaceOnUse">
<stop stop-color="#E3765E"/>
<stop offset="1" stop-color="#F6C45D"/>
</linearGradient>
<linearGradient id="paint27_linear" x1="32618.5" y1="9183.47" x2="32792" y2="9293.88" gradientUnits="userSpaceOnUse">
<stop stop-color="#E3765E"/>
<stop offset="1" stop-color="#F6C45D"/>
</linearGradient>
<linearGradient id="paint28_linear" x1="30101.2" y1="9598.35" x2="30229.4" y2="10146.8" gradientUnits="userSpaceOnUse">
<stop stop-color="#E3765E"/>
<stop offset="1" stop-color="#F6C45D"/>
</linearGradient>
<linearGradient id="paint29_linear" x1="292777" y1="77928" x2="290892" y2="86045.4" gradientUnits="userSpaceOnUse">
<stop stop-color="#E3765E"/>
<stop offset="1" stop-color="#F6C45D"/>
</linearGradient>
</defs>
</svg>
