<svg width="68" height="81" viewBox="0 0 68 81" fill="none" xmlns="http://www.w3.org/2000/svg">
<g clip-path="url(#clip0)">
<path d="M56.1449 0.0371094C56.7407 0.391276 56.9595 0.907949 56.9324 1.60587C56.8886 2.71837 56.9199 3.83503 56.9199 5.05378C58.1074 5.05378 59.2407 5.05378 60.3741 5.05378C61.5595 5.05378 61.947 5.44544 61.9553 6.64752C61.9553 7.81627 61.9553 8.98503 61.9553 10.2725H65.1886C66.6907 10.2725 67.0303 10.6121 67.0303 12.0975C67.0303 28.1142 67.0303 44.1295 67.0303 60.1434C67.0407 60.3516 67.0407 60.5602 67.0303 60.7684C66.9574 61.4954 66.4845 61.9621 65.8345 61.9663C65.1845 61.9704 64.7136 61.5225 64.6345 60.7788C64.614 60.4931 64.6091 60.2066 64.6199 59.9204V12.7184H61.9636V13.7246C61.9636 24.9482 61.9636 36.1718 61.9636 47.3954C61.9724 47.7074 61.9654 48.0196 61.9428 48.3309C61.8741 48.9954 61.4907 49.3725 60.8261 49.4059C60.5238 49.4231 60.2267 49.321 59.9988 49.1216C59.7709 48.9221 59.6304 48.6412 59.6074 48.3392C59.5858 48.08 59.581 47.8198 59.5928 47.56V7.51211H56.9282V37.7454C56.9397 38.0052 56.9355 38.2654 56.9157 38.5246C56.9047 38.6746 56.8639 38.8209 56.7957 38.9548C56.7274 39.0888 56.633 39.2078 56.5182 39.3049C56.4033 39.4019 56.2702 39.475 56.1266 39.5199C55.9831 39.5648 55.8321 39.5805 55.6824 39.5663C55.0199 39.5163 54.6407 39.1371 54.5928 38.4725C54.5678 38.1892 54.5803 37.9017 54.5803 37.6142C54.5803 26.2086 54.5803 14.8024 54.5803 3.39544V2.43086H3.43239V67.3288H54.572V66.4517C54.572 59.16 54.572 51.8684 54.572 44.5767C54.572 44.3163 54.5616 44.0559 54.5845 43.7954C54.6407 43.1225 55.0345 42.7538 55.6866 42.7038C55.9885 42.6842 56.2861 42.7843 56.5149 42.9823C56.7438 43.1803 56.8855 43.4604 56.9095 43.7621C56.9255 43.97 56.9289 44.1788 56.9199 44.3871C56.9199 52.276 56.9199 60.1663 56.9199 68.0579C56.9199 69.46 56.5886 69.7954 55.1699 69.7954H8.45322V72.41H59.5886V71.4538C59.5886 65.7246 59.5886 59.9954 59.5886 54.2663C59.5665 54.007 59.577 53.7459 59.6199 53.4892C59.7824 52.8642 60.1845 52.4934 60.8699 52.5413C61.1488 52.5422 61.4165 52.6513 61.6166 52.8456C61.8167 53.0398 61.9336 53.3042 61.9428 53.5829C61.9668 53.8419 61.9752 54.1021 61.9678 54.3621C61.9678 60.5857 61.9678 66.8093 61.9678 73.0329C61.9678 74.5454 61.647 74.8684 60.1532 74.8684H13.4865V77.6559H64.6178V75.5996C64.6178 72.6829 64.6178 69.7663 64.6178 66.8496C64.6178 66.5392 64.5699 66.1475 64.7303 65.9413C65.0095 65.5871 65.4303 65.135 65.7991 65.1267C66.1678 65.1184 66.6011 65.56 66.9053 65.8954C67.0616 66.0684 67.0282 66.4392 67.0282 66.7288C67.0282 70.61 67.0282 74.4892 67.0428 78.3704C67.0428 79.0746 66.8574 79.6329 66.2824 80.0371H11.8553C11.2595 79.6829 11.0428 79.1684 11.0678 78.4704C11.1115 77.285 11.0803 76.0975 11.0803 74.8642H7.79072C6.39489 74.8642 6.04905 74.5184 6.04488 73.1184C6.04488 72.0371 6.04488 70.9559 6.04488 69.7996C4.84072 69.7996 3.75321 69.7996 2.66988 69.7996C1.3428 69.7996 0.969887 69.4121 0.969887 68.0663C0.969887 45.9482 0.966417 23.8295 0.959473 1.71003C0.959473 1.00587 1.1428 0.447532 1.71988 0.0433655L56.1449 0.0371094Z" fill="#68E2AA"/>
<path d="M6.99489 18.0705C6.99489 14.608 6.99489 11.1448 6.99489 7.68089C6.99489 6.36422 7.35322 5.99963 8.64489 5.99963H23.4532C24.7032 5.99963 25.1011 6.39547 25.1011 7.6163C25.1011 14.5955 25.1011 21.5739 25.1011 28.5517C25.1011 29.8017 24.7178 30.1851 23.4803 30.1851H8.58865C7.37615 30.1851 6.99281 29.8142 6.99072 28.6163C6.9935 25.1024 6.99489 21.5871 6.99489 18.0705ZM9.41156 8.44964V27.7621H22.6907V8.44964H9.41156Z" fill="#68E2AA"/>
<path d="M39.647 13.7746H30.0636C28.7845 13.7746 28.397 13.385 28.397 12.0934C28.397 10.558 28.397 9.02046 28.397 7.48504C28.397 6.46421 28.8491 6.00171 29.8678 6.00171C36.3956 6.00171 42.9192 6.00171 49.4386 6.00171C50.5032 6.00171 50.9511 6.45171 50.9595 7.5288C50.972 9.0913 50.972 10.6538 50.9595 12.2163C50.9595 13.3371 50.5136 13.7725 49.3928 13.7746C46.1456 13.783 42.897 13.783 39.647 13.7746ZM30.8136 11.2975H48.4949V8.45795H30.8136V11.2975Z" fill="#68E2AA"/>
<path d="M34.9968 39.1434H49.0281C49.2364 39.1434 49.4448 39.133 49.6531 39.1434C50.4177 39.2017 50.9448 39.6934 50.9489 40.3413C50.9531 40.9892 50.426 41.4913 49.6698 41.5559C49.4614 41.5746 49.2531 41.5559 49.0448 41.5559H20.8239C19.5489 41.5559 18.9364 41.1392 18.9489 40.3059C18.9614 39.4725 19.551 39.1267 20.7989 39.1267L34.9968 39.1434Z" fill="#68E2AA"/>
<path d="M34.9116 58.608C30.1546 58.608 25.3991 58.608 20.6449 58.608C20.3158 58.608 19.8887 58.6371 19.6762 58.4538C19.3553 58.1809 18.972 57.7121 19.0074 57.3663C19.047 56.9809 19.4762 56.5767 19.8282 56.3038C20.0366 56.1434 20.4282 56.1996 20.7387 56.1996C30.197 56.1996 39.6554 56.1996 49.1137 56.1996H49.2699C50.3429 56.2121 50.947 56.6538 50.9366 57.4184C50.9262 58.183 50.3116 58.6163 49.2533 58.6163L34.9116 58.608Z" fill="#68E2AA"/>
<path d="M35.0158 44.86H49.047C49.3326 44.8509 49.6185 44.8586 49.9033 44.8829C50.5866 44.96 50.9283 45.4204 50.9324 46.0475C50.9411 46.3255 50.8465 46.597 50.6668 46.8094C50.4872 47.0217 50.2352 47.16 49.9595 47.1975C49.7525 47.2266 49.543 47.2335 49.3345 47.2183H20.5741C20.3657 47.2339 20.1563 47.2283 19.9491 47.2017C19.3074 47.06 18.9428 46.6412 18.9699 45.9871C18.9591 45.7087 19.0581 45.4371 19.2455 45.231C19.4329 45.0249 19.6938 44.9006 19.972 44.885C20.2566 44.8589 20.5426 44.8505 20.8283 44.86H35.0158Z" fill="#68E2AA"/>
<path d="M34.8553 35.8392H20.8241C20.5637 35.8392 20.3033 35.8392 20.0449 35.8267C19.3658 35.7726 19.0199 35.3601 18.9658 34.7122C18.9496 34.4095 19.0523 34.1125 19.2519 33.8845C19.4516 33.6564 19.7324 33.5154 20.0345 33.4913C20.2424 33.4746 20.4511 33.4704 20.6595 33.4788H49.2658C49.422 33.4788 49.5783 33.4788 49.7345 33.4788C50.4324 33.5268 50.947 34.0268 50.9512 34.658C50.9515 34.8147 50.9203 34.9698 50.8593 35.1142C50.7983 35.2585 50.7088 35.389 50.5962 35.4979C50.4836 35.6069 50.3502 35.6919 50.2039 35.7481C50.0576 35.8042 49.9015 35.8303 49.7449 35.8247C48.4449 35.8476 47.147 35.8351 45.847 35.8351L34.8553 35.8392Z" fill="#68E2AA"/>
<path d="M34.9344 50.5184C39.7406 50.5184 44.5489 50.5184 49.3552 50.5288C49.7239 50.5288 50.2031 50.583 50.4344 50.8101C50.7052 51.0767 50.9448 51.6121 50.851 51.9371C50.7531 52.2996 50.301 52.6059 49.9427 52.8434C49.7552 52.9663 49.4365 52.9017 49.1781 52.9017H20.4219C19.4594 52.8746 18.926 52.4246 18.9635 51.6684C18.9927 50.958 19.5427 50.5205 20.4427 50.5205C25.2691 50.5163 30.0996 50.5156 34.9344 50.5184Z" fill="#68E2AA"/>
<path d="M39.6742 22.0912C42.8687 22.0912 46.0631 22.0912 49.2576 22.0912C49.5617 22.0912 49.9638 22.0579 50.1534 22.2287C50.4846 22.5287 50.9034 22.9871 50.8846 23.3579C50.8659 23.7287 50.4013 24.135 50.0409 24.3996C49.8326 24.5579 49.4409 24.4954 49.1305 24.4954C42.8222 24.4954 36.5124 24.4954 30.2013 24.4954C30.0972 24.4954 29.993 24.4954 29.8888 24.4954C28.9492 24.4704 28.3826 24.0016 28.4013 23.2662C28.4201 22.5308 28.9847 22.0829 29.9367 22.0808C33.1826 22.0836 36.4284 22.0871 39.6742 22.0912Z" fill="#68E2AA"/>
<path d="M39.6198 19.4121C36.3219 19.4121 33.024 19.4121 29.7261 19.4121C28.7844 19.4121 28.1886 18.6933 28.4573 17.9121C28.6865 17.2475 29.199 17.0579 29.8657 17.06C33.824 17.0725 37.7594 17.06 41.7073 17.06C44.3303 17.06 46.9532 17.0329 49.574 17.0891C49.8056 17.1136 50.03 17.1839 50.2342 17.2959C50.4384 17.4078 50.6184 17.5592 50.7636 17.7412C50.9448 17.9829 50.9032 18.6246 50.699 18.8642C50.3861 19.1848 49.9614 19.3721 49.5136 19.3871C46.2157 19.4392 42.9178 19.4121 39.6198 19.4121Z" fill="#68E2AA"/>
<path d="M39.6075 30.185C36.3887 30.185 33.1679 30.1996 29.9492 30.1684C29.5188 30.1776 29.0987 30.0361 28.7617 29.7684C28.6339 29.6172 28.5434 29.4382 28.4975 29.2457C28.4515 29.0532 28.4514 28.8526 28.4971 28.66C28.6262 28.3205 29.0679 28.0663 29.4221 27.8559C29.5971 27.7496 29.8783 27.8163 30.1117 27.8163H49.1971C49.3533 27.8163 49.5096 27.8163 49.6637 27.8163C50.4408 27.858 50.9533 28.3288 50.9492 28.9913C50.945 29.6538 50.4096 30.1684 49.6554 30.1767C47.7804 30.1934 45.9179 30.1767 44.0471 30.1767L39.6075 30.185Z" fill="#68E2AA"/>
<path d="M11.3322 39.1433C12.2926 39.1433 13.253 39.1308 14.2114 39.1433C15.1239 39.16 15.6239 39.5996 15.6259 40.3454C15.628 41.0912 15.1239 41.5496 14.2176 41.5579C12.2732 41.5718 10.3287 41.5718 8.38428 41.5579C7.48636 41.5579 6.99471 41.0725 7.01346 40.3079C7.03012 39.5871 7.50721 39.16 8.38012 39.1412C9.35929 39.1267 10.3447 39.1433 11.3322 39.1433Z" fill="#68E2AA"/>
<path d="M11.2658 58.6079C10.3053 58.6079 9.34492 58.6183 8.3845 58.6079C7.522 58.5933 7.03033 58.1662 7.00533 57.4517C6.98033 56.6871 7.45534 56.2142 8.36784 56.2017C10.3387 56.1781 12.3109 56.1781 14.2845 56.2017C15.1553 56.2142 15.622 56.6683 15.6262 57.3933C15.6303 58.1183 15.122 58.5933 14.2241 58.6058C13.2449 58.6183 12.2512 58.6079 11.2658 58.6079Z" fill="#68E2AA"/>
<path d="M11.3157 35.8372C10.3032 35.8372 9.29071 35.8497 8.28029 35.8372C7.46779 35.8247 7.01571 35.3997 7.00529 34.6913C6.99487 33.983 7.48446 33.4934 8.31987 33.4872C10.3157 33.4774 12.3122 33.4774 14.3095 33.4872C15.1428 33.4872 15.6365 33.9684 15.6261 34.6913C15.6157 35.4142 15.1636 35.8247 14.349 35.8372C13.3386 35.8497 12.3261 35.8372 11.3157 35.8372Z" fill="#68E2AA"/>
<path d="M11.3886 52.8995C10.3782 52.8995 9.36566 52.9162 8.35525 52.8995C7.46775 52.8808 7.01357 52.4683 7.00732 51.735C7.00732 50.9683 7.48649 50.5287 8.39899 50.5246C10.3434 50.5162 12.2879 50.5162 14.2323 50.5246C15.1219 50.5246 15.6344 50.9933 15.6219 51.7412C15.6094 52.4891 15.1532 52.8808 14.2636 52.8995C13.3094 52.9162 12.349 52.8995 11.3886 52.8995Z" fill="#68E2AA"/>
<path d="M11.2554 47.2183C10.27 47.2183 9.2846 47.2183 8.29919 47.2183C7.50335 47.2079 7.02418 46.7704 7.00543 46.0767C6.98668 45.3308 7.44919 44.8746 8.30127 44.8683C10.3249 44.8544 12.3478 44.8544 14.37 44.8683C15.1679 44.8683 15.6304 45.3329 15.62 46.0371C15.6096 46.7412 15.1367 47.2017 14.3596 47.2142C13.3304 47.2308 12.2929 47.2183 11.2554 47.2183Z" fill="#68E2AA"/>
</g>
<defs>
<clipPath id="clip0">
<rect width="66.0813" height="80" fill="white" transform="translate(0.959473 0.0371094)"/>
</clipPath>
</defs>
</svg>
