<svg width="92" height="81" viewBox="0 0 92 81" fill="none" xmlns="http://www.w3.org/2000/svg">
<path d="M0.0541992 63.372C0.642803 62.6948 1.38215 62.4986 2.26984 62.5082C5.59091 62.5465 8.90958 62.5249 12.2307 62.5249H13.1638C13.1638 61.7712 13.1375 61.1228 13.1638 60.4744C13.1821 59.3326 13.5975 58.2327 14.3386 57.3639C16.2528 55.1554 18.1669 52.9374 20.038 50.6643C20.6981 49.8561 21.2603 48.9726 21.7129 48.0324C23.4955 44.3213 25.278 40.615 26.9075 36.8321C27.386 35.7195 27.4051 34.3987 27.5655 33.1641C27.855 30.9198 28.0942 28.6682 28.3694 26.2971C26.0437 27.4456 24.1894 28.8836 23.3663 31.3576C22.1197 35.0998 20.641 38.7415 18.6981 42.1846C17.9229 43.558 16.583 44.2973 15.1521 44.1346C13.5634 43.9504 12.4316 42.9646 11.9914 41.3759C11.9531 41.2323 11.922 41.0863 11.8885 40.9428C11.8138 40.5018 11.7131 40.0655 11.587 39.6364C10.8524 37.5595 11.087 35.6238 12.0321 33.6187C13.1471 31.25 14.0228 28.7663 14.9583 26.3162C16.0805 23.3708 18.3249 21.5188 20.9592 20.0425C21.1217 19.9477 21.3016 19.8864 21.4883 19.8624C21.6749 19.8383 21.8644 19.8521 22.0457 19.9027C22.2269 19.9534 22.3961 20.04 22.5432 20.1573C22.6903 20.2746 22.8124 20.4203 22.9021 20.5857C23.2801 21.27 23.0768 22.0596 22.3733 22.5381C21.8804 22.8755 21.3588 23.1674 20.8611 23.4952C19.3463 24.4785 18.1891 25.9244 17.5616 27.6178C16.6237 30.123 15.5924 32.5947 14.5611 35.1883C15.9513 35.1883 17.229 35.2171 18.5019 35.1596C18.7173 35.1596 19.002 34.8031 19.1025 34.5543C19.636 33.1952 20.1529 31.8266 20.6218 30.4436C21.3043 28.317 22.6941 26.4881 24.5602 25.261C26.1117 24.2539 27.7154 23.3298 29.3648 22.4927C29.7787 22.2797 30.5611 22.3156 30.9104 22.5884C31.1126 22.7864 31.2705 23.0251 31.3736 23.2886C31.4767 23.5522 31.5228 23.8347 31.5086 24.1173C31.1832 27.4671 30.7573 30.8169 30.3721 34.1667C30.355 34.4855 30.355 34.8049 30.3721 35.1237H41.4479C41.6521 33.3866 41.8547 31.6479 42.0556 29.9077C42.3428 27.4456 42.6131 24.9835 42.9218 22.5238C43.0773 21.2915 43.4865 20.959 44.7594 20.947C46.3147 20.9326 47.8699 20.8704 49.4252 20.959C53.3444 21.1815 57.1584 20.545 60.9532 19.6741C62.5491 19.308 64.1642 19.0137 65.7697 18.6811C66.0855 18.6165 66.3966 18.5328 66.7268 18.4562V14.9054C65.0806 15.2356 63.4751 15.506 61.8935 15.8793C57.7829 16.8507 53.6483 17.4154 49.3964 17.2862C44.5847 17.1378 39.7658 17.2862 34.9517 17.2383C32.8223 17.2057 30.7221 17.7373 28.8647 18.7792C28.4867 18.9898 27.9722 19.2793 27.6372 19.1716C27.1372 19.0065 26.5605 18.6093 26.3476 18.1547C26.0461 17.5135 26.3859 16.8914 27.0439 16.5061C29.0513 15.3265 31.1808 14.5202 33.5305 14.391C33.6716 14.391 33.8104 14.3551 34.0832 14.3192C33.095 12.7448 33.2744 11.0556 33.272 9.39025C33.2696 7.72493 33.272 6.04047 33.272 4.36558C33.272 1.9011 34.9134 0.149641 37.3708 0.0802525C39.4907 0.0180423 41.6178 0.0276131 43.7401 0.0802525C45.7069 0.125714 47.0899 1.2766 47.5445 3.1477C47.9991 5.01879 47.2526 6.65539 45.5921 7.64836C45.3528 7.79193 45.2451 8.16758 45.0872 8.44274C45.0609 8.48581 45.0872 8.55998 45.0872 8.6198C45.0585 10.534 45.3265 12.5103 44.2713 14.3623C49.887 14.4269 55.3567 14.6279 60.7546 13.1109C64.7935 11.972 68.9424 11.2159 73.0435 10.3019C74.4791 9.98125 75.5223 10.4024 76.1229 11.4982C76.757 12.6443 76.5344 13.6923 75.4051 14.781C73.4263 16.6952 71.4548 18.6093 69.4401 20.4852C69.0461 20.8412 68.5661 21.0886 68.0475 21.203C64.1108 22.0341 60.1668 22.8316 56.2156 23.5957C55.2479 23.775 54.2663 23.8687 53.2822 23.8757C50.7747 23.9163 48.2575 23.89 45.6758 23.89C45.2403 27.6657 44.812 31.3887 44.379 35.1501C45.616 35.2123 46.8267 35.1501 47.9848 35.3534C51.9231 36.0712 54.536 39.22 54.5862 43.2326C54.6197 45.8311 54.5862 48.4319 54.5862 51.0759C56.8784 51.7315 58.4887 53.1025 59.4027 55.3636C59.4027 53.9878 59.4338 52.6144 59.4027 51.2386C59.3333 48.7502 59.6133 48.4271 62.1711 48.4391C71.4428 48.4774 80.7145 48.4606 89.9862 48.4391C90.8356 48.4391 91.508 48.6233 91.9458 49.3962V56.7537C91.3788 57.2921 90.7973 57.8424 89.9288 57.4333C89.0602 57.0241 89.0578 56.2489 89.0722 55.4402C89.0961 54.105 89.0722 52.7699 89.0722 51.3989H62.3625V77.0151H89.0626V75.9839C89.0626 71.8301 89.0626 67.6764 89.0626 63.5227C89.0626 62.7427 89.2062 62.0871 90.003 61.776C90.7519 61.4913 91.3381 61.776 91.7831 62.4101C91.8118 62.4484 91.8836 62.4532 91.9363 62.4747V79.1638C91.362 79.8672 90.6155 80.0371 89.7278 80.0371C60.572 80.0212 31.4177 80.0212 2.26505 80.0371C1.37736 80.0371 0.628449 79.8696 0.0565943 79.1638L0.0541992 63.372ZM32.6475 77.0103H59.3429V58.7301H32.6475V77.0103ZM29.6423 65.5493H2.96613V77.0343H29.6423V65.5493ZM17.8344 57.7491C19.3513 57.7491 20.6553 57.7994 21.9522 57.7204C22.4298 57.6795 22.8759 57.465 23.206 57.1174C24.4023 55.7081 25.5293 54.2342 26.673 52.7771C28.0536 51.0208 29.5442 49.3435 30.3362 47.1877C30.7908 45.9627 31.4536 44.8142 31.9393 43.5987C32.3413 42.5914 33.0184 42.2109 34.0927 42.2229C37.0812 42.2588 40.0745 42.297 43.0582 42.2229C45.5275 42.1559 47.6833 43.6417 47.5086 46.7092C47.4273 48.1017 47.4943 49.5039 47.4943 50.9323H51.6432C51.6432 48.1951 51.7389 45.5081 51.6169 42.8282C51.4853 39.9977 49.3175 38.0835 46.4558 38.0787C41.1057 38.0787 35.7557 38.0907 30.4056 38.0572C29.7452 38.0572 29.482 38.3108 29.2308 38.854C27.6635 42.2659 26.1203 45.6899 24.4454 49.0564C23.7864 50.3577 22.9976 51.589 22.091 52.7316C20.7893 54.3993 19.3633 55.9546 17.8344 57.7491ZM44.58 55.7488C44.58 52.6 44.58 49.5541 44.58 46.5106C44.58 45.3382 44.4244 45.185 43.2113 45.1826C40.5794 45.1826 37.9474 45.2114 35.3154 45.1587C34.5976 45.1444 34.2459 45.398 34.0162 46.0416C32.9087 49.1402 31.2186 51.9982 29.037 54.4615C27.9387 55.7177 26.9553 57.0768 25.881 58.4406C27.3956 59.3809 28.0105 60.8213 28.1876 62.4747H29.6806C29.6806 60.9123 29.6806 59.3953 29.6806 57.8783C29.6806 56.2034 30.1185 55.7512 31.7982 55.7488C35.6839 55.7488 39.5688 55.7488 43.453 55.7488H44.58ZM36.1457 8.13408C36.1457 9.33043 36.0763 10.467 36.1624 11.5891C36.212 12.3273 36.5325 13.0212 37.0624 13.5375C37.5924 14.0537 38.2944 14.356 39.0337 14.3862C40.4406 14.4436 41.869 13.4507 42.0245 12.082C42.1705 10.7972 42.0556 9.48117 42.0556 8.13408H36.1457ZM36.2414 5.19585C38.725 5.19585 41.2254 5.21738 43.7234 5.18149C44.4149 5.18149 44.7953 4.7197 44.7714 3.98514C44.7474 3.25058 44.2928 3.01131 43.6444 3.00892C41.7302 3.00892 39.8209 3.00892 37.9163 3.00892C36.3275 3.01131 35.9447 3.48746 36.2414 5.19345V5.19585ZM47.5589 53.8681C47.3627 55.6364 47.4608 55.7488 49.0615 55.7512H55.3256C55.5983 55.7512 55.8735 55.7249 56.2085 55.7081C55.5553 54.586 54.7226 53.9208 53.6794 53.8897C51.6528 53.8227 49.6285 53.8658 47.5589 53.8658V53.8681ZM25.1416 62.5345C25.1416 61.3764 24.5195 60.7089 23.4668 60.6802C22.481 60.6515 21.4952 60.6802 20.5094 60.6802H16.248C16.0255 62.4484 16.1044 62.5417 17.7267 62.5441H25.144L25.1416 62.5345ZM14.2621 38.1026C14.4487 39.0047 14.5922 39.8206 14.7908 40.6198C14.9631 41.3041 15.6283 41.5769 15.9561 41.0696C16.5519 40.158 17.0065 39.1554 17.564 38.1026H14.2621ZM69.7224 14.202V16.2238L72.1151 13.5512L69.7224 14.202Z" fill="#68E2AA"/>
<path d="M67.696 41.4572C67.8755 40.3829 68.1411 39.0071 68.3181 37.617C68.353 37.2305 68.2354 36.8458 67.9903 36.545C67.1792 35.6669 66.3011 34.8534 65.4325 34.0327C64.5185 33.1641 64.1979 32.1185 64.6071 30.9389C65.0162 29.7593 65.9135 29.2305 67.1194 29.0894C68.3253 28.9482 69.4882 28.7735 70.6582 28.5486C70.9826 28.4694 71.2633 28.2668 71.4406 27.9839C72.0388 26.8833 72.5628 25.742 73.1155 24.6222C73.6395 23.5694 74.4602 22.9736 75.6709 22.9736C76.8816 22.9736 77.6927 23.5886 78.2191 24.6318C78.7838 25.7492 79.3078 26.8905 79.894 27.9816C79.9804 28.1265 80.0954 28.2524 80.2319 28.3515C80.3685 28.4507 80.5238 28.521 80.6884 28.5582C81.9494 28.7975 83.2271 28.9243 84.4904 29.1348C85.6078 29.3215 86.4046 29.9364 86.7659 31.049C86.94 31.5306 86.9687 32.0528 86.8483 32.5506C86.7279 33.0483 86.4638 33.4997 86.0887 33.8484C85.2106 34.7457 84.2607 35.576 83.4185 36.5043C83.1369 36.8536 82.9977 37.2962 83.0285 37.7438C83.1553 38.8971 83.4137 40.036 83.6171 41.1797C83.8204 42.3234 83.495 43.3188 82.5403 44.0294C81.5857 44.74 80.5592 44.7855 79.5088 44.2423C78.4584 43.6992 77.4367 43.1776 76.4246 42.6057C76.2088 42.4581 75.9541 42.3777 75.6926 42.3747C75.4311 42.3717 75.1746 42.4463 74.9555 42.589C73.8692 43.2111 72.7638 43.8093 71.6296 44.3381C69.7155 45.2114 67.6697 43.8715 67.696 41.4572ZM70.6989 41.2682C72.3498 40.6198 73.9888 39.4665 75.6278 39.4689C77.2668 39.4713 78.9776 40.6006 80.6405 41.2371C80.5281 40.6844 80.4396 39.9498 80.229 39.2488C79.5327 36.9374 80.2099 35.095 82.0403 33.5972C82.6217 33.1187 83.1601 32.5947 83.8348 31.9821C82.6385 31.8362 81.6215 31.7429 80.6214 31.5897C79.059 31.3505 77.8172 30.6973 77.1879 29.1037C76.7859 28.0797 76.2308 27.1202 75.8121 26.3067C74.855 27.7997 74.1635 29.7115 72.8092 30.7021C71.455 31.6926 69.4451 31.7357 67.7271 32.1927C68.2248 32.6377 68.7823 33.1713 69.3781 33.6546C71.1128 35.0639 71.6966 36.8322 71.1535 38.9999C70.9549 39.8039 70.8305 40.6054 70.6989 41.2682Z" fill="#68E2AA"/>
</svg>
