<svg width="96" height="48" viewBox="0 0 96 48" fill="none" xmlns="http://www.w3.org/2000/svg">
<g clip-path="url(#clip0)">
<path d="M78.4652 17.287V35.6976C78.4654 35.9437 78.3703 36.1803 78.1999 36.3578C78.0295 36.5353 77.797 36.64 77.5511 36.6498H59.0356C58.7898 36.64 58.5572 36.5353 58.3868 36.3578C58.2164 36.1803 58.1214 35.9437 58.1216 35.6976V17.287H78.4652Z" stroke="white" stroke-miterlimit="10"/>
<path d="M79.4177 7.03193C79.1391 5.14461 78.1916 3.42023 76.7479 2.17314C75.3042 0.926047 73.4603 0.239281 71.5526 0.238037H69.5435V5.47509C69.6567 5.47889 69.7696 5.49002 69.8815 5.50842C70.7455 5.63213 71.5359 6.0632 72.1078 6.72255C72.6797 7.38191 72.9948 8.22535 72.9952 9.09818V11.1787C72.9952 11.2419 73.0203 11.3024 73.0649 11.3471C73.1095 11.3917 73.1701 11.4168 73.2332 11.4168H79.1844C79.2475 11.4168 79.3081 11.3917 79.3527 11.3471C79.3974 11.3024 79.4225 11.2419 79.4225 11.1787V7.07478C79.4232 7.06033 79.4216 7.04586 79.4177 7.03193Z" stroke="white" stroke-miterlimit="10"/>
<path d="M13.1261 37.1402C10.8647 37.1402 8.51277 36.4641 6.82739 34.3979L6.77974 46.4621C6.77667 46.5912 6.7481 46.7183 6.69558 46.8361C6.64306 46.954 6.56767 47.0603 6.47381 47.1489C6.37994 47.2374 6.26943 47.3065 6.1487 47.352C6.02797 47.3976 5.89944 47.4188 5.77048 47.4143H1.10948C0.851398 47.4148 0.602934 47.3163 0.415209 47.1392C0.227484 46.9621 0.114705 46.7198 0.100097 46.4621V20.991C0.100097 18.4915 0.0525111 15.754 0.00490151 13.3735C0.0033256 13.1151 0.101415 12.866 0.27875 12.678C0.456084 12.49 0.699022 12.3776 0.957094 12.3642L4.76586 12.2642C5.02962 12.2563 5.28729 12.3447 5.49058 12.5129C5.69387 12.6812 5.82889 12.9177 5.87044 13.1783L6.30364 15.4873C7.1688 14.3217 8.30178 13.3813 9.60691 12.7457C10.912 12.1102 12.351 11.798 13.8022 11.8357C19.9914 11.8357 23.6573 17.4108 23.6573 24.2142C23.6526 32.3792 19.0345 37.1402 13.1261 37.1402ZM6.77974 28.4372C6.77974 29.6417 8.41275 32.0936 11.5407 32.0936C15.1924 32.0936 16.8729 28.8228 16.8729 24.476C16.8729 18.9962 14.2782 17.1204 11.6359 17.1204C10.5932 17.1559 9.58226 17.4884 8.72202 18.0788C7.86177 18.6692 7.18795 19.4929 6.77974 20.453V28.4372Z" fill="white"/>
<path d="M34.8928 35.6977C34.893 35.8273 34.8667 35.9556 34.8156 36.0746C34.7645 36.1937 34.6898 36.3011 34.5957 36.3903C34.5017 36.4794 34.3904 36.5484 34.2687 36.5931C34.1471 36.6377 34.0177 36.6571 33.8883 36.6499H29.2225C28.9645 36.6503 28.716 36.5519 28.5283 36.3748C28.3406 36.1977 28.2278 35.9554 28.2132 35.6977V20.3103C28.2132 17.6204 28.1655 15.4589 28.0703 13.3926C28.0881 13.1308 28.2002 12.8843 28.3858 12.6988C28.5713 12.5132 28.8179 12.4011 29.0797 12.3833L32.8885 12.2833C33.153 12.2742 33.4118 12.3621 33.6161 12.5305C33.8204 12.6988 33.9562 12.936 33.9978 13.1974L34.431 16.4206C35.8593 13.7735 38.3683 11.9977 41.3962 11.9501C41.6495 11.9651 41.8895 12.0687 42.074 12.2428C42.2585 12.4169 42.3759 12.6503 42.4056 12.9023V16.9872C42.4093 17.1127 42.3838 17.2373 42.3313 17.3514C42.2788 17.4655 42.2007 17.5658 42.1029 17.6447C42.0052 17.7235 41.8905 17.7787 41.768 17.8058C41.6454 17.833 41.5181 17.8315 41.3962 17.8013C38.8015 17.3728 36.3497 18.1393 34.9071 20.734L34.8928 35.6977Z" fill="white"/>
<path d="M53.2326 4.55146C53.1983 5.50399 52.7958 6.40606 52.1098 7.0678C51.4239 7.72955 50.5078 8.09934 49.5547 8.09934C48.6015 8.09934 47.6856 7.72955 46.9996 7.0678C46.3136 6.40606 45.9112 5.50399 45.8769 4.55146C45.8591 4.05735 45.941 3.56471 46.1178 3.10298C46.2947 2.64124 46.5628 2.21987 46.906 1.86403C47.2493 1.50818 47.6607 1.22515 48.1158 1.03183C48.5709 0.838523 49.0602 0.738892 49.5547 0.738892C50.0491 0.738892 50.5386 0.838523 50.9936 1.03183C51.4487 1.22515 51.8601 1.50818 52.2034 1.86403C52.5467 2.21987 52.8148 2.64124 52.9916 3.10298C53.1684 3.56471 53.2503 4.05735 53.2326 4.55146ZM51.8852 12.288C52.013 12.2746 52.1422 12.2883 52.2643 12.3282C52.3865 12.3682 52.4988 12.4334 52.5941 12.5196C52.6893 12.6059 52.7652 12.7112 52.817 12.8288C52.8688 12.9464 52.8952 13.0736 52.8945 13.2021V35.6977C52.8915 35.8267 52.8628 35.9538 52.8103 36.0717C52.7578 36.1895 52.6824 36.2958 52.5885 36.3844C52.4946 36.4729 52.3842 36.542 52.2635 36.5875C52.1428 36.6331 52.0141 36.6543 51.8852 36.6499H47.2242C46.9661 36.6503 46.7177 36.5518 46.53 36.3747C46.3423 36.1976 46.2295 35.9553 46.2149 35.6977V13.3973C46.2327 13.1355 46.3448 12.889 46.5304 12.7034C46.7159 12.5179 46.9623 12.4058 47.2242 12.388L51.8852 12.288Z" fill="white"/>
<path d="M88.9823 33.3887C87.254 35.6977 84.8973 37.1403 81.0029 37.1403C75.523 37.1403 72.833 33.7267 72.833 26.8995V13.3974C72.8476 13.1397 72.9604 12.8974 73.1481 12.7203C73.3358 12.5432 73.5843 12.4448 73.8424 12.4452H78.5034C78.6323 12.4408 78.7609 12.4619 78.8816 12.5075C79.0023 12.5531 79.1129 12.6221 79.2067 12.7107C79.3006 12.7992 79.376 12.9055 79.4285 13.0234C79.481 13.1413 79.5096 13.2684 79.5126 13.3974V26.252C79.5126 29.7132 80.3792 31.9223 83.5024 31.9223C85.9543 31.9223 88.3109 29.8084 88.3109 28.1135V13.3974C88.3107 13.2674 88.337 13.1387 88.3884 13.0193C88.4398 12.8999 88.5152 12.7923 88.6097 12.7031C88.7043 12.6138 88.8161 12.5449 88.9383 12.5006C89.0605 12.4563 89.1905 12.4374 89.3203 12.4452H94.0288C94.2869 12.4448 94.5353 12.5432 94.7231 12.7203C94.9108 12.8974 95.0236 13.1397 95.0382 13.3974V35.2645C95.0382 43.7247 90.6628 48 82.7358 48C80.2526 48.0264 77.7825 47.637 75.4278 46.8479C75.1653 46.7357 74.9423 46.5473 74.7878 46.3071C74.6334 46.067 74.5545 45.786 74.5613 45.5005L74.7565 42.5202C74.7675 42.4009 74.8068 42.2859 74.8709 42.1847C74.9351 42.0836 75.0223 41.9991 75.1255 41.9382C75.2287 41.8773 75.3449 41.8418 75.4644 41.8345C75.584 41.8273 75.7036 41.8485 75.8134 41.8965C77.7737 42.5119 79.8146 42.8328 81.8693 42.8487C85.5686 42.8487 88.9823 41.1681 88.9823 35.7834V33.3887Z" fill="white"/>
<path d="M68.71 13.1688C68.7102 12.9749 68.6355 12.7885 68.5016 12.6483C68.3676 12.5082 68.1848 12.4252 67.9911 12.4166H64.4251V9.36003C64.4251 8.33347 64.8329 7.34895 65.5588 6.62306C66.2847 5.89717 67.2692 5.48937 68.2957 5.48937C68.3589 5.48937 68.4195 5.46429 68.4642 5.41965C68.5088 5.37501 68.5338 5.31446 68.5338 5.25133V0.490367C68.5338 0.427233 68.5088 0.366684 68.4642 0.322042C68.4195 0.277399 68.3589 0.252319 68.2957 0.252319H65.8487C64.0846 0.253276 62.3709 0.840154 60.9766 1.92078C59.5823 3.0014 58.5865 4.51455 58.1455 6.22256C57.9699 6.83354 57.8347 7.45539 57.7407 8.0841C57.4836 10.436 57.7407 17.5394 57.7407 17.5394V35.4739C57.742 35.7917 57.8688 36.0961 58.0935 36.3209C58.3182 36.5456 58.6227 36.6724 58.9405 36.6737H63.1729C63.4907 36.6724 63.7952 36.5456 64.0199 36.3209C64.2447 36.0961 64.3715 35.7917 64.3727 35.4739V17.5251C64.3735 17.4847 64.3851 17.4453 64.4061 17.4108H67.9911C68.0876 17.4113 68.1833 17.3916 68.2718 17.3531C68.3603 17.3146 68.4398 17.258 68.5053 17.1871H68.5338C68.6557 17.0475 68.7219 16.8677 68.7195 16.6824L68.71 13.1688Z" fill="white"/>
</g>
<defs>
<clipPath id="clip0">
<rect width="95.0383" height="48" fill="white"/>
</clipPath>
</defs>
</svg>
