<svg width="96" height="48" viewBox="0 0 96 48" fill="none" xmlns="http://www.w3.org/2000/svg">
<g clip-path="url(#clip0)">
<path d="M79.909 17.134V35.6364C79.909 35.8902 79.8081 36.1336 79.6287 36.3131C79.4492 36.4925 79.2058 36.5934 78.952 36.5934H59.3778C59.124 36.5934 58.8806 36.4925 58.7012 36.3131C58.5217 36.1336 58.4209 35.8902 58.4209 35.6364V17.134H79.909Z" fill="#68E2AA"/>
<path d="M79.8136 6.82775C79.5336 4.93102 78.5814 3.19806 77.1305 1.94475C75.6795 0.691438 73.8266 0.00125017 71.9093 0H69.8901V5.26316C70.004 5.26697 70.1175 5.27816 70.2299 5.29665C71.0982 5.42098 71.8926 5.85419 72.4673 6.51683C73.0421 7.17948 73.3587 8.02713 73.359 8.90431V10.9952C73.359 11.0587 73.3842 11.1195 73.4291 11.1644C73.474 11.2092 73.5348 11.2345 73.5983 11.2345H79.5791C79.6426 11.2345 79.7034 11.2092 79.7483 11.1644C79.7932 11.1195 79.8184 11.0587 79.8184 10.9952V6.87081C79.8191 6.85629 79.8175 6.84175 79.8136 6.82775Z" fill="#68E2AA"/>
<path d="M13.1915 37.086C10.9188 37.086 8.55514 36.4066 6.86136 34.33L6.81351 46.4544C6.81043 46.5841 6.78166 46.7118 6.72888 46.8303C6.6761 46.9488 6.60035 47.0556 6.50602 47.1446C6.41168 47.2336 6.30064 47.303 6.17931 47.3488C6.05798 47.3946 5.92877 47.4159 5.79916 47.4114H1.11495C0.855585 47.4118 0.605913 47.3129 0.417252 47.1349C0.228592 46.9569 0.115276 46.7134 0.100595 46.4544V20.8564C0.100595 18.3444 0.0527485 15.5932 0.00490161 13.2009C0.00331784 12.9412 0.101879 12.6908 0.280097 12.5019C0.458316 12.313 0.702482 12.2 0.961839 12.1865L4.78959 12.086C5.05466 12.0781 5.31356 12.1669 5.51786 12.336C5.72217 12.5051 5.85789 12.7428 5.89964 13.0047L6.33505 15.3253C7.20452 14.1538 8.34316 13.2087 9.6548 12.57C10.9664 11.9312 12.4125 11.6176 13.8709 11.6554C20.091 11.6554 23.7752 17.2583 23.7752 24.0956C23.7705 32.3013 19.1293 37.086 13.1915 37.086ZM6.81351 28.3396C6.81351 29.5501 8.45466 32.0143 11.5982 32.0143C15.2681 32.0143 16.9571 28.7272 16.9571 24.3588C16.9571 18.8516 14.3494 16.9664 11.6939 16.9664C10.646 17.0022 9.63002 17.3363 8.76548 17.9296C7.90095 18.523 7.22376 19.3507 6.81351 20.3157V28.3396Z" fill="#5C00FF"/>
<path d="M35.0669 35.6363C35.0671 35.7665 35.0407 35.8954 34.9894 36.0151C34.938 36.1347 34.8628 36.2427 34.7683 36.3323C34.6738 36.4218 34.562 36.4912 34.4397 36.5361C34.3175 36.5809 34.1874 36.6004 34.0573 36.5932H29.3683C29.109 36.5936 28.8593 36.4947 28.6706 36.3167C28.482 36.1387 28.3687 35.8952 28.354 35.6363V20.1722C28.354 17.4688 28.3061 15.2966 28.2104 13.22C28.2283 12.9569 28.341 12.7092 28.5275 12.5227C28.7139 12.3362 28.9617 12.2236 29.2248 12.2057L33.0525 12.1052C33.3184 12.096 33.5785 12.1844 33.7838 12.3536C33.9891 12.5227 34.1255 12.7611 34.1674 13.0238L34.6028 16.2631C36.0382 13.6028 38.5597 11.8181 41.6028 11.7703C41.8573 11.7854 42.0984 11.8895 42.2838 12.0644C42.4693 12.2394 42.5873 12.474 42.6171 12.7272V16.8325C42.6208 16.9586 42.5953 17.0839 42.5425 17.1985C42.4898 17.3132 42.4112 17.414 42.313 17.4933C42.2148 17.5725 42.0995 17.6279 41.9763 17.6552C41.8531 17.6825 41.7253 17.681 41.6028 17.6506C38.9951 17.22 36.531 17.9904 35.0813 20.598L35.0669 35.6363Z" fill="#5C00FF"/>
<path d="M53.4978 4.33499C53.4633 5.29226 53.0588 6.19883 52.3694 6.86387C51.68 7.52891 50.7595 7.90055 49.8016 7.90055C48.8437 7.90055 47.9232 7.52891 47.2338 6.86387C46.5444 6.19883 46.1399 5.29226 46.1054 4.33499C46.0876 3.83841 46.1699 3.34332 46.3476 2.87929C46.5253 2.41525 46.7947 1.99178 47.1397 1.63416C47.4847 1.27654 47.8982 0.992097 48.3555 0.797821C48.8129 0.603546 49.3047 0.503418 49.8016 0.503418C50.2985 0.503418 50.7903 0.603546 51.2476 0.797821C51.705 0.992097 52.1185 1.27654 52.4635 1.63416C52.8085 1.99178 53.0779 2.41525 53.2556 2.87929C53.4333 3.34332 53.5156 3.83841 53.4978 4.33499ZM52.1437 12.1101C52.2721 12.0967 52.402 12.1104 52.5247 12.1505C52.6475 12.1906 52.7604 12.2562 52.8561 12.3429C52.9518 12.4295 53.0282 12.5354 53.0802 12.6536C53.1322 12.7718 53.1588 12.8996 53.158 13.0288V35.6364C53.155 35.7661 53.1262 35.8938 53.0734 36.0123C53.0206 36.1307 52.9449 36.2376 52.8506 36.3266C52.7562 36.4155 52.6452 36.4849 52.5238 36.5307C52.4025 36.5765 52.2733 36.5978 52.1437 36.5934H47.4595C47.2001 36.5938 46.9504 36.4948 46.7618 36.3168C46.5731 36.1389 46.4598 35.8954 46.4451 35.6364V13.2249C46.463 12.9618 46.5756 12.7141 46.7621 12.5276C46.9486 12.3411 47.1964 12.2285 47.4595 12.2106L52.1437 12.1101Z" fill="#5C00FF"/>
<path d="M89.426 33.3157C87.6891 35.6363 85.3207 37.086 81.4068 37.086C75.8996 37.086 73.1963 33.6554 73.1963 26.7942V13.2248C73.211 12.9658 73.3243 12.7223 73.5129 12.5444C73.7016 12.3664 73.9513 12.2674 74.2106 12.2678H78.8949C79.0245 12.2634 79.1537 12.2847 79.275 12.3304C79.3963 12.3762 79.5074 12.4457 79.6017 12.5346C79.696 12.6236 79.7718 12.7305 79.8246 12.8489C79.8774 12.9674 79.9061 13.0951 79.9092 13.2248V26.1434C79.9092 29.6219 80.78 31.842 83.9188 31.842C86.3829 31.842 88.7513 29.7176 88.7513 28.0143V13.2248C88.7511 13.0941 88.7776 12.9648 88.8292 12.8448C88.8809 12.7248 88.9565 12.6166 89.0516 12.527C89.1466 12.4373 89.259 12.3681 89.3818 12.3235C89.5046 12.2789 89.6353 12.26 89.7657 12.2678H94.4977C94.7571 12.2674 95.0068 12.3664 95.1954 12.5444C95.3841 12.7223 95.4974 12.9658 95.5121 13.2248V35.2009C95.5121 43.7033 91.115 47.9999 83.1484 47.9999C80.6528 48.0264 78.1704 47.635 75.8039 46.842C75.5401 46.7292 75.3161 46.5399 75.1608 46.2985C75.0056 46.0572 74.9263 45.7748 74.9331 45.4879L75.1293 42.4927C75.1404 42.3728 75.1798 42.2573 75.2443 42.1556C75.3088 42.0539 75.3965 41.969 75.5002 41.9078C75.6039 41.8466 75.7206 41.8109 75.8408 41.8036C75.961 41.7964 76.0812 41.8177 76.1915 41.8659C78.1617 42.4844 80.2127 42.8069 82.2776 42.8229C85.9953 42.8229 89.426 41.1339 89.426 35.7224V33.3157Z" fill="#5C00FF"/>
<path d="M69.0528 12.9953C69.053 12.8004 68.978 12.6131 68.8434 12.4722C68.7088 12.3314 68.525 12.2479 68.3303 12.2393H64.7466V9.16751C64.7466 8.13583 65.1564 7.14641 65.8859 6.4169C66.6154 5.68739 67.6049 5.27756 68.6365 5.27756C68.7 5.27756 68.7609 5.25236 68.8057 5.20749C68.8506 5.16263 68.8758 5.10178 68.8758 5.03833V0.253639C68.8758 0.19019 68.8506 0.129339 68.8057 0.0844743C68.7609 0.0396091 68.7 0.0144043 68.6365 0.0144043H66.1772C64.4044 0.0153661 62.6821 0.605169 61.2809 1.69118C59.8796 2.77719 58.8788 4.29788 58.4356 6.0144C58.2592 6.62843 58.1233 7.25338 58.0289 7.88522C57.7705 10.2489 58.0289 17.3876 58.0289 17.3876V35.4115C58.0302 35.7309 58.1576 36.0369 58.3834 36.2627C58.6093 36.4886 58.9152 36.616 59.2346 36.6173H63.4882C63.8076 36.616 64.1136 36.4886 64.3394 36.2627C64.5653 36.0369 64.6927 35.7309 64.694 35.4115V17.3733C64.6948 17.3327 64.7063 17.2931 64.7275 17.2584H68.3303C68.4274 17.2589 68.5234 17.2391 68.6124 17.2004C68.7014 17.1617 68.7813 17.1049 68.8471 17.0335H68.8758C68.9984 16.8932 69.0648 16.7126 69.0624 16.5264L69.0528 12.9953Z" fill="#5C00FF"/>
</g>
<defs>
<clipPath id="clip0">
<rect width="95.512" height="48" fill="white"/>
</clipPath>
</defs>
</svg>
