<svg width="80" height="27" viewBox="0 0 80 27" fill="none" xmlns="http://www.w3.org/2000/svg">
<g filter="url(#filter0_i_1009_1283)">
<g clip-path="url(#clip0_1009_1283)">
<path d="M40.4867 10.0682L40.7004 19.067C40.7018 19.1276 40.6791 19.1863 40.6373 19.2301L40.8182 19.4026L40.6373 19.2301C40.5955 19.274 40.5379 19.2994 40.4774 19.3009L30.6929 19.5332C30.6323 19.5346 30.5736 19.5119 30.5298 19.4701L30.3577 19.6505L30.5298 19.4701C30.4859 19.4283 30.4605 19.3708 30.459 19.3102L30.2454 10.3114L40.4867 10.0682Z" stroke="white" stroke-width="0.5"/>
<path d="M40.3128 4.6961L40.3141 4.7208L40.3151 4.74947L40.3152 4.75239L40.3151 4.75238L40.3154 4.76532L40.3594 6.62048L37.6305 6.68527L37.6088 5.77044L37.6088 5.77034C37.5967 5.27174 37.4053 4.79419 37.0697 4.42529C36.7442 4.06756 36.3042 3.83525 35.8262 3.76776L35.775 1.61057L36.5343 1.59254L40.3128 4.6961ZM40.3128 4.6961C40.1591 3.81358 39.6943 3.01521 39.0026 2.44578C38.3088 1.87464 37.4328 1.57184 36.5344 1.59254L40.3128 4.6961Z" stroke="white" stroke-width="0.5"/>
<path d="M7.61743 20.5776C6.48137 20.6046 5.2918 20.293 4.42049 19.2751L4.54047 25.3362C4.54046 25.4011 4.5276 25.4653 4.50262 25.5251C4.47765 25.585 4.44105 25.6393 4.39495 25.6849C4.34885 25.7305 4.29417 25.7665 4.23406 25.7908C4.17396 25.8151 4.10962 25.8273 4.04478 25.8266L1.70329 25.8822C1.57365 25.8855 1.44767 25.839 1.35126 25.7523C1.25484 25.6655 1.1953 25.5452 1.18489 25.4159L0.881081 12.6203C0.851267 11.3646 0.794698 9.98997 0.742387 8.79468C0.738513 8.66488 0.78481 8.53858 0.871653 8.44204C0.958497 8.34549 1.07921 8.28613 1.20869 8.27628L3.12087 8.18063C3.25328 8.1735 3.38375 8.21485 3.48788 8.29694C3.59201 8.37904 3.66267 8.49625 3.68665 8.62666L3.93184 9.78147C4.35256 9.18556 4.91051 8.69965 5.55858 8.3648C6.20664 8.02995 6.92577 7.85598 7.65523 7.85759C10.7645 7.78377 12.6726 10.5407 12.7537 13.9585C12.8487 18.0603 10.5856 20.5071 7.61743 20.5776ZM4.32547 16.2812C4.33984 16.8863 5.18944 18.0986 6.7608 18.0613C8.59524 18.0177 9.4005 16.3546 9.34866 14.1709C9.2833 11.4181 7.95744 10.5067 6.63004 10.5382C6.10663 10.5685 5.60276 10.7476 5.17765 11.0545C4.75254 11.3613 4.42385 11.7831 4.23024 12.2703L4.32547 16.2812Z" fill="white"/>
<path d="M18.5352 19.5933C18.5368 19.6584 18.5251 19.7232 18.5009 19.7836C18.4767 19.844 18.4403 19.8989 18.3942 19.9448C18.348 19.9907 18.2929 20.0267 18.2323 20.0505C18.1718 20.0744 18.107 20.0857 18.0419 20.0837L15.698 20.1393C15.5683 20.1426 15.4424 20.0961 15.346 20.0094C15.2495 19.9226 15.19 19.8023 15.1796 19.673L14.9961 11.943C14.964 10.5917 14.9143 9.50642 14.8418 8.46956C14.8476 8.33782 14.901 8.21265 14.992 8.11722C15.083 8.02178 15.2055 7.96255 15.3368 7.95048L17.249 7.85482C17.3818 7.8471 17.5128 7.88816 17.6175 7.97029C17.7221 8.05243 17.7931 8.16997 17.8171 8.3008L18.0732 9.91482C18.7592 8.56799 19.9984 7.64596 21.519 7.58593C21.6464 7.59045 21.7681 7.63964 21.8629 7.72489C21.9577 7.81014 22.0194 7.92602 22.0374 8.05223L22.0861 10.1043C22.0895 10.1673 22.0782 10.2302 22.0532 10.2882C22.0282 10.3461 21.9901 10.3975 21.9419 10.4382C21.8938 10.479 21.8368 10.5081 21.7756 10.5232C21.7143 10.5383 21.6504 10.539 21.5888 10.5253C20.2802 10.341 19.0576 10.7553 18.3639 12.076L18.5352 19.5933Z" fill="white"/>
<path d="M27.3766 3.72802C27.3708 4.20694 27.1793 4.66491 26.8426 5.00552C26.5059 5.34613 26.0502 5.54283 25.5714 5.55419C25.0925 5.56556 24.628 5.39072 24.2755 5.06647C23.923 4.74222 23.71 4.29386 23.6814 3.81576C23.6666 3.56775 23.7019 3.31929 23.7852 3.08523C23.8686 2.85116 23.9982 2.63629 24.1664 2.45343C24.3346 2.27057 24.5379 2.12348 24.7642 2.02094C24.9905 1.9184 25.2352 1.86251 25.4836 1.85662C25.7319 1.85072 25.979 1.89493 26.2099 1.98662C26.4408 2.0783 26.6509 2.21557 26.8276 2.39024C27.0043 2.56491 27.1439 2.77339 27.2383 3.00324C27.3326 3.23309 27.3797 3.47959 27.3766 3.72802ZM26.7921 7.63062C26.8561 7.62237 26.9212 7.62771 26.983 7.6463C27.0448 7.66489 27.102 7.69631 27.1509 7.7385C27.1998 7.7807 27.2392 7.83272 27.2666 7.89119C27.294 7.94965 27.3088 8.01323 27.31 8.07779L27.5783 19.3786C27.5783 19.4434 27.5655 19.5076 27.5405 19.5675C27.5155 19.6273 27.4789 19.6816 27.4328 19.7272C27.3867 19.7728 27.332 19.8088 27.2719 19.8332C27.2118 19.8575 27.1475 19.8697 27.0826 19.869L24.7411 19.9246C24.6115 19.9279 24.4855 19.8814 24.3891 19.7946C24.2927 19.7079 24.2332 19.5875 24.2228 19.4583L23.9568 8.25552C23.9626 8.12378 24.0159 7.99861 24.1069 7.90317C24.1979 7.80774 24.3204 7.74851 24.4518 7.73644L26.7921 7.63062Z" fill="white"/>
<path d="M45.6799 17.7881C44.8393 18.9687 43.6726 19.7215 41.7161 19.7679C38.9633 19.8333 37.5712 18.1505 37.4898 14.7208L37.3288 7.93794C37.333 7.80833 37.3868 7.68527 37.479 7.59407C37.5712 7.50286 37.6948 7.45043 37.8244 7.44756L40.1659 7.39197C40.2307 7.3882 40.2955 7.3973 40.3567 7.41875C40.4179 7.44021 40.4742 7.47358 40.5224 7.51695C40.5706 7.56031 40.6098 7.61281 40.6376 7.67139C40.6654 7.72998 40.6813 7.7935 40.6843 7.85827L40.8377 14.3159C40.8789 16.0547 41.3406 17.1541 42.9096 17.1168C44.1413 17.0876 45.3 15.9975 45.2798 15.1461L45.1042 7.75333C45.1026 7.68802 45.1143 7.62307 45.1387 7.56247C45.1631 7.50187 45.1996 7.4469 45.246 7.40096C45.2925 7.35502 45.3478 7.31907 45.4087 7.29533C45.4696 7.2716 45.5346 7.26058 45.5999 7.26295L47.9653 7.20678C48.095 7.2035 48.2209 7.25 48.3174 7.33673C48.4138 7.42345 48.4733 7.54382 48.4837 7.67309L48.7445 18.6582C48.8455 22.9083 46.6985 25.1082 42.7163 25.2028C41.4691 25.2456 40.2235 25.0794 39.0312 24.7111C38.898 24.6579 38.7838 24.5659 38.7033 24.4471C38.6229 24.3283 38.5799 24.1881 38.5799 24.0446L38.6424 22.5451C38.6465 22.485 38.6649 22.4268 38.6959 22.3752C38.7269 22.3236 38.7697 22.2801 38.8208 22.2483C38.8719 22.2165 38.9299 22.1973 38.9899 22.1922C39.0498 22.1871 39.1102 22.1964 39.1659 22.2192C40.1581 22.5049 41.1872 22.6418 42.2195 22.6253C44.0779 22.5811 45.7727 21.6962 45.7085 18.9911L45.6799 17.7881Z" fill="white"/>
<path d="M35.2548 7.87237C35.2526 7.77498 35.2129 7.6822 35.1439 7.61339C35.0749 7.54459 34.9821 7.50506 34.8847 7.50305L33.0933 7.54559L33.0568 6.01011C33.0446 5.49441 33.2377 4.99496 33.5937 4.62165C33.9497 4.24833 34.4394 4.03173 34.9551 4.01949C34.9868 4.01873 35.017 4.00541 35.0389 3.98245C35.0608 3.95949 35.0726 3.92878 35.0719 3.89706L35.0151 1.50535C35.0143 1.47364 35.001 1.44352 34.9781 1.42163C34.9551 1.39973 34.9244 1.38786 34.8927 1.38861L33.6633 1.4178C32.7772 1.43932 31.9232 1.75458 31.2357 2.31407C30.5481 2.87356 30.0659 3.64558 29.8647 4.50888C29.7839 4.8179 29.7234 5.13191 29.6837 5.44886C29.5826 6.63343 29.7964 10.1988 29.7964 10.1988L30.0104 19.2084C30.0148 19.368 30.0821 19.5194 30.1977 19.6296C30.3133 19.7398 30.4677 19.7999 30.6274 19.7968L32.7536 19.7463C32.9132 19.7418 33.0647 19.6745 33.1749 19.5589C33.2851 19.4434 33.3452 19.2889 33.342 19.1292L33.1279 10.1125C33.1278 10.0922 33.1332 10.0723 33.1433 10.0547L34.9443 10.012C34.9928 10.011 35.0405 10 35.0846 9.97961C35.1286 9.9592 35.1679 9.92984 35.1999 9.89341L35.2142 9.89307C35.2738 9.82149 35.3049 9.73042 35.3015 9.63733L35.2548 7.87237Z" fill="white"/>
</g>
<path d="M58.7626 14.0142C58.736 12.8946 58.476 12.0525 57.9824 11.488C57.4893 10.9396 56.8266 10.6673 56.0109 10.6866C55.0192 10.7102 54.1813 11.1462 53.4812 11.995L53.3532 7.27675C53.3513 7.19677 53.3178 7.13355 53.2523 7.07109C53.1872 7.02462 53.1228 7.01014 53.0428 7.01204L51.8759 7.07176C51.6687 7.10869 51.575 7.20694 51.5792 7.38289L51.8485 18.7237C51.8504 18.8037 51.8679 18.8673 51.9334 18.9297C51.9989 18.9922 52.0633 19.0067 52.1592 19.0044L53.3269 18.9767C53.4069 18.9748 53.4705 18.9572 53.5329 18.8917C53.5958 18.8422 53.6263 18.7775 53.624 18.6815L53.496 13.2911C54.0224 12.5423 54.6534 12.1593 55.3732 12.1422C55.9491 12.1285 56.3535 12.3109 56.6018 12.6571C56.8345 13.0197 56.9746 13.5285 56.9902 14.1844L57.095 18.5991C57.0973 18.6951 57.1148 18.7587 57.1799 18.8052C57.2294 18.868 57.2938 18.8825 57.3897 18.8802L58.5734 18.8521C58.6534 18.8502 58.717 18.8327 58.7795 18.7672C58.8419 18.7017 58.8724 18.6369 58.8705 18.557L58.7626 14.0142ZM60.6436 15.586C60.6971 17.8414 61.6035 18.9402 63.395 18.8977C64.5307 18.8707 65.4161 18.4175 66.0515 17.5382L66.3279 18.3959C66.3964 18.5863 66.5423 18.6629 66.7342 18.6583L67.438 18.6416C67.518 18.6397 67.5816 18.6222 67.6441 18.5567C67.7065 18.4912 67.721 18.4268 67.7191 18.3469C67.667 17.4999 67.6507 16.8121 67.6381 16.2842L67.5101 10.8937C67.5086 10.8297 67.4751 10.7665 67.4096 10.7041C67.3441 10.6416 67.2794 10.6111 67.1994 10.613L66.0157 10.6411C65.9198 10.6434 65.8565 10.6769 65.8097 10.726C65.7472 10.7915 65.7327 10.8559 65.7346 10.9359L65.8516 15.8625C65.8607 16.2464 65.6611 16.6032 65.2852 16.9482C64.8933 17.2936 64.4652 17.4638 63.9854 17.4752C63.4095 17.4889 63.0215 17.3221 62.7884 16.9435C62.5557 16.5809 62.4309 16.0397 62.4142 15.3359L62.3116 11.0172C62.3101 10.9532 62.2766 10.89 62.2111 10.8275C62.1456 10.765 62.0808 10.7346 62.0009 10.7365L60.8172 10.7646C60.7372 10.7665 60.674 10.8 60.6112 10.8495C60.5487 10.915 60.5342 10.9793 60.5361 11.0593L60.6436 15.586ZM76.9884 14.2537C76.96 13.054 76.6329 12.0855 76.0396 11.3634C75.4463 10.6413 74.6374 10.2764 73.6137 10.3007C72.574 10.3254 71.7677 10.7446 71.2108 11.5581L71.0832 6.85578C71.0813 6.7758 71.0478 6.71258 70.9823 6.65012C70.9171 6.60365 70.8528 6.58917 70.7728 6.59107L69.6059 6.65079C69.3987 6.68772 69.305 6.78597 69.3092 6.96192L69.5306 16.2873C69.5473 16.9911 69.5473 17.6633 69.5305 18.3039C69.5324 18.3838 69.5499 18.4474 69.6154 18.5099C69.6809 18.5724 69.7453 18.5868 69.8412 18.5846L70.529 18.5682C70.721 18.5637 70.847 18.4807 70.9225 18.2868L71.1929 17.5442C71.7714 18.3147 72.5803 18.6796 73.604 18.6553C74.6117 18.6313 75.4343 18.2277 76.0715 17.4283C76.7091 16.645 77.02 15.5813 76.9884 14.2537ZM71.2294 13.014C71.3962 12.626 71.6446 12.3 71.9911 12.0677C72.3217 11.8358 72.6866 11.6991 73.1025 11.6892C73.7103 11.6748 74.1959 11.9033 74.5752 12.3744C74.9544 12.8456 75.1623 13.5128 75.1832 14.3926C75.203 15.2243 75.0434 15.9163 74.72 16.4522C74.3806 16.9884 73.8748 17.2564 73.187 17.2728C72.6112 17.2864 72.1595 17.1371 71.8153 16.7932C71.4714 16.4653 71.3023 16.0852 71.2917 15.6373L71.2294 13.014Z" fill="white"/>
</g>
<defs>
<filter id="filter0_i_1009_1283" x="0.569336" y="0.360596" width="78.6024" height="27.8291" filterUnits="userSpaceOnUse" color-interpolation-filters="sRGB">
<feFlood flood-opacity="0" result="BackgroundImageFix"/>
<feBlend mode="normal" in="SourceGraphic" in2="BackgroundImageFix" result="shape"/>
<feColorMatrix in="SourceAlpha" type="matrix" values="0 0 0 0 0 0 0 0 0 0 0 0 0 0 0 0 0 0 127 0" result="hardAlpha"/>
<feOffset dy="2"/>
<feGaussianBlur stdDeviation="10"/>
<feComposite in2="hardAlpha" operator="arithmetic" k2="-1" k3="1"/>
<feColorMatrix type="matrix" values="0 0 0 0 0.596078 0 0 0 0 0.647059 0 0 0 0 0.705882 0 0 0 0.25 0"/>
<feBlend mode="normal" in2="shape" result="effect1_innerShadow_1009_1283"/>
</filter>
<clipPath id="clip0_1009_1283">
<rect width="47.7569" height="24.0004" fill="white" transform="translate(0.583374 2.19604) rotate(-1.36014)"/>
</clipPath>
</defs>
</svg>
