<svg width="60" height="60" viewBox="0 0 60 60" fill="none" xmlns="http://www.w3.org/2000/svg">
<path d="M18.0407 60H17.0031C16.5965 59.8337 16.1987 59.6465 15.8113 59.4391C11.0048 56.6517 6.20952 53.8447 1.39461 51.0684C1.1138 50.9307 0.88116 50.7113 0.727054 50.4391C0.572949 50.1669 0.504572 49.8546 0.530907 49.5429C0.545863 33.5025 0.545863 17.4622 0.530907 1.42178C0.530907 0.300075 0.811326 0 1.96107 0H37.1237C39.8438 0 41.4955 1.65173 41.4984 4.37187C41.4984 8.43805 41.4984 12.5042 41.4984 16.5732C41.476 16.758 41.5112 16.9451 41.599 17.1091C41.6868 17.2732 41.823 17.4063 41.9891 17.4902C43.6725 18.466 45.133 19.7832 46.2768 21.3573C50.228 26.8761 50.6543 32.6865 47.5836 38.7437C47.3985 39.1054 47.4182 39.3046 47.707 39.5625C48.4053 40.2187 49.0643 40.917 49.7569 41.5844C49.8798 41.7182 50.0495 41.7996 50.2308 41.8116C51.0553 41.7274 51.6638 42.092 52.2191 42.6528C53.9717 44.4279 55.7244 46.2002 57.5107 47.9417C58.3856 48.783 59.1764 49.6803 59.4737 50.9058V52.2855C59.1606 53.381 58.5267 54.3576 57.6537 55.0897C57.4518 55.2664 57.2724 55.4683 57.0929 55.6506C55.2589 57.4678 52.8865 57.4706 51.0777 55.6506L45.1355 49.7083C45.0177 49.5906 44.8943 49.4812 44.7373 49.3298C43.6913 50.7319 42.2583 51.032 40.6431 51.0123C34.1764 50.9815 27.7126 51.0123 21.246 51.0123H20.5309V51.7134C20.5309 53.396 20.5309 55.0841 20.5309 56.7779C20.5309 57.8996 20.1467 58.853 19.1821 59.484C18.8153 59.6848 18.4338 59.8573 18.0407 60ZM2.53035 2.79307V3.35392C2.53035 18.5511 2.53035 33.7474 2.53035 48.9428C2.51986 49.101 2.55912 49.2584 2.64259 49.3932C2.72606 49.528 2.84958 49.6333 2.99586 49.6943C7.57242 52.3472 12.1443 55.0075 16.7115 57.6753C17.8332 58.3258 18.5231 57.9277 18.5231 56.6377C18.5231 53.0679 18.5231 49.498 18.5231 45.931C18.5082 45.1411 18.732 44.3651 19.1652 43.7044C19.8439 42.6613 20.5197 41.6124 21.1282 40.5328C21.3548 40.1427 21.4801 39.7022 21.4928 39.2513C21.5152 31.4807 21.4928 23.7101 21.5208 15.9394C21.5483 15.4712 21.4405 15.0048 21.2103 14.5961C20.9801 14.1874 20.6371 13.8535 20.2224 13.6343C14.9018 10.3963 9.59149 7.14153 4.29143 3.86989C3.7446 3.53338 3.19215 3.2025 2.53035 2.80149V2.79307ZM23.6521 37.8463L23.481 37.8884C23.5217 38.5939 23.5133 39.3013 23.4557 40.0056C23.4144 40.2129 23.4315 40.4277 23.5053 40.6258C23.5791 40.8239 23.7067 40.9976 23.8736 41.1273C27.1826 44.212 31.0721 45.502 35.5477 44.8991C44.0923 43.7437 49.5438 35.0589 46.933 26.8143C43.8483 17.0303 31.5769 13.8026 24.0755 20.802C23.8708 20.9927 23.5763 21.2255 23.5595 21.4526C23.5006 22.3556 23.5371 23.2642 23.5371 24.3242L23.9521 23.7914C25.1558 22.2161 26.7311 20.9636 28.5371 20.1458C29.1568 19.8654 29.7149 20.0197 29.9757 20.5384C30.2364 21.0572 30.0289 21.6237 29.3952 21.9406L29.1344 22.0639C27.2171 22.997 25.6492 24.52 24.6608 26.4094C23.6724 28.2987 23.3155 30.4552 23.6424 32.5623C23.9693 34.6694 24.9628 36.6163 26.4773 38.1173C27.9917 39.6184 29.9473 40.5947 32.0572 40.903C34.1671 41.2112 36.3203 40.8352 38.2009 39.8302C40.0815 38.8251 41.5905 37.2438 42.5065 35.3183C43.4226 33.3928 43.6976 31.2244 43.291 29.1313C42.8845 27.0381 41.8179 25.1302 40.2477 23.6876C38.8356 22.4048 37.0948 21.5398 35.2196 21.189C35.0855 21.1716 34.9564 21.1264 34.8407 21.0564C34.7249 20.9863 34.6251 20.8929 34.5475 20.782C34.47 20.6712 34.4163 20.5454 34.3901 20.4127C34.3639 20.28 34.3656 20.1433 34.3952 20.0112C34.4573 19.7471 34.6212 19.5182 34.8512 19.3743C35.0812 19.2304 35.3588 19.1831 35.6234 19.2428C37.3713 19.5526 39.0283 20.2473 40.4744 21.2766C41.9205 22.3059 43.1195 23.6441 43.9845 25.1941C44.8495 26.7442 45.3588 28.4672 45.4755 30.2384C45.5922 32.0097 45.3134 33.7846 44.6592 35.4347C44.0051 37.0849 42.992 38.5688 41.6934 39.779C40.3949 40.9891 38.8433 41.8952 37.1512 42.4315C35.4592 42.9679 33.6689 43.1211 31.9103 42.88C30.1517 42.6389 28.4688 42.0095 26.9835 41.0376C25.6815 40.2029 24.5508 39.1274 23.6521 37.8688V37.8463ZM5.33461 1.98825L5.28973 2.09762C5.46079 2.20698 5.62907 2.32194 5.80293 2.4285C11.0263 5.63657 16.2516 8.84373 21.4788 12.0499C22.1164 12.4113 22.6436 12.9394 23.0037 13.5777C23.3639 14.216 23.5434 14.9404 23.523 15.673C23.523 16.461 23.523 17.2462 23.523 18.0314C23.523 18.1913 23.5511 18.3483 23.5707 18.5558C28.4698 14.9103 33.7418 14.1335 39.4905 16.1554V15.4571C39.4905 11.791 39.4905 8.1277 39.4905 4.4672C39.4905 2.6893 38.7894 1.98825 37.0256 1.98825H5.33741H5.33461ZM41.79 44.8766C34.698 48.4268 28.251 47.6192 22.2948 42.4874C21.3806 43.9175 20.1663 45.2327 20.5113 47.1873C20.5676 47.7812 20.5732 48.3788 20.5281 48.9736H41.2151C41.3874 48.976 41.5597 48.9685 41.7311 48.9512C42.2224 48.9024 42.6767 48.6687 43.0021 48.2974C43.3275 47.9262 43.4997 47.4452 43.4838 46.9518C43.4838 46.784 43.4297 46.6208 43.3295 46.4862C42.8164 45.945 42.2779 45.4038 41.79 44.8991V44.8766ZM46.3834 48.065C46.4022 48.1033 46.4258 48.1391 46.4535 48.1716C48.5258 50.2496 50.587 52.3331 52.6762 54.3915C53.0487 54.7621 53.5528 54.9701 54.0783 54.9701C54.6038 54.9701 55.1079 54.7621 55.4804 54.3915C55.9011 54.0017 56.2965 53.5838 56.7031 53.1744C57.7491 52.12 57.7519 51.0236 56.7031 49.9663C55.301 48.5642 53.8988 47.1621 52.477 45.7347C51.8433 45.101 51.2123 44.4616 50.6122 43.8587L46.3834 48.065ZM46.3385 41.147L43.6885 43.7998L45.615 45.7235L48.265 43.0791L46.3385 41.147Z" fill="#5C00FF"/>
<path d="M4.54922 24.9579C4.54922 22.1369 4.54922 19.3177 4.54922 16.5003C4.53939 16.3088 4.53939 16.1169 4.54922 15.9254C4.56747 15.6842 4.6734 15.4581 4.847 15.2897C5.02059 15.1212 5.24985 15.0222 5.49148 15.0112C5.74358 15.0057 5.98853 15.0952 6.17765 15.2619C6.36678 15.4287 6.4862 15.6606 6.5122 15.9114C6.52063 16.0646 6.52063 16.2181 6.5122 16.3713V33.6315C6.5122 33.7465 6.5122 33.8615 6.5122 33.9765C6.51443 34.1108 6.48991 34.2443 6.44004 34.369C6.39016 34.4938 6.31594 34.6074 6.22171 34.7032C6.12748 34.799 6.01513 34.8751 5.8912 34.927C5.76727 34.9789 5.63423 35.0056 5.49986 35.0056C5.36987 35.0027 5.24174 34.9741 5.12287 34.9214C5.004 34.8687 4.89676 34.793 4.80732 34.6986C4.71789 34.6042 4.64805 34.493 4.60183 34.3715C4.55561 34.25 4.53391 34.1205 4.53802 33.9905C4.51839 33.3764 4.53802 32.7622 4.53802 32.1481C4.54363 29.7532 4.54735 27.3565 4.54922 24.9579Z" fill="#5C00FF"/>
<path d="M6.52937 10.0252C6.52937 10.3505 6.52937 10.6787 6.52937 11.0039C6.53237 11.1337 6.50932 11.2627 6.46155 11.3834C6.41379 11.5041 6.34227 11.614 6.25127 11.7066C6.16027 11.7992 6.05164 11.8725 5.93178 11.9223C5.81193 11.9722 5.68329 11.9974 5.55349 11.9966C5.42376 12.0032 5.29408 11.983 5.17253 11.9372C5.05097 11.8914 4.94014 11.8211 4.84698 11.7305C4.75383 11.64 4.68033 11.5313 4.63108 11.4111C4.58184 11.2909 4.55791 11.1618 4.56077 11.032C4.53834 10.3421 4.53834 9.65229 4.56077 8.96244C4.56223 8.83735 4.58838 8.71379 4.63769 8.59883C4.687 8.48387 4.75849 8.37976 4.84811 8.29249C4.93773 8.20522 5.0437 8.13649 5.15993 8.09025C5.27616 8.044 5.40038 8.02116 5.52545 8.02302C5.778 8.01311 6.02425 8.10327 6.21067 8.27393C6.39709 8.4446 6.50858 8.68196 6.52095 8.9344C6.54899 9.29615 6.52095 9.66067 6.52095 10.0252H6.52937Z" fill="#5C00FF"/>
</svg>
