<svg width="61" height="60" viewBox="0 0 61 60" fill="none" xmlns="http://www.w3.org/2000/svg">
<g clip-path="url(#clip0)">
<path d="M2.00276 32.2698C2.00276 31.1974 2.00276 30.1975 2.00276 29.2001C2.00276 28.2027 2.61524 27.7927 3.53266 28.1327C6.06745 29.0701 8.59221 30.035 11.127 30.9699C11.7395 31.1974 12.0244 31.5774 12.0094 32.2348C11.9869 33.2972 12.0394 34.3622 11.9869 35.4221C11.9619 35.9445 12.1594 36.1345 12.6169 36.292C13.9518 36.7595 15.2641 37.2919 16.5965 37.7619C17.0041 37.9084 17.4334 37.9853 17.8664 37.9894C31.4053 37.9994 44.945 37.9994 58.4855 37.9894C59.7354 37.9894 59.9979 38.2393 59.9979 39.4742C59.9979 40.4958 59.9979 41.5166 59.9979 42.5365C59.9979 43.6964 59.718 43.9814 58.5756 43.9889H58.0006V44.6838C58.0006 49.3084 58.0006 53.933 58.0006 58.5576C58.0006 59.6975 57.7081 59.985 56.5532 59.985C55.3983 59.985 54.3034 59.985 53.1785 59.985C52.3661 59.985 52.0061 59.6151 52.0011 58.7926C52.0011 57.2153 52.0011 55.6354 52.0011 54.023H8.00477V55.5454C8.00477 56.6278 8.00477 57.7127 8.00477 58.7951C8.00477 59.615 7.6348 59.98 6.82237 59.9875C5.67746 59.9875 4.53006 59.9875 3.38516 59.9875C2.31774 59.9875 2.00527 59.6776 2.00527 58.6201C2.00527 52.1407 2.00528 45.6637 2.01778 39.1843C2.01778 38.6218 1.88529 38.3468 1.32783 38.1619C0.012941 37.7244 0.00542948 37.6619 0.00292969 36.287C0.00292969 35.3088 0.00292969 34.3297 0.00292969 33.3498C0.00292969 32.1574 0.532873 31.7874 1.67778 32.1674C1.75277 32.2049 1.83028 32.2223 2.00276 32.2698ZM51.9711 44.0014H51.1561C39.9337 44.0014 28.7114 44.0014 17.489 44.0014C17.0558 43.9964 16.6265 43.9187 16.2191 43.7714C13.7018 42.8489 11.1945 41.899 8.6847 40.9566C8.47972 40.8816 8.26972 40.8116 8.04224 40.7316V47.9685H51.9711V44.0014ZM2.00276 34.4497C2.02696 34.8451 2.02696 35.2416 2.00276 35.6371C1.93027 36.177 2.17778 36.387 2.65524 36.5495C7.33235 38.2818 11.9994 40.0492 16.6765 41.799C17.0235 41.9297 17.3907 41.9982 17.7615 42.0015C30.942 42.0115 44.1242 42.0115 57.3082 42.0015H57.9531V40.0017H57.0907C43.9085 40.0017 30.7262 40.0017 17.5439 40.0017C17.1514 40.0133 16.7598 39.9566 16.3866 39.8342C12.8869 38.5418 9.41714 37.2244 5.93243 35.917C4.64504 35.4296 3.36515 34.9546 2.00276 34.4497ZM51.9661 50.0434H8.02979V51.9657H51.9661V50.0434ZM4.04758 39.2143V57.9627H5.99743V45.9012C5.99743 44.0689 5.99743 42.239 5.99743 40.4017C5.99745 40.2993 5.97506 40.1981 5.93188 40.1053C5.8887 40.0124 5.82577 39.9301 5.74745 39.8642C5.20999 39.6167 4.63753 39.4342 4.05008 39.2143H4.04758ZM55.9533 57.9627V44.0463H54.0285V57.9627H55.9533ZM9.96963 35.2871C9.98463 35.1096 9.99709 35.0371 9.99709 34.9446C9.97959 34.1947 10.2096 33.2973 9.8696 32.7523C9.56962 32.2723 8.63469 32.1798 7.97724 31.9324C6.67985 31.4324 5.37748 30.96 4.0026 30.4475C4.0026 31.2774 3.9901 32.0223 4.0026 32.7673C4.01253 32.841 4.03878 32.9116 4.07943 32.9738C4.12008 33.0361 4.17409 33.0885 4.23756 33.1273C6.1299 33.8522 8.01473 34.5547 9.97207 35.2896L9.96963 35.2871Z" fill="#5C00FF"/>
<path d="M0.00292969 12.9389C0.00292969 9.73252 0.00292969 6.52446 0.00292969 3.31473C0.00292969 1.2299 1.2178 0.00250244 3.28513 0.00250244H22.7186C24.7634 0.00250244 26.0008 1.2249 26.0008 3.25223C26.0008 9.75169 26.0008 16.2511 26.0008 22.7506C26.0008 24.7779 24.7634 26.0003 22.7186 26.0003H3.28513C1.2178 26.0003 0.00292969 24.7704 0.00292969 22.6856C0.00292969 19.4359 0.00292969 16.187 0.00292969 12.9389ZM2.00276 13.0014C2.00276 16.2112 2.00276 19.4192 2.00276 22.6256C2.00276 23.688 2.31524 23.998 3.37765 23.998H22.626C23.686 23.998 23.9984 23.6855 23.9984 22.6206C23.9984 16.2061 23.9984 9.79002 23.9984 3.37222C23.9984 2.30981 23.686 1.99983 22.621 1.99983H3.37264C2.31023 1.99983 2.00026 2.30981 2.00026 3.37472C2.00193 6.58612 2.00276 9.79502 2.00276 13.0014Z" fill="#5C00FF"/>
<path d="M34 10.8141C34 9.29423 34.015 7.77436 34 6.25199C34 5.59954 34.25 5.22458 34.8624 4.9746C38.6954 3.39973 42.5151 1.8082 46.3215 0.2C46.5366 0.100538 46.7707 0.0490112 47.0076 0.0490112C47.2446 0.0490112 47.4788 0.100538 47.6939 0.2C51.4702 1.78653 55.2515 3.36057 59.0379 4.92211C59.7303 5.20459 60.0378 5.61955 60.0178 6.38448C59.9878 9.17425 60.0178 11.964 60.0053 14.7563C60.0291 16.2281 59.7533 17.6893 59.1946 19.0512C58.6359 20.413 57.8061 21.647 56.7556 22.6781C53.8342 25.6195 50.9036 28.551 47.9639 31.4724C47.2364 32.1998 46.7939 32.1998 46.064 31.4724C43.1476 28.5576 40.2311 25.6412 37.3147 22.7231C36.2433 21.6825 35.3971 20.4328 34.8287 19.0516C34.2602 17.6704 33.9816 16.1871 34.01 14.6938C34 13.3964 34 12.1065 34 10.8141ZM46.9639 29.5625C47.0383 29.5169 47.1093 29.4659 47.1764 29.4101C49.9912 26.5978 52.8259 23.808 55.6032 20.9583C57.1397 19.388 57.9956 17.2757 57.9855 15.0788C58.023 12.434 57.9855 9.78918 58.003 7.1444C58.0241 7.00448 57.9933 6.8617 57.9164 6.74291C57.8395 6.62412 57.7218 6.53753 57.5856 6.49946C54.1808 5.09708 50.7886 3.67222 47.3864 2.26733C47.1836 2.17922 46.9565 2.16419 46.7439 2.22483C43.1667 3.6972 39.5995 5.18707 35.9948 6.68445C35.9948 9.43422 35.9823 12.154 35.9948 14.8813C35.9834 16.0511 36.2067 17.2114 36.6516 18.2934C37.0964 19.3754 37.7537 20.3572 38.5846 21.1807C40.132 22.7556 41.7044 24.3055 43.2642 25.8678L46.9639 29.5625Z" fill="#5C00FF"/>
<path d="M16.0009 16.0011C16.0009 17.591 16.0009 19.1059 16.0009 20.6207C16.0009 21.6856 15.6885 22.0006 14.6311 22.0006C13.5062 22.0006 12.3813 22.0006 11.2588 22.0006C10.3564 22.0006 10.009 21.6507 10.009 20.7507C10.009 19.1909 10.009 17.6335 10.009 16.0011H8.49406C7.39165 16.0011 6.28675 16.0011 5.18434 16.0011C4.39691 16.0011 4.01945 15.6336 4.01195 14.8687C3.99862 13.6188 3.99862 12.3689 4.01195 11.119C4.01195 10.3841 4.39692 10.0116 5.13936 10.0066C6.53424 10.0066 7.92913 10.0066 9.32401 10.0066H10.0064C10.0064 8.94421 10.0064 7.9318 10.0064 6.91939C10.0064 6.29444 9.99145 5.66949 10.0064 5.04455C9.99775 4.90801 10.0181 4.77115 10.0662 4.64306C10.1143 4.51497 10.189 4.39854 10.2854 4.30144C10.3817 4.20435 10.4976 4.12879 10.6254 4.07978C10.7531 4.03077 10.8898 4.00943 11.0264 4.01713C12.3363 3.99714 13.6478 3.99714 14.9611 4.01713C15.636 4.01713 15.9934 4.43458 15.9984 5.15702C15.9984 6.55191 15.9984 7.94679 15.9984 9.34167V10.0091H20.538C21.7204 10.0091 21.9954 10.2891 21.9954 11.4865C21.9954 12.5889 21.9954 13.6938 21.9954 14.7962C21.9954 15.6487 21.6305 16.0036 20.7706 16.0086C19.2157 16.0011 17.6558 16.0011 16.0009 16.0011ZM12.0013 6.01697C12.0013 7.65183 12.0013 9.22918 12.0013 10.809C12.0013 11.6265 11.6313 11.9915 10.8214 12.0015C10.0115 12.0115 9.23651 12.0015 8.44658 12.0015H6.03424V14.0013H9.98143C11.9363 14.0013 12.0038 14.0688 12.0038 16.0436V19.9558H14.0036C14.0036 18.4309 14.0036 16.956 14.0036 15.4762C14.0036 14.2813 14.2786 14.0038 15.4635 14.0038H19.9631V12.004C18.3633 12.004 16.8059 12.004 15.246 12.004C14.3561 12.004 14.0111 11.649 13.9961 10.7541C13.9961 9.69165 13.9961 8.62924 13.9961 7.56683V6.02695L12.0013 6.01697Z" fill="#5C00FF"/>
<path d="M56.9081 11.7665C56.9081 13.1789 57.0006 14.6013 56.8831 16.0162C56.7381 17.766 55.9032 19.2659 54.6633 20.5158C52.4168 22.779 50.167 25.0288 47.9139 27.2652C47.2414 27.9377 46.7789 27.9352 46.104 27.2652C43.8475 25.0138 41.5977 22.7589 39.3546 20.5008C38.6027 19.7605 38.0085 18.8756 37.6076 17.8995C37.2068 16.9234 37.0077 15.8763 37.0223 14.8213C37.0223 12.634 37.0223 10.4466 37.0223 8.25932C36.9951 7.97943 37.0656 7.69876 37.2219 7.46498C37.3782 7.23121 37.6107 7.05876 37.8797 6.97693C40.7128 5.81869 43.535 4.64296 46.3465 3.44972C46.5612 3.3491 46.7955 3.29694 47.0327 3.29694C47.2699 3.29694 47.5041 3.3491 47.7189 3.44972C50.5153 4.63296 53.3176 5.79953 56.1257 6.94943C56.7806 7.21691 57.0581 7.62438 57.0381 8.32932C57.0056 9.47423 57.0381 10.6191 57.0381 11.7665H56.9081ZM54.9083 8.62678C52.4085 7.59187 49.8712 6.52197 47.3139 5.47955C47.084 5.4064 46.8354 5.41883 46.614 5.51456C44.2117 6.49697 41.8194 7.51437 39.4146 8.49429C39.2783 8.53191 39.1608 8.6186 39.0847 8.73768C39.0085 8.85675 38.9791 8.9998 39.0021 9.13925C39.0171 10.9491 39.0246 12.7589 39.0021 14.5713C38.9747 15.4467 39.1324 16.3181 39.465 17.1284C39.7975 17.9387 40.2974 18.6696 40.932 19.2734C42.8293 21.1432 44.7042 23.0381 46.589 24.9204C46.7165 25.0479 46.8565 25.1704 46.9914 25.2854L46.884 25.1179C49.1763 22.9131 51.526 20.7658 53.7234 18.4685C54.3748 17.7373 54.7713 16.8145 54.8533 15.8387C54.9983 13.4614 54.9008 11.0666 54.9008 8.62678H54.9083Z" fill="#5C00FF"/>
<path d="M43.499 14.9262L44.9139 13.5738C45.5163 14.2188 46.1638 14.9237 46.8288 15.6262L51.8433 10.5591L53.2682 12.1189C53.2232 12.1689 53.1282 12.2939 53.0182 12.4039C51.3284 14.0971 49.6369 15.7878 47.9437 17.476C47.2212 18.196 46.7787 18.1909 46.0463 17.4635L43.499 14.9262Z" fill="#5C00FF"/>
</g>
<defs>
<clipPath id="clip0">
<rect width="60.01" height="60" fill="white"/>
</clipPath>
</defs>
</svg>
