<svg width="38" height="60" viewBox="0 0 38 60" fill="none" xmlns="http://www.w3.org/2000/svg">
<path d="M2.50845 60C1.6149 59.7071 0.847317 59.2676 0.390286 58.3887C-0.611667 56.4697 0.699373 54.1406 2.85855 54.0264C3.2233 54.0073 3.59097 54.0264 4.13004 54.0264C4.13004 52.8442 4.06118 51.7149 4.14175 50.5972C4.47792 45.484 6.33246 40.5876 9.46793 36.5347C10.4245 35.2837 11.5187 34.1367 12.6173 33.0015C14.4616 31.0972 14.5084 28.8838 12.6027 27.0278C9.21597 23.7319 6.68619 19.9102 5.26529 15.3765C4.39298 12.5583 3.97563 9.61905 4.02896 6.66944C4.02896 6.47462 4.02896 6.28125 4.02896 5.99707C3.69791 5.99707 3.39468 5.99707 3.09146 5.99707C1.51529 5.96191 0.268705 4.9043 0.0709511 3.43652C-0.131197 1.93359 0.738924 0.610844 2.24478 0.125981C2.33475 0.0917605 2.42277 0.0526502 2.50845 0.00880432H35.4938C36.3874 0.301773 37.1549 0.741226 37.6134 1.62013C38.6139 3.53908 37.3029 5.86817 35.1437 5.98242C34.7775 6.00147 34.4113 5.98242 33.8737 5.98242C33.8737 7.16602 33.9411 8.29542 33.862 9.41309C33.5237 14.5263 31.6683 19.4224 28.5329 23.4756C27.5763 24.7251 26.4821 25.8721 25.3834 27.0073C23.5348 28.9248 23.4879 31.1221 25.3966 32.9795C28.7848 36.2739 31.3175 40.0942 32.7355 44.6294C33.5595 47.2782 33.9768 50.0366 33.9733 52.8106C33.9733 53.1797 33.9733 53.543 33.9733 54.0103C34.3043 54.0103 34.6076 54.0103 34.9093 54.0103C36.487 54.0454 37.7336 55.1016 37.9313 56.5694C38.1335 58.0723 37.2633 59.3965 35.7575 59.8814C35.6675 59.9156 35.5795 59.9547 35.4938 59.9986L2.50845 60ZM31.9313 53.9605C31.952 53.8786 31.9667 53.7954 31.9752 53.7114C32.0734 49.5454 31.297 45.5654 29.466 41.8052C28.0919 38.981 26.1935 36.5537 23.9552 34.3696C22.2399 32.6968 21.6115 30.69 22.2633 28.3345C22.6061 27.0777 23.4162 26.1372 24.3141 25.2583C29.4997 20.1441 32.0544 13.9429 31.9782 6.6548C31.9782 6.45119 31.9606 6.24611 31.9518 6.05128H6.03726C5.89077 10.3213 6.67153 14.354 8.5187 18.1699C9.89712 21.0161 11.8234 23.4434 14.0631 25.6553C16.5534 28.1221 16.6559 31.4356 14.3561 34.0415C13.672 34.8164 12.903 35.5151 12.2218 36.293C8.80006 40.142 6.68124 44.9733 6.16763 50.0977C6.02993 51.3662 6.03873 52.6509 5.97867 53.9561L31.9313 53.9605ZM18.9411 3.99317H34.4362C34.631 3.99317 34.8273 4.00195 35.0221 3.98291C35.2684 3.97044 35.5009 3.86543 35.6731 3.68888C35.8453 3.51234 35.9445 3.27729 35.9508 3.03076C35.9508 2.48877 35.6579 2.15187 35.1364 2.03614C34.943 2.00251 34.7466 1.98974 34.5504 1.99806C24.1823 1.99806 13.8131 1.99806 3.44302 1.99806C3.2469 1.9889 3.05037 2.00167 2.85709 2.03614C2.33853 2.15626 2.04263 2.48877 2.04117 3.03076C2.04784 3.27718 2.14713 3.51206 2.31926 3.68853C2.49139 3.865 2.72369 3.9701 2.96987 3.98291C3.16323 4.00195 3.35952 3.99317 3.55581 3.99317H18.9411ZM18.9997 56.0068V56.0156H5.37662C4.59586 56.0156 3.81656 55.9951 3.03287 56.0156C2.77569 56.0125 2.52757 56.1105 2.34204 56.2886C2.15651 56.4668 2.04845 56.7107 2.04117 56.9678C2.02505 57.4819 2.41031 57.9097 2.97427 57.9932C3.12958 58.0078 3.28568 58.0122 3.44156 58.0064H34.5534C34.7495 58.0155 34.946 58.0027 35.1393 57.9683C35.6579 57.8481 35.9538 57.5156 35.9552 56.9736C35.9486 56.7272 35.8493 56.4924 35.6771 56.3159C35.505 56.1394 35.2727 56.0343 35.0265 56.0215C34.8332 56.0024 34.6369 56.0112 34.4406 56.0112L18.9997 56.0068Z" fill="#5C00FF"/>
<path d="M18.9413 52.0093H9.53263C8.3461 52.0093 8.00626 51.605 8.14249 50.4184C8.32416 48.5984 9.1185 46.894 10.3954 45.5845C10.9374 45.0234 11.4516 44.4346 12.0067 43.8926C13.1376 42.7954 14.497 42.1143 16.0702 42.0615C17.9965 41.9971 19.9272 42.0088 21.8549 42.0527C23.2193 42.0612 24.5313 42.5795 25.5331 43.5059C26.5964 44.5071 27.5895 45.5805 28.5053 46.7183C29.3988 47.8213 29.7284 49.185 29.8705 50.584C29.9716 51.5859 29.5981 52.0005 28.5917 52.0049C26.8969 52.0049 25.2021 52.0049 23.5058 52.0049L18.9413 52.0093ZM10.142 49.9585H27.8197C27.6205 49.4355 27.5385 48.9155 27.2602 48.5479C26.4267 47.4522 25.5565 46.3769 24.6234 45.3662C24.2405 44.9462 23.774 44.6111 23.2538 44.3823C22.7336 44.1534 22.1712 44.036 21.6029 44.0376C19.8305 44.0171 18.0551 43.9658 16.29 44.0772C15.5297 44.124 14.6273 44.354 14.0795 44.833C12.9179 45.8496 11.9071 47.0493 10.9184 48.2432C10.5522 48.6855 10.4218 49.3228 10.1523 49.96L10.142 49.9585Z" fill="#5C00FF"/>
<path d="M15.4589 13.396C15.8061 13.5117 16.5722 13.6011 17.142 13.9819C19.329 15.4468 21.7914 15.7852 24.3198 15.9448C24.9614 15.9858 25.6059 15.9815 26.2446 16.0488C27.3051 16.1602 27.8559 17.0435 27.3476 17.9766C26.9081 18.7647 26.3002 19.4736 25.6777 20.1328C24.6523 21.208 23.5668 22.2144 22.5063 23.2485C20.9741 24.7412 20.1069 26.5357 20.016 28.6934C20.0043 28.9761 19.9736 29.3408 19.8007 29.5151C19.5503 29.7666 19.2195 29.9221 18.8661 29.9546C18.4267 29.9648 18.1161 29.647 18.0502 29.1797C17.9609 28.5439 17.936 27.895 17.8012 27.2754C17.4642 25.7401 16.6664 24.3444 15.5146 23.2749C13.912 21.7398 12.6098 19.9805 11.4584 18.0835C10.9106 17.1782 10.9911 16.3828 11.4584 15.5596C12.248 14.1431 13.4784 13.4355 15.4589 13.396ZM24.9072 18.0132C24.7974 17.9878 24.6864 17.9682 24.5746 17.9546C21.5483 17.8359 18.6318 17.3569 16.0156 15.6533C15.144 15.085 13.9179 15.457 13.3525 16.2583C13.1225 16.585 13.0346 16.894 13.3115 17.2617C13.5883 17.6294 13.7509 18.0484 14.0322 18.3926C15.6962 20.4331 17.3808 22.4561 19.0698 24.4995C20.435 21.9111 22.9618 20.2852 24.9072 18.0176V18.0132Z" fill="#5C00FF"/>
<path d="M19.9663 33.5142C19.9663 34.5132 19.6338 34.9995 18.9614 34.9878C18.2891 34.9761 17.9697 34.4853 17.9697 33.4849C17.9697 33.4453 17.9697 33.4072 17.9697 33.3677C17.9697 32.4888 18.3462 31.9966 18.9951 32.0068C19.644 32.0171 19.9634 32.4829 19.9692 33.3384C19.9663 33.3984 19.9575 33.4556 19.9663 33.5142Z" fill="#5C00FF"/>
<path d="M19.958 38.5254C19.958 38.6235 19.958 38.7217 19.958 38.8184C19.9375 39.5508 19.6021 39.9595 19.0059 39.98C18.4097 40.0005 17.9922 39.5727 17.9673 38.833C17.9485 38.5217 17.9583 38.2094 17.9966 37.8999C18.0874 37.314 18.5108 36.9873 19.0498 37.021C19.564 37.0605 19.9038 37.4209 19.9493 37.9937C19.9624 38.1665 19.9493 38.3437 19.9493 38.5181L19.958 38.5254Z" fill="#5C00FF"/>
</svg>
