<svg width="58" height="60" viewBox="0 0 58 60" fill="none" xmlns="http://www.w3.org/2000/svg">
<path d="M1.91548 60C0.70793 59.5411 0.29289 58.6484 0.306986 57.386C0.349274 53.6553 0.321077 49.9214 0.321077 46.1891C0.321077 43.8665 0.770577 43.37 3.12772 43.1977C3.13712 42.9847 3.14966 42.7607 3.15592 42.5367C3.20291 41.0363 3.15592 39.5249 3.31255 38.0354C3.49109 36.4003 4.32275 35.0252 5.4144 33.8067C5.6327 33.5521 5.75951 33.2318 5.77462 32.8967C5.79551 25.6859 5.80072 18.475 5.79028 11.2642C5.79028 9.8546 6.29617 9.34872 7.68227 9.34872C9.81231 9.34872 11.9424 9.34872 14.0724 9.34872C14.8085 9.34872 15.2095 9.66195 15.2048 10.2336C15.2001 10.8053 14.7991 11.1044 14.0599 11.106C12.1261 11.106 10.1913 11.106 8.25551 11.106H7.59613V32.1214C7.73865 32.0729 7.87805 32.0369 8.00647 31.9805C11.4333 30.4581 15.2314 31.2773 17.717 34.1011C17.8253 34.2342 17.9642 34.339 18.1219 34.4067C18.2795 34.4743 18.4512 34.5027 18.6223 34.4895C21.6503 34.4781 24.6783 34.4781 27.7063 34.4895C27.9595 34.4786 28.213 34.5029 28.4596 34.5616C28.8919 34.6853 29.0861 35.0174 29.047 35.4575C29.0427 35.6458 28.9706 35.8263 28.844 35.9658C28.7175 36.1053 28.5448 36.1945 28.3578 36.2171C28.1448 36.2432 27.9301 36.2521 27.7157 36.2437H19.1704C19.3552 37.055 19.5119 37.8287 19.7264 38.5852C19.7562 38.687 20.0788 38.7543 20.2668 38.7559C22.3185 38.7669 24.3703 38.7559 26.4236 38.7559H36.3314C36.546 38.7559 36.8185 38.6901 36.9579 38.7935C37.2335 38.9908 37.5969 39.2728 37.6235 39.5484C37.6501 39.8241 37.3573 40.189 37.1114 40.4098C36.9548 40.5461 36.629 40.5101 36.3784 40.5101C31.0815 40.5101 25.7851 40.5101 20.4892 40.5101H19.7703V43.0035H36.311C36.4869 42.994 36.663 42.994 36.8389 43.0035C37.0658 43.0163 37.2792 43.1161 37.4346 43.282C37.59 43.4479 37.6756 43.6673 37.6736 43.8947C37.6642 44.3645 37.3134 44.7091 36.8044 44.7482C36.629 44.7623 36.4536 44.7482 36.2766 44.7482H22.5675V47.2213C22.5675 47.4359 22.5675 47.6504 22.5675 47.865C22.5378 48.4241 22.201 48.7687 21.6983 48.7687C21.1955 48.7687 20.8369 48.4179 20.8212 47.865C20.7977 47.0819 20.7993 46.2988 20.8212 45.5157C20.8306 45.1163 20.6928 44.9628 20.2793 44.9628C14.3966 44.9722 8.51393 44.9722 2.63124 44.9628C2.21306 44.9628 2.0862 45.1351 2.0862 45.5219C2.0862 49.5669 2.0862 53.6119 2.0862 57.6569C2.0862 58.0923 2.26318 58.2255 2.68606 58.2255C8.53325 58.214 14.3768 58.214 20.2167 58.2255C20.6865 58.2255 20.8306 58.0688 20.8243 57.6146C20.8056 55.8918 20.8243 54.169 20.8243 52.4556C20.816 52.2801 20.8201 52.1042 20.8369 51.9293C20.8459 51.8169 20.8772 51.7073 20.9288 51.607C20.9804 51.5067 21.0513 51.4175 21.1375 51.3448C21.2237 51.272 21.3234 51.217 21.4309 51.1829C21.5385 51.1488 21.6517 51.1364 21.7641 51.1462C22.2637 51.1901 22.5472 51.4782 22.5738 51.981C22.6004 52.4837 22.5738 53.0304 22.5738 53.6005H45.5439V32.3329C44.3332 33.199 43.3198 32.6602 42.3535 31.9523C40.5758 30.6492 38.8201 29.3163 37.0378 28.018C36.7908 27.8464 36.4989 27.7511 36.1983 27.7439C32.5819 27.7251 28.9671 27.7329 25.3507 27.7282C25.0986 27.7389 24.8464 27.7093 24.6036 27.6405C24.1776 27.4964 24.0053 27.155 24.0617 26.7164C24.0748 26.5285 24.1551 26.3516 24.288 26.2181C24.4209 26.0847 24.5974 26.0036 24.7853 25.9897C24.9799 25.9704 25.1757 25.9651 25.3711 25.974H34.9735C34.3956 25.133 33.8881 24.353 33.3274 23.6138C33.2256 23.4775 32.9077 23.4572 32.69 23.4572C27.4327 23.4488 22.1755 23.4462 16.9182 23.4493C16.7035 23.4548 16.4886 23.4485 16.2745 23.4305C15.8046 23.3788 15.5258 23.1016 15.4914 22.6286C15.4632 22.1243 15.7295 21.8126 16.2197 21.7202C16.4325 21.6919 16.6474 21.6825 16.8618 21.692H32.2953C32.0306 20.8933 31.8254 20.1634 31.5357 19.4649C31.4761 19.3177 31.1472 19.2017 30.9421 19.2017C26.233 19.1871 21.5229 19.1835 16.8117 19.1908C16.6363 19.1994 16.4605 19.1963 16.2855 19.1814C15.7921 19.1156 15.5024 18.8306 15.4898 18.3294C15.4773 17.8282 15.7702 17.5322 16.2541 17.446C16.4487 17.4248 16.6446 17.4201 16.8399 17.432H30.9875C30.9045 15.3223 30.823 13.2486 30.7385 11.095H30.1402C26.4063 11.095 22.6735 11.095 18.9418 11.095C18.7648 11.095 18.5878 11.106 18.4139 11.095C17.9112 11.0433 17.5682 10.6784 17.5917 10.2023C17.6183 9.70267 17.9049 9.4192 18.3952 9.35342C18.5702 9.3393 18.746 9.33616 18.9214 9.34402C22.6354 9.34402 26.3489 9.34402 30.0619 9.34402H30.8058C30.8058 8.89608 30.8199 8.47634 30.8058 8.05816C30.762 6.96181 31.2271 6.21631 32.2248 5.72452C35.8469 3.93904 39.4602 2.13423 43.0645 0.310117C43.4306 0.106028 43.8428 -0.00109863 44.2619 -0.00109863C44.681 -0.00109863 45.0932 0.106028 45.4593 0.310117C49.049 2.12379 52.6461 3.92074 56.2505 5.701C57.2419 6.18966 57.7149 6.91639 57.6992 8.01901C57.6663 10.3041 57.7086 12.5923 57.6428 14.8759C57.4862 20.4187 55.1557 24.9169 50.941 28.4628C49.97 29.2788 48.9551 30.0478 47.9135 30.7714C47.4703 31.0846 47.3325 31.3979 47.334 31.9163C47.3497 39.1062 47.3497 46.2972 47.334 53.4893C47.3532 53.8383 47.3092 54.188 47.204 54.5214C46.9378 55.2089 46.3567 55.4282 45.6488 55.4267C41.6998 55.4193 37.752 55.4193 33.8051 55.4267H22.5675C22.5675 56.1095 22.5221 56.7344 22.5769 57.35C22.6866 58.6155 22.2104 59.5035 21.0311 60H1.91548ZM32.5615 11.8609H32.5725C32.5725 12.6613 32.56 13.4616 32.5725 14.2619C32.6398 17.7217 33.4966 20.9356 35.5577 23.7673C37.7911 26.8339 40.8342 28.9452 44.0027 30.9029C44.0864 30.9392 44.1772 30.9561 44.2683 30.9523C44.3595 30.9485 44.4486 30.9241 44.529 30.881C47.1915 29.2412 49.7632 27.4651 51.8619 25.1017C54.0797 22.6036 55.4846 19.703 55.7258 16.3701C55.931 13.5509 55.8824 10.7129 55.9059 7.88429C55.9059 7.69792 55.6913 7.42696 55.5065 7.33299C51.8865 5.50261 48.2586 3.68841 44.6229 1.8904C44.5046 1.84 44.3772 1.81404 44.2486 1.81404C44.1199 1.81404 43.9926 1.84 43.8743 1.8904C40.2532 3.67745 36.6462 5.49272 33.0283 7.28603C32.8764 7.3439 32.7479 7.45041 32.6629 7.58895C32.5779 7.72749 32.5412 7.89027 32.5584 8.05189C32.5741 9.32052 32.5615 10.5907 32.5615 11.8609ZM17.9832 43.2071C17.9832 41.9008 18.0005 40.6526 17.9832 39.4043C17.9578 37.8719 17.3937 36.3973 16.3899 35.2392C15.386 34.081 14.0066 33.3132 12.4933 33.0703C10.98 32.8274 9.42951 33.125 8.11367 33.9109C6.79784 34.6967 5.80065 35.9207 5.29693 37.3682C4.63286 39.2665 5.04008 41.2321 4.90851 43.1899H6.70966C6.70966 41.8022 6.64544 40.4537 6.72218 39.1177C6.8788 36.2641 9.71364 34.2092 12.4999 34.8639C13.5589 35.0978 14.5062 35.6865 15.1847 36.5325C15.8632 37.3786 16.2322 38.431 16.2306 39.5155C16.2447 40.7403 16.2306 41.9651 16.2306 43.2133L17.9832 43.2071ZM14.4671 43.2071C14.4671 43.0019 14.4671 42.8656 14.4671 42.7372C14.4671 41.6252 14.4859 40.5132 14.4671 39.4012C14.4441 38.6921 14.1685 38.0147 13.6901 37.4909C13.2117 36.9671 12.5618 36.6314 11.8578 36.5444C10.2916 36.3721 8.76453 37.2852 8.56875 38.7888C8.38237 40.236 8.52803 41.727 8.52803 43.2149L14.4671 43.2071Z" fill="#5C00FF"/>
<path d="M26.5381 31.9805H16.8119C16.6367 31.9907 16.461 31.9907 16.2857 31.9805C15.7908 31.9178 15.5026 31.6343 15.4869 31.1331C15.4713 30.632 15.7673 30.339 16.2465 30.2451C16.4023 30.2253 16.5597 30.2207 16.7164 30.231H36.4601C36.6356 30.2193 36.8119 30.2298 36.9847 30.2623C37.4327 30.3782 37.6974 30.6805 37.6739 31.1519C37.6504 31.6234 37.37 31.9006 36.908 31.9758C36.7332 31.9941 36.5572 31.9983 36.3817 31.9883L26.5381 31.9805Z" fill="#5C00FF"/>
<path d="M34.049 36.2343C33.1907 36.2343 32.3261 36.2437 31.4741 36.2343C30.8476 36.2343 30.5015 35.9211 30.4858 35.3979C30.4702 34.8748 30.8335 34.4927 31.4741 34.488C33.2095 34.4712 34.9454 34.4712 36.6818 34.488C37.3083 34.488 37.6951 34.8717 37.6779 35.3964C37.6606 35.9211 37.2942 36.2264 36.6818 36.2343C35.8047 36.2484 34.926 36.2343 34.049 36.2343Z" fill="#5C00FF"/>
<path d="M18.859 25.9756C19.6577 25.9756 20.4565 25.9756 21.2553 25.9756C21.8818 25.9756 22.2263 26.2889 22.2451 26.8088C22.2639 27.3288 21.8896 27.7204 21.2631 27.7251C19.6656 27.7408 18.0686 27.7408 16.4721 27.7251C15.8456 27.7251 15.4697 27.3508 15.4838 26.8151C15.4979 26.2795 15.855 25.9787 16.5222 25.974C17.3069 25.9694 18.0806 25.9741 18.859 25.9756Z" fill="#5C00FF"/>
<path d="M35.3057 15.1656C35.2963 10.3636 38.6965 6.59216 43.45 6.12229C47.7305 5.69628 51.8449 8.52175 52.8786 13.0324C52.9433 13.2776 52.9576 13.5333 52.9209 13.7842C52.841 14.193 52.5419 14.4107 52.1221 14.4248C51.9245 14.4413 51.7275 14.3857 51.5677 14.2682C51.4079 14.1507 51.2961 13.9794 51.2529 13.7858C51.0774 13.2282 50.9506 12.6518 50.7235 12.1162C49.4329 9.0746 46.158 7.3518 42.8642 7.95636C41.248 8.26759 39.7887 9.12715 38.7329 10.3899C37.6771 11.6526 37.0895 13.2411 37.0695 14.8869C37.0494 16.5328 37.598 18.1351 38.6227 19.4232C39.6474 20.7113 41.0853 21.6062 42.6935 21.9567C46.0201 22.7069 49.4627 20.8917 50.8081 17.6762C50.8528 17.5469 50.9051 17.4204 50.9647 17.2972C51.2059 16.8587 51.5912 16.6989 52.0516 16.8602C52.157 16.889 52.2553 16.9394 52.34 17.0083C52.4248 17.0773 52.4941 17.1632 52.5437 17.2606C52.5933 17.3579 52.6219 17.4646 52.6278 17.5736C52.6337 17.6827 52.6167 17.7918 52.5779 17.894C52.4323 18.3587 52.2397 18.8074 52.0031 19.2331C51.1045 20.8863 49.7047 22.212 48.005 23.0192C46.3053 23.8265 44.3933 24.0739 42.5441 23.7257C40.6949 23.3775 39.0038 22.4518 37.7141 21.0816C36.4244 19.7114 35.6025 17.9675 35.3668 16.1007C35.3182 15.731 35.3182 15.3614 35.3057 15.1656Z" fill="#5C00FF"/>
<path d="M43.7754 16.0724C44.9611 14.879 46.0558 13.7638 47.1663 12.6644C47.6487 12.1835 48.2517 12.1945 48.5759 12.6894C48.8515 13.1029 48.7889 13.5133 48.4443 13.8594C47.124 15.1922 45.8006 16.5219 44.4646 17.8391C44.0025 18.2918 43.5499 18.2745 43.0738 17.8094C42.25 17.0043 41.4345 16.1894 40.6274 15.3645C40.1763 14.9025 40.1575 14.4029 40.5381 14.0239C40.9187 13.6448 41.4293 13.6871 41.8819 14.1382C42.499 14.7553 43.102 15.3896 43.7754 16.0724Z" fill="#5C00FF"/>
</svg>
