<svg width="47" height="60" viewBox="0 0 47 60" fill="none" xmlns="http://www.w3.org/2000/svg">
<g clip-path="url(#clip0)">
<path d="M14.2273 1.83366C14.4064 3.51778e-05 14.4063 6.10352e-05 16.1643 6.10352e-05H30.349C31.7135 6.10352e-05 31.8623 0.151369 31.9153 1.49064C31.9153 1.57388 31.933 1.65458 31.9531 1.83366H32.682C35.9835 1.83366 39.2825 1.83366 42.5816 1.83366C44.4152 1.83366 45.7141 2.82237 46.1126 4.47187C46.1799 4.80375 46.2086 5.14227 46.1984 5.48074C46.1984 22.4398 46.1984 39.3981 46.1984 56.3555C46.1984 58.5675 44.7859 60 42.579 60.0026C29.5932 60.0026 16.6065 60.0026 3.61901 60.0026C1.41715 60.0026 0.00976562 58.5624 0.00976562 56.3505C0.00976562 39.3914 0.00976562 22.4323 0.00976562 5.47317C0.00976562 3.25113 1.39194 1.85637 3.62659 1.84375C6.90541 1.82862 10.1842 1.84375 13.4631 1.84375L14.2273 1.83366ZM38.8512 52.6656V9.14544H7.32407V52.6656H38.8512ZM31.9506 7.33958H39.3557C40.4226 7.33958 40.6722 7.59179 40.6722 8.62588C40.6722 23.4849 40.6722 38.343 40.6722 53.2003C40.6722 54.2091 40.42 54.4613 39.4112 54.4613H6.81711C5.76536 54.4613 5.52327 54.2091 5.52327 53.1649C5.52327 38.3278 5.52327 23.4907 5.52327 8.65362C5.52327 7.57161 5.77545 7.33706 6.87259 7.33706H13.5564C13.7808 7.33706 14.0028 7.3194 14.2349 7.30679V3.6017H3.85356C2.30999 3.6017 1.77276 4.14145 1.77276 5.68755V56.131C1.77276 57.6569 2.34277 58.2345 3.85356 58.2345H42.3747C43.8426 58.2345 44.4253 57.6443 44.4253 56.1638C44.4253 39.3308 44.4253 22.497 44.4253 5.66233C44.4253 4.14902 43.8805 3.60928 42.3772 3.60928C39.1186 3.60928 35.8608 3.60928 32.6038 3.60928C32.3995 3.60928 32.1952 3.62693 31.9556 3.63702L31.9506 7.33958ZM16.0609 7.30427H30.1044V1.82359H16.0609V7.30427Z" fill="#5C00FF"/>
<path d="M28.7555 14.7396H23.7112C22.9545 14.7396 22.5813 14.437 22.5762 13.867C22.5712 13.297 22.9622 12.9741 23.6936 12.9741H33.8958C34.6171 12.9741 35.0383 13.302 35.0458 13.8493C35.0534 14.3966 34.6272 14.7371 33.9109 14.7396C32.1983 14.7447 30.4782 14.7396 28.7555 14.7396Z" fill="#5C00FF"/>
<path d="M28.8359 42.7357C30.5561 42.7357 32.2762 42.7357 33.9988 42.7357C34.816 42.7357 35.3179 43.394 34.9295 43.9968C34.8296 44.1341 34.7017 44.2487 34.5544 44.333C34.407 44.4173 34.2435 44.4695 34.0745 44.4861C30.5712 44.5189 27.0654 44.5113 23.5596 44.5038C22.9341 44.5038 22.5683 44.1431 22.5835 43.6009C22.5986 43.0586 22.9542 42.7484 23.5469 42.7458C25.3099 42.7282 27.0729 42.7357 28.8359 42.7357Z" fill="#5C00FF"/>
<path d="M28.8133 34.5714H23.7135C22.9569 34.5714 22.5811 34.2738 22.5811 33.7013C22.5811 33.1288 22.9745 32.8059 23.711 32.8059C27.1109 32.8059 30.51 32.8059 33.9082 32.8059C34.8086 32.8059 35.3483 33.4919 34.917 34.0998C34.799 34.2342 34.655 34.3435 34.4938 34.421C34.3326 34.4986 34.1574 34.5429 33.9787 34.5513C32.2536 34.5941 30.5335 34.5714 28.8133 34.5714Z" fill="#5C00FF"/>
<path d="M28.8558 22.9038H33.9002C34.6367 22.9038 35.0528 23.2216 35.0654 23.7639C35.078 24.3061 34.6417 24.6693 33.8749 24.6719C30.4952 24.6719 27.1172 24.6719 23.7409 24.6719C22.8606 24.6719 22.3108 24.0615 22.6841 23.4486C22.7979 23.2996 22.9418 23.1763 23.1065 23.0868C23.2712 22.9972 23.453 22.9435 23.6399 22.929C25.3651 22.8761 27.113 22.9038 28.8558 22.9038Z" fill="#5C00FF"/>
<path d="M14.3746 26.836L17.6156 23.5925C17.7644 23.4437 17.9056 23.2873 18.0645 23.1536C18.1479 23.0732 18.2464 23.0101 18.3543 22.9679C18.4622 22.9258 18.5775 22.9054 18.6933 22.908C18.8091 22.9106 18.9233 22.936 19.0292 22.983C19.1351 23.0299 19.2307 23.0973 19.3105 23.1814C19.3905 23.2587 19.4541 23.3514 19.4975 23.4539C19.541 23.5564 19.5634 23.6665 19.5634 23.7779C19.5634 23.8892 19.541 23.9993 19.4975 24.1018C19.4541 24.2043 19.3905 24.297 19.3105 24.3743C19.149 24.5686 18.9599 24.7375 18.7833 24.9166C17.5794 26.1189 16.3764 27.3219 15.1741 28.5259C14.531 29.164 14.1476 29.1665 13.5196 28.546C12.8915 27.9256 12.2408 27.2698 11.6052 26.6292C11.0402 26.0617 10.9772 25.5749 11.4034 25.1613C11.8297 24.7476 12.3291 24.8561 12.8814 25.4135L14.2207 26.7452C14.2693 26.7799 14.3207 26.8102 14.3746 26.836Z" fill="#5C00FF"/>
<path d="M14.3031 36.8338L17.6248 33.5071C17.7669 33.3524 17.9167 33.2051 18.0738 33.0657C18.1523 32.9868 18.2456 32.9241 18.3484 32.8814C18.4512 32.8387 18.5615 32.8167 18.6728 32.8167C18.7841 32.8167 18.8943 32.8387 18.9971 32.8814C19.0999 32.9241 19.1933 32.9868 19.2718 33.0657C19.6426 33.386 19.6602 33.8803 19.3172 34.3041C19.1583 34.4983 18.9691 34.6698 18.7926 34.8463C17.5886 36.0519 16.3848 37.255 15.1808 38.4556C14.5528 39.0811 14.1493 39.0786 13.5263 38.4556C12.8529 37.7897 12.182 37.1239 11.5212 36.4378C11.0394 35.946 11.0167 35.4441 11.4177 35.0582C11.8187 34.6723 12.2854 34.7203 12.752 35.1843C13.2589 35.714 13.7633 36.2588 14.3031 36.8338Z" fill="#5C00FF"/>
<path d="M14.3357 16.9566L17.6448 13.645C17.7886 13.4919 17.9401 13.3463 18.0988 13.2087C18.1768 13.1287 18.2706 13.0658 18.3741 13.0239C18.4777 12.9821 18.5888 12.9622 18.7005 12.9655C18.8122 12.9688 18.9219 12.9953 19.0228 13.0432C19.1238 13.0912 19.2136 13.1595 19.2867 13.244C19.3734 13.3148 19.4441 13.4032 19.494 13.5034C19.544 13.6036 19.572 13.7133 19.5763 13.8252C19.5806 13.937 19.561 14.0486 19.5189 14.1523C19.4768 14.256 19.4132 14.3496 19.3321 14.4269C18.9286 14.8809 18.4847 15.2996 18.0534 15.7308C17.0748 16.712 16.1012 17.6981 15.1126 18.6692C14.5678 19.2064 14.1289 19.2064 13.5992 18.6692C12.893 17.9781 12.1952 17.2803 11.5058 16.5758C11.0468 16.1066 11.0215 15.6375 11.4049 15.2466C11.7883 14.8556 12.2826 14.8809 12.7391 15.3197C13.2587 15.8393 13.7632 16.379 14.3357 16.9566Z" fill="#5C00FF"/>
<path d="M14.3053 46.7535L17.4909 43.5629C17.6523 43.399 17.8112 43.23 17.9802 43.0736C18.4493 42.6474 18.9436 42.6322 19.3119 43.0232C19.6801 43.4141 19.6523 43.8757 19.2311 44.3095C18.4568 45.109 17.6624 45.8884 16.8755 46.6753C16.2802 47.268 15.6951 47.8683 15.0898 48.4534C14.5677 48.9578 14.1237 48.9578 13.6168 48.4534C12.8954 47.7506 12.1834 47.0376 11.4805 46.3146C11.0341 45.8556 11.024 45.3663 11.42 44.988C11.816 44.6096 12.2826 44.6424 12.7088 45.0611C13.2587 45.5983 13.7479 46.1633 14.3053 46.7535Z" fill="#5C00FF"/>
<path d="M26.1228 28.9899C25.2829 28.9899 24.4456 28.9899 23.6006 28.9899C22.9524 28.9899 22.5917 28.6646 22.5766 28.1324C22.5615 27.6002 22.9424 27.232 23.6158 27.2269C25.2972 27.2269 26.9736 27.2269 28.645 27.2269C29.2932 27.2269 29.6538 27.5498 29.6538 28.087C29.6538 28.6242 29.3032 28.9824 28.6172 28.9899C27.8 29.0025 26.9602 28.9899 26.1228 28.9899Z" fill="#5C00FF"/>
<path d="M26.185 19.0702C25.3275 19.0702 24.4674 19.0702 23.6099 19.0702C22.9415 19.0702 22.601 18.7574 22.5808 18.2202C22.5607 17.683 22.9466 17.3147 23.62 17.3122C25.3014 17.2988 26.9778 17.2988 28.6492 17.3122C29.3024 17.3122 29.6581 17.6376 29.6732 18.1698C29.6883 18.7019 29.3276 19.0601 28.6366 19.0727C27.8194 19.0803 27.0022 19.0702 26.185 19.0702Z" fill="#5C00FF"/>
<path d="M26.1343 37.1642C26.9944 37.1642 27.8544 37.1642 28.712 37.1642C29.3223 37.1642 29.6628 37.487 29.6754 38.0066C29.6833 38.1284 29.665 38.2505 29.6218 38.3647C29.5787 38.4789 29.5116 38.5825 29.4252 38.6687C29.3388 38.7549 29.2349 38.8216 29.1206 38.8645C29.0063 38.9073 28.8842 38.9253 28.7624 38.9171C26.9969 38.9373 25.2314 38.9398 23.4835 38.9171C23.3616 38.9239 23.2397 38.9046 23.1259 38.8605C23.012 38.8164 22.9089 38.7485 22.8235 38.6614C22.738 38.5742 22.6721 38.4699 22.6302 38.3552C22.5883 38.2405 22.5714 38.1182 22.5805 37.9965C22.6007 37.4921 22.9412 37.1743 23.5592 37.1667C24.4167 37.1541 25.2768 37.1642 26.1343 37.1642Z" fill="#5C00FF"/>
<path d="M26.1625 47.0637C26.9797 47.0637 27.7969 47.0637 28.6141 47.0637C29.3026 47.0637 29.676 47.3991 29.676 47.9515C29.676 48.5039 29.3128 48.8216 28.6116 48.8267C26.9554 48.8368 25.3 48.8368 23.6454 48.8267C22.9392 48.8267 22.5811 48.5089 22.5811 47.949C22.5811 47.3891 22.9594 47.0738 23.6479 47.0637C24.4853 47.0536 25.3252 47.0637 26.1625 47.0637Z" fill="#5C00FF"/>
<path d="M23.0956 5.44037C21.7967 5.44037 20.4952 5.44037 19.1938 5.44037C18.5027 5.44037 18.1017 5.12258 18.079 4.59797C18.0563 4.07336 18.48 3.67989 19.1887 3.67737C21.7916 3.67737 24.3936 3.67737 26.9948 3.67737C27.7061 3.67737 28.1323 4.04308 28.1122 4.59292C28.092 5.14275 27.6859 5.43784 26.9999 5.44037C25.6985 5.44541 24.397 5.44037 23.0956 5.44037Z" fill="#5C00FF"/>
</g>
<defs>
<clipPath id="clip0">
<rect width="46.1936" height="60" fill="white"/>
</clipPath>
</defs>
</svg>
