<svg width="62" height="61" viewBox="0 0 62 61" fill="none" xmlns="http://www.w3.org/2000/svg">
<path d="M61.6746 55.1423C61.3993 56.2964 61.004 57.3832 60.1716 58.2844C59.072 59.4625 57.737 60.1283 56.1172 60.1956C55.8579 60.2068 55.5986 60.2132 55.3393 60.2132C39.1066 60.2132 22.8744 60.2169 6.64276 60.2244C4.30101 60.2244 2.44906 59.3984 1.17975 57.4008C0.64404 56.5518 0.352723 55.5715 0.337808 54.5677C0.3202 53.889 0.321801 53.2087 0.337808 52.5301C0.353814 51.8514 0.657939 51.5377 1.32061 51.5136C1.8008 51.4976 2.27139 51.5136 2.83322 51.5136V50.7005C2.83322 40.2984 2.83322 29.8942 2.83322 19.4879C2.83322 17.247 4.0353 15.5887 6.04892 15.0781C6.51688 14.9796 6.99368 14.9292 7.4719 14.9276C8.02572 14.902 8.58115 14.9276 9.08535 14.9276C9.01012 14.2874 8.85326 13.6871 8.89167 13.1061C8.98131 11.6991 9.73361 10.7051 10.9725 10.0409C15.4159 7.69325 19.8566 5.34242 24.2947 2.9884C25.5283 2.33534 26.7613 1.68067 27.9938 1.0244C29.9722 -0.0272231 31.9586 -0.046423 33.9482 0.992398C34.6909 1.37975 35.432 1.77031 36.1667 2.17207C36.7446 2.4922 36.9302 2.9724 36.6837 3.45259C36.4372 3.93279 35.9202 4.05444 35.3408 3.75832C34.5949 3.37737 33.8602 2.97559 33.1191 2.58664C31.7062 1.83967 30.2934 1.83967 28.8806 2.58664C23.1897 5.60012 17.4984 8.61468 11.8065 11.6303C11.0894 12.0097 10.654 12.5619 10.662 13.3782C10.67 14.1689 11.099 14.7099 11.7936 15.0765C17.5048 18.0953 23.2137 21.1173 28.9206 24.1426C30.2235 24.8325 31.5568 24.9013 32.8806 24.2338C34.3388 23.4991 35.7762 22.7196 37.2968 21.9209C37.1367 21.7224 37.0007 21.5607 36.8646 21.4055L30.6221 14.2906C30.4828 14.1477 30.3584 13.9911 30.2507 13.8232C30.0138 13.4102 30.0554 13.002 30.4108 12.6867C30.7661 12.3714 31.1839 12.3874 31.5616 12.6739C31.7122 12.8048 31.8489 12.9507 31.9698 13.1093L38.923 21.0357C39.7362 20.6115 40.5429 20.1954 41.3464 19.7696C44.2532 18.2282 47.1536 16.6755 50.0683 15.1485C50.819 14.7564 51.3313 14.2249 51.3329 13.3494C51.3345 12.4738 50.803 11.9408 50.0603 11.5503C46.3191 9.58147 42.5842 7.60734 38.8558 5.62787C38.2011 5.28053 37.9786 4.79393 38.238 4.28652C38.4973 3.77912 39.0383 3.6911 39.6929 4.04004C43.4673 6.03338 47.2389 8.02937 51.0079 10.028C52.8791 11.0237 53.4521 12.5379 52.8439 14.9276H54.5678C57.3897 14.9372 59.1696 16.7108 59.1712 19.5295C59.1712 29.9113 59.1712 40.2936 59.1712 50.6765V51.4416C60.0404 51.6689 61.02 51.1775 61.6698 52.0307L61.6746 55.1423ZM4.62435 51.4608H57.3529C57.3625 51.2591 57.3769 51.1007 57.3769 50.9438C57.3769 40.4201 57.3769 29.8969 57.3769 19.3742C57.3769 17.7448 56.3541 16.7364 54.7118 16.7204C53.5914 16.7108 52.4709 16.7204 51.3585 16.7204C51.2 16.7023 51.0394 16.7187 50.8879 16.7684C49.4809 17.4951 48.0803 18.2362 46.6782 18.9741L46.7086 19.1149H53.681C54.739 19.1149 54.9823 19.363 54.9823 20.4243C54.9823 29.549 54.9823 38.6727 54.9823 47.7953C54.9823 48.8534 54.7358 49.1031 53.6794 49.1031H16.6596C16.4602 49.1105 16.2605 49.096 16.0642 49.0598C15.8523 49.0296 15.6606 48.9178 15.53 48.7482C15.3993 48.5787 15.34 48.3649 15.3647 48.1523C15.3617 47.9384 15.4429 47.7318 15.5908 47.5773C15.7388 47.4228 15.9416 47.3326 16.1554 47.3264C16.3945 47.3079 16.6344 47.3015 16.8741 47.3071H53.1352V20.9509H45.1432C45.1432 21.9401 45.1432 22.8925 45.1432 23.8465C45.1608 27.688 43.4801 30.4523 39.9747 32.0786C39.845 32.1394 39.6545 32.2691 39.6545 32.3619C39.6737 33.0246 39.4849 33.7 39.8882 34.3387C40.4517 35.2335 40.9687 36.157 41.4729 37.0854C41.7569 37.5842 41.8738 38.1608 41.8064 38.7308C41.739 39.3008 41.4908 39.8343 41.0983 40.2531C40.4228 40.999 39.5505 41.1479 38.5933 41.1351C36.1555 41.103 34.9118 38.9662 36.1267 36.8405C36.5909 36.0258 37.0999 35.2399 37.5145 34.3947C37.7337 33.9497 37.7946 33.4343 37.9562 32.8357C37.5993 32.9189 37.444 32.9493 37.292 32.9957C32.5509 34.2763 27.8786 34.0602 23.2063 32.5412C18.678 31.067 16.6628 27.4191 16.8517 23.6816C16.8981 22.7884 16.8517 21.8921 16.8517 20.9605H8.84845V47.3215H9.53033C10.5691 47.3215 11.6112 47.3104 12.6452 47.336C13.199 47.3488 13.5175 47.6929 13.5255 48.1939C13.5336 48.6949 13.2214 49.0342 12.6852 49.1063C12.566 49.1172 12.4463 49.1209 12.3267 49.1175C10.9677 49.1175 9.60556 49.1175 8.25301 49.1175C7.27982 49.1175 7.01572 48.8454 7.01572 47.8642C7.01572 38.6989 7.01572 29.5335 7.01572 20.3682C7.01572 19.3886 7.27662 19.1277 8.25941 19.1261C10.3936 19.1261 12.5278 19.1261 14.662 19.1261H15.2815C14.9133 18.782 14.4939 18.6043 14.1274 18.3498C12.1458 16.9781 9.97531 16.5667 7.57274 16.6836C5.78962 16.7716 4.57792 17.7832 4.58753 19.6848C4.63555 30.0282 4.60994 40.3715 4.60994 50.7149L4.62435 51.4608ZM59.8227 53.3304C59.6946 53.3192 59.5954 53.3048 59.5026 53.3048C52.6347 53.3048 45.7674 53.3016 38.9006 53.2952C38.5357 53.2952 38.398 53.4168 38.286 53.7658C37.7289 55.5057 36.2772 56.6773 34.4796 56.7221C32.1651 56.7798 29.85 56.7798 27.5344 56.7221C26.6884 56.7015 25.8701 56.4158 25.1952 55.9051C24.5203 55.3945 24.0228 54.6848 23.7729 53.8762C23.6128 53.396 23.3983 53.292 22.9326 53.292C16.2258 53.3058 9.51859 53.3096 2.81081 53.3032C2.59953 53.3032 2.38664 53.3224 2.18655 53.332C1.71916 56.5157 3.94727 58.4445 6.54352 58.4381C22.8525 58.3916 39.1615 58.4156 55.4705 58.4092C55.9088 58.4214 56.3471 58.3833 56.7767 58.2956C58.9535 57.7786 60.1236 55.8706 59.8227 53.3304ZM18.6604 20.7396C18.6604 22.0377 18.6204 23.2318 18.6684 24.4211C18.7837 27.2126 20.0946 29.2839 22.6701 30.3675C27.4416 32.3731 32.3412 32.5604 37.3128 31.1182C37.7033 31.0045 37.8458 30.8509 37.841 30.4251C37.8154 28.3443 37.8298 26.273 37.8266 24.1954C37.8266 24.0497 37.801 23.9041 37.7786 23.6896C36.5701 24.3298 35.4144 24.9077 34.2908 25.5431C32.0579 26.806 29.8794 26.7484 27.6385 25.5127C24.7109 23.9009 21.7321 22.3707 18.6604 20.7428V20.7396ZM43.4705 20.6836C42.1147 21.4023 40.9559 22.0073 39.8114 22.6396C39.7025 22.7004 39.6433 22.9357 39.6433 23.0909C39.6321 25.3863 39.6433 27.68 39.6433 29.9737C39.6509 30.0619 39.6637 30.1496 39.6817 30.2362C41.4601 29.3031 42.723 27.9585 43.0751 26.0745C43.3808 24.3699 43.3376 22.5979 43.4641 20.6868L43.4705 20.6836ZM36.5397 53.3464H25.4776C25.8922 54.2764 26.5292 54.8846 27.48 54.9054C29.8276 54.9598 32.18 54.9598 34.5373 54.9054C35.4848 54.8894 36.1171 54.278 36.5333 53.3496L36.5397 53.3464ZM38.7406 35.9089C38.3612 36.5668 38.0187 37.1478 37.6873 37.7369C37.1783 38.638 37.5673 39.3183 38.5965 39.3279C38.7758 39.3279 38.955 39.3375 39.1343 39.3279C39.8338 39.2703 40.2356 38.6252 39.9186 37.993C39.5665 37.3031 39.1535 36.6468 38.7342 35.9121L38.7406 35.9089Z" fill="white"/>
<path d="M21.4005 43.1214H29.8471C30.0667 43.1147 30.2865 43.1233 30.505 43.147C30.7077 43.1608 30.8975 43.2512 31.036 43.3998C31.1745 43.5485 31.2513 43.7442 31.2509 43.9473C31.2827 44.159 31.2298 44.3747 31.1036 44.5476C30.9775 44.7204 30.7883 44.8366 30.577 44.8709C30.3617 44.9111 30.1427 44.9271 29.9239 44.9189H12.6097C11.907 44.9013 11.4893 44.5716 11.4893 44.0242C11.4893 43.4768 11.8974 43.1278 12.5953 43.1262C15.5298 43.1187 18.4649 43.1171 21.4005 43.1214Z" fill="white"/>
<path d="M18.3995 41.1286C16.4873 41.1286 14.574 41.1286 12.6596 41.1286C11.9121 41.1286 11.4879 40.8085 11.4863 40.2387C11.4847 39.6688 11.9121 39.3343 12.6532 39.3343C16.4948 39.3343 20.3417 39.3343 24.1939 39.3343C25.0822 39.3343 25.6153 40.0514 25.1543 40.6693C25.0315 40.8027 24.8833 40.9103 24.7184 40.9856C24.5535 41.0609 24.3751 41.1025 24.1939 41.1078C22.2667 41.1494 20.3331 41.1286 18.3995 41.1286Z" fill="white"/>
</svg>
