<svg width="62" height="61" viewBox="0 0 62 61" fill="none" xmlns="http://www.w3.org/2000/svg">
<g clip-path="url(#clip0)">
<path d="M61.4895 11.8934C61.3495 12.5108 61.2381 13.1345 61.0663 13.7423C60.5029 15.7645 59.3308 17.5643 57.7091 18.8974C57.3527 19.1917 57.3177 19.4193 57.4529 19.8393C59.4943 26.1814 58.4839 31.9507 54.0384 36.9801C52.2882 38.9563 50.3646 40.7717 48.5205 42.6587C46.8563 44.3633 45.192 46.0674 43.5277 47.7709C43.4068 47.895 43.297 48.0302 43.087 48.2689C44.3837 48.0175 45.5452 47.7916 46.7035 47.5673C47.8889 47.3318 49.0631 47.0167 50.258 46.8735C50.9669 46.7986 51.6836 46.863 52.3678 47.0629C54.2262 47.5959 55.1188 49.4256 54.4855 51.2586C53.9875 52.7017 52.9279 53.5863 51.5245 54.0525C49.0058 54.891 46.4728 55.6898 43.9446 56.4965C40.5842 57.5678 37.2227 58.6343 33.8602 59.6961C31.3988 60.4678 28.9485 60.3437 26.476 59.6516C21.3065 58.2037 16.1196 56.8131 10.939 55.4018C10.8466 55.382 10.7531 55.3682 10.659 55.3604C10.2103 56.4742 9.93979 56.6651 8.74966 56.6651C6.54547 56.6651 4.34234 56.6651 2.14027 56.6651C0.97559 56.6651 0.507812 56.1989 0.507812 55.0485C0.507812 50.0462 0.507812 45.0443 0.507812 40.043C0.507812 38.9165 0.969229 38.4519 2.0989 38.4519C4.38159 38.4519 6.66215 38.4519 8.94059 38.4519C9.94775 38.4519 10.3264 38.7431 10.624 39.7836L14.468 39.1583C13.8523 38.5219 13.3097 37.9682 12.7608 37.4081C11.3169 35.9808 10.168 34.2832 9.37973 32.4121C7.45345 27.7821 7.47837 23.1583 9.45451 18.541C9.52452 18.3819 9.60407 18.2228 9.68522 18.0637C10.0178 17.3986 10.4903 17.1758 11.0074 17.4399C11.4991 17.6898 11.5643 18.1687 11.3097 18.8337C10.8801 19.9602 10.3678 21.0788 10.1307 22.2498C9.06628 27.5211 10.2739 32.1973 14.0193 36.14C14.756 36.9181 15.5229 37.6675 16.2612 38.4439C16.3552 38.5662 16.4827 38.6585 16.6281 38.7096C16.7736 38.7607 16.9308 38.7685 17.0806 38.7319C19.3622 38.3151 21.655 37.9555 23.935 37.537C26.4585 37.0756 28.9501 37.2363 31.437 37.7773C32.4044 37.9873 33.3877 38.1305 34.3582 38.3326C35.4993 38.5506 36.5376 39.1363 37.3145 40C39.3829 42.3103 38.3121 45.607 35.2652 46.1591C34.2723 46.3389 33.2127 46.2371 32.1928 46.1591C30.7719 46.0398 29.3575 45.8186 27.943 45.6325C27.0472 45.5147 26.5253 45.8377 26.3964 46.6062C26.2835 47.2793 26.7481 47.8377 27.5627 47.9825C30.3742 48.4774 33.1729 49.0851 36.0034 49.4018C37.2572 49.5418 38.5794 49.0947 39.8666 48.8878C40.0146 48.864 40.1435 48.6746 40.266 48.5474C44.3742 44.3469 48.4808 40.1448 52.5858 35.9411C56.7799 31.6293 57.5929 25.1345 55.6948 20.2816C52.6224 21.7136 49.5038 21.8536 46.4092 20.3898C43.3145 18.926 41.4068 16.4519 40.5412 13.1106C38.8458 13.7584 37.2874 14.7198 35.9477 15.9443C35.55 16.3023 35.1729 16.6826 34.7894 17.0581C33.4163 18.3962 32.9947 18.3978 31.6438 17.0724C31.2747 16.7112 30.9119 16.3453 30.5301 15.9984C28.0178 13.7327 25.1108 12.3389 21.7011 12.1909C18.7226 12.0541 16.1228 13.0072 13.97 15.1042C13.8555 15.214 13.752 15.3365 13.6311 15.4384C13.2158 15.7836 12.7528 15.7773 12.398 15.4384C12.3144 15.3594 12.2474 15.2645 12.2009 15.1593C12.1544 15.0541 12.1294 14.9407 12.1273 14.8257C12.1252 14.7107 12.1461 14.5964 12.1888 14.4896C12.2314 14.3828 12.295 14.2856 12.3758 14.2037C12.8359 13.7107 13.3361 13.2567 13.8714 12.8465C17.7664 9.97137 21.9939 9.78682 26.4092 11.3875C28.6812 12.2132 30.6319 13.5609 32.3392 15.2633C32.5885 15.5316 32.8233 15.8131 33.0424 16.1066C34.3153 15.0597 35.41 14.0382 36.6255 13.1965C37.6104 12.5124 38.7274 12.0143 39.8077 11.4861C40.153 11.3174 40.3153 11.1806 40.3137 10.7653C40.3058 9.25208 40.6374 7.75631 41.2843 6.38824C41.6025 5.70089 42.0575 5.4654 42.5762 5.70566C43.0949 5.94591 43.2127 6.43916 42.9104 7.12651C40.5842 12.4169 43.5357 18.2482 49.1458 19.4495C53.8189 20.4503 58.4426 17.4193 59.5007 12.6587C60.5269 8.04457 57.5388 3.3063 52.9247 2.26572C50.2787 1.67066 47.8539 2.1814 45.6423 3.75976C45.3718 3.95228 44.9867 4.13525 44.6876 4.09229C44.5333 4.04867 44.3922 3.96783 44.2765 3.85685C44.1608 3.74588 44.0741 3.60817 44.0241 3.45586C44.0077 3.28727 44.0287 3.11716 44.0856 2.95763C44.1426 2.79811 44.234 2.65312 44.3535 2.53304C45.4514 1.61075 46.7447 0.950229 48.1355 0.601449C49.5815 0.211136 51.0938 0.131973 52.5726 0.369176C54.0514 0.606378 55.4631 1.15455 56.7145 1.97751C57.9659 2.80048 59.0284 3.87951 59.8321 5.14338C60.6357 6.40724 61.1621 7.82719 61.3765 9.30948C61.4058 9.46142 61.443 9.61171 61.4879 9.75975L61.4895 11.8934ZM10.5651 53.405C10.7242 53.4654 10.8483 53.5275 10.9804 53.5641C16.4834 55.0671 21.9865 56.5686 27.4895 58.0684C29.2859 58.5569 31.1077 58.6571 32.8992 58.0987C38.9655 56.1978 45.0217 54.2647 51.0679 52.2992C51.658 52.0739 52.1691 51.6805 52.538 51.1679C53.3622 50.0541 52.834 48.9022 51.4656 48.6731C51.0977 48.6088 50.722 48.6018 50.3519 48.6524C49.7266 48.7447 49.114 48.9165 48.4919 49.039C45.4991 49.6309 42.5094 50.2466 39.507 50.7892C38.2692 51.0151 36.9613 51.3254 35.752 51.1727C32.7672 50.7972 29.8061 50.218 26.8515 49.6341C25.2795 49.3159 24.3821 47.7741 24.6844 46.1814C24.9867 44.5887 26.3137 43.6357 27.9509 43.8345C29.3479 43.9937 30.7401 44.2291 32.1403 44.3516C33.1188 44.4376 34.1403 44.5489 35.087 44.366C36.6621 44.0589 37.1442 42.4153 36.0146 41.2697C35.4581 40.7441 34.7895 40.3518 34.0591 40.1225C33.1665 39.8234 32.1975 39.755 31.2652 39.5625C29.1188 39.117 26.9692 38.8481 24.7735 39.2252C20.223 40.009 15.6693 40.7733 11.1124 41.5179C10.6733 41.5895 10.5667 41.7391 10.5699 42.1544C10.5858 44.6142 10.5778 47.0756 10.5778 49.5354L10.5651 53.405ZM2.34393 40.2689V54.8369H8.74806V40.2689H2.34393Z" fill="white"/>
<path d="M29.0958 29.249C30.2351 27.2586 31.3106 25.3859 32.3814 23.5084C32.6122 23.1042 32.8317 22.7128 33.3918 22.7224C33.92 22.7383 34.1221 23.1281 34.3353 23.5179C35.6952 26.0043 37.0577 28.4901 38.4228 30.9754C38.5247 31.1631 38.6408 31.3445 38.7872 31.5911C39.5191 30.3612 40.2351 29.2045 40.9065 28.0159C41.2247 27.4702 41.6098 27.2395 42.2478 27.2474C44.5501 27.2777 46.8508 27.2554 49.1531 27.2617C49.8993 27.2617 50.3417 27.7391 50.1714 28.3755C50.0298 28.9022 49.6257 29.0533 49.1181 29.0517C47.0497 29.0517 44.9908 29.0629 42.9272 29.039C42.7557 29.0223 42.5832 29.0592 42.4336 29.1447C42.2839 29.2302 42.1645 29.3601 42.0919 29.5163C41.3202 30.856 40.5151 32.1766 39.7275 33.5068C39.4904 33.9061 39.2661 34.3023 38.7092 34.2896C38.1842 34.2721 37.9837 33.8823 37.7705 33.494C36.4276 31.0427 35.0826 28.593 33.7355 26.1448C33.6225 25.938 33.5016 25.7343 33.3504 25.4718C33.2231 25.6722 33.1197 25.8234 33.0322 25.9825C32.0362 27.7184 31.0465 29.459 30.0473 31.1933C29.5191 32.1082 28.7999 32.1209 28.2319 31.2315C27.5859 30.2164 26.9463 29.1949 26.2446 28.0843C25.7386 28.9165 25.2581 29.6579 24.8333 30.4296C24.5294 30.9833 24.1221 31.2077 23.4889 31.1949C21.8818 31.1647 20.2733 31.1854 18.6663 31.1854C17.8134 31.1854 17.4013 30.8847 17.4093 30.2769C17.4172 29.6691 17.815 29.3986 18.6933 29.3986C20.0823 29.3986 21.4713 29.3859 22.8604 29.4065C23.014 29.4255 23.1697 29.3958 23.3056 29.3216C23.4415 29.2473 23.5506 29.1324 23.6177 28.9928C24.1682 28.0286 24.749 27.0835 25.3266 26.1289C25.8628 25.2506 26.5597 25.2426 27.1149 26.1082C27.7577 27.1233 28.3942 28.1432 29.0958 29.249Z" fill="white"/>
<path d="M51.8007 11.6945C51.8007 12.4901 51.8007 13.1758 51.8007 13.8664C51.8082 14.0647 51.7981 14.2633 51.7705 14.4598C51.6782 14.9547 51.3679 15.2427 50.862 15.2172C50.7519 15.2201 50.6424 15.2004 50.5402 15.1595C50.4381 15.1186 50.3453 15.0572 50.2677 14.9791C50.1901 14.901 50.1292 14.8079 50.0889 14.7055C50.0485 14.6031 50.0295 14.4935 50.033 14.3835C49.9964 13.7301 49.9964 13.0751 50.033 12.4217C50.0728 11.8616 49.9168 11.6357 49.3234 11.685C48.7097 11.7184 48.0946 11.7184 47.4809 11.685C46.8636 11.6707 46.4944 11.3318 46.4912 10.8099C46.488 10.288 46.8556 9.93002 47.4698 9.91252C48.2971 9.88865 49.1245 9.91252 50.0155 9.91252C50.0155 9.07083 50.0155 8.30233 50.0155 7.52588C50.0155 6.78921 50.3083 6.41211 50.8667 6.39938C51.457 6.38188 51.788 6.7701 51.7975 7.51314C51.8071 8.25618 51.7975 9.05013 51.7975 9.89978C52.5931 9.89978 53.3138 9.89978 54.0394 9.89978C54.2769 9.89112 54.5142 9.92013 54.7426 9.9857C54.9365 10.0433 55.1012 10.1726 55.2032 10.3473C55.3051 10.5219 55.3367 10.7289 55.2916 10.926C55.2771 11.127 55.1869 11.3149 55.0392 11.4519C54.8916 11.5889 54.6974 11.6648 54.496 11.6643C53.8596 11.6914 53.2231 11.6786 52.5867 11.6818L51.8007 11.6945Z" fill="white"/>
</g>
<defs>
<clipPath id="clip0">
<rect width="60.9785" height="60" fill="white" transform="translate(0.510742 0.224365)"/>
</clipPath>
</defs>
</svg>
