<svg width="54" height="61" viewBox="0 0 54 61" fill="none" xmlns="http://www.w3.org/2000/svg">
<g clip-path="url(#clip0)">
<path d="M1.27793 0.224365H41.5108C42.1467 0.591553 42.4076 1.13062 42.3529 1.87281C42.3061 2.51344 42.3436 3.16187 42.3436 3.80562V5.26343H45.7717C46.9842 5.26343 47.3717 5.65561 47.3717 6.88374C47.3717 12.0014 47.3717 17.1186 47.3717 22.2353V22.9556C48.6686 23.1431 50.3514 22.465 50.6342 24.7119C51.1029 24.2087 51.4654 23.8041 51.8467 23.4166C52.392 22.8619 52.9092 22.7916 53.3076 23.2134C53.7061 23.6353 53.6311 24.1025 53.1014 24.6384C52.3873 25.3587 51.6483 26.0556 50.9654 26.8056C50.7467 27.0592 50.6153 27.3764 50.5904 27.7103C50.542 28.6853 50.5904 29.6634 50.5608 30.64C50.5389 31.3431 49.9576 31.7431 49.3639 31.4962C48.9483 31.3244 48.8186 30.9681 48.8201 30.5462V29.0884C47.3686 30.3728 46.0795 31.6775 44.7826 32.9728C44.2123 33.5431 43.8045 33.54 43.2326 32.9728C42.442 32.1915 41.6592 31.4009 40.8748 30.6134C40.4608 30.1994 40.0373 29.7931 39.6389 29.3634C39.2701 28.9666 39.2748 28.4431 39.617 28.1041C39.9592 27.765 40.4701 27.7775 40.8779 28.1353C41.0248 28.2634 41.1561 28.4087 41.2936 28.5478L44.0217 31.2915C45.442 29.854 46.7811 28.4056 48.2264 27.0728C48.9951 26.3681 48.8061 25.6103 48.7779 24.7931H37.6842V35.9134H48.8248C48.8248 35.6009 48.8248 35.3087 48.8248 35.0212C48.8389 34.3119 49.1373 33.9275 49.6842 33.9275C50.2561 33.9181 50.5639 34.3009 50.5764 35.0478C50.5764 35.3806 50.5764 35.7119 50.5764 36.0447C50.5483 37.1384 49.9936 37.6916 48.9029 37.7041C48.4061 37.7041 47.9092 37.7041 47.4076 37.7041V39.4462C48.6795 39.6166 50.3451 38.9525 50.6404 41.1509C51.1295 40.6431 51.5264 40.2134 51.942 39.8056C52.3983 39.3556 52.9123 39.3103 53.2858 39.6634C53.6858 40.0431 53.6529 40.5619 53.1764 41.0494C52.467 41.7744 51.7576 42.5009 51.0233 43.1994C50.8717 43.332 50.7521 43.4971 50.6733 43.6824C50.5946 43.8678 50.5588 44.0685 50.5686 44.2697C50.5904 46.9462 50.5811 49.6212 50.5779 52.2962C50.5779 53.7025 50.0858 54.1853 48.667 54.19H47.3717C47.3717 55.7025 47.3389 57.1072 47.3858 58.5103C47.4108 59.2666 47.2029 59.8369 46.5404 60.2181H6.30606C5.66856 59.8212 5.43418 59.2603 5.47168 58.4994C5.52637 57.4056 5.48574 56.3228 5.48574 55.2587C5.39512 55.2181 5.36231 55.19 5.32949 55.19C4.27845 55.1837 3.22637 55.1796 2.17324 55.1775C0.829493 55.1775 0.454493 54.8134 0.454493 53.4884C0.454493 36.3009 0.449805 19.1134 0.44043 1.92593C0.443555 1.18687 0.635742 0.62124 1.27793 0.224365ZM2.25449 2.00875V53.3978H5.48574V52.6166C5.48574 37.3634 5.48574 22.1098 5.48574 6.85561C5.48574 5.67123 5.89043 5.2603 7.04824 5.25874H11.7264C12.8951 5.25874 14.0701 5.2478 15.2342 5.25874C15.9061 5.26811 16.3123 5.79623 16.1232 6.38842C15.967 6.90405 15.5482 7.01342 15.0592 7.01342C12.6607 7.01342 10.2639 7.01342 7.87168 7.01342H7.27012V58.4197H45.5904V54.2353C45.3904 54.2105 45.1921 54.1735 44.9967 54.1244C44.8041 54.0764 44.6363 53.9585 44.526 53.7935C44.4156 53.6286 44.3706 53.4285 44.3998 53.2322C44.3991 53.0439 44.4674 52.8619 44.5918 52.7206C44.7162 52.5792 44.888 52.4883 45.0748 52.465C45.3067 52.4334 45.5409 52.4214 45.7748 52.4291C46.7639 52.4291 47.7545 52.4291 48.7545 52.4291V45.5884L48.5983 45.4978C48.482 45.6786 48.3531 45.851 48.2123 46.0134C47.0592 47.177 45.9014 48.3369 44.7389 49.4931C44.2701 49.9619 43.8139 50.0181 43.3998 49.6134C42.1165 48.3634 40.8493 47.0926 39.5983 45.8009C39.4463 45.6357 39.3644 45.4179 39.3699 45.1935C39.3754 44.9691 39.4679 44.7556 39.6279 44.5981C39.7878 44.4406 40.0027 44.3513 40.2272 44.3492C40.4517 44.3471 40.6682 44.4324 40.8311 44.5869C41.4139 45.1353 41.9764 45.7056 42.5311 46.2806C42.9998 46.7697 43.4561 47.2775 43.9451 47.8087C45.4201 46.3275 46.7498 44.8962 48.1904 43.59C48.9717 42.8791 48.8248 42.1087 48.7717 41.2759H37.6858V52.4306H38.3436C39.2811 52.4306 40.2186 52.4306 41.1561 52.4415C41.3541 52.4275 41.5502 52.4878 41.7062 52.6106C41.8622 52.7333 41.9669 52.9098 41.9998 53.1056C42.0873 53.5103 41.9686 53.865 41.592 54.0431C41.3593 54.1388 41.1091 54.1841 40.8576 54.1759C39.8826 54.1916 38.9076 54.1759 37.9326 54.1759C36.4623 54.1759 36.0654 53.8369 35.8498 52.3572H15.5139C15.3191 52.3676 15.1238 52.364 14.9295 52.3462C14.4436 52.2728 14.1482 51.9853 14.1482 51.4822C14.1482 50.9791 14.442 50.6931 14.9295 50.6134C15.1236 50.5936 15.3191 50.5894 15.5139 50.6009H35.8733V47.1931H15.4967C15.2828 47.2087 15.0679 47.1998 14.8561 47.1666C14.3873 47.0525 14.1061 46.7416 14.1482 46.2384C14.1873 45.7697 14.4748 45.4994 14.9404 45.4447C15.1349 45.4298 15.33 45.4267 15.5248 45.4353H35.8561V42.0275C34.3936 42.0275 32.9733 42.0275 31.5529 42.0275C30.867 42.0275 30.4732 41.6962 30.4686 41.1494C30.4639 40.6025 30.842 40.2759 31.5373 40.2744C32.9014 40.2744 34.267 40.2744 35.6311 40.2634C35.8335 40.2648 36.0294 40.1913 36.1811 40.0572C36.5795 39.6087 37.0639 39.465 37.642 39.4666C40.0779 39.4759 42.5154 39.4666 44.9514 39.4666H45.5764V37.69H44.8998C42.4623 37.69 40.0264 37.7119 37.5904 37.6681C37.1338 37.6526 36.6947 37.4879 36.3404 37.1994C36.2194 37.0829 36.076 36.9922 35.9189 36.9328C35.7617 36.8734 35.5942 36.8467 35.4264 36.8541C28.7795 36.8541 22.1321 36.8541 15.4842 36.8541C14.5717 36.8541 14.1639 36.59 14.1467 35.9916C14.1295 35.3931 14.5467 35.0962 15.4936 35.0962H35.8701V31.6759H15.5654C15.3316 31.6854 15.0974 31.6744 14.8654 31.6431C14.6575 31.624 14.4655 31.5238 14.3309 31.3641C14.1964 31.2044 14.1302 30.9981 14.1467 30.79C14.1329 30.5815 14.2023 30.376 14.3396 30.2185C14.477 30.0609 14.6711 29.9642 14.8795 29.9494C15.1112 29.922 15.3447 29.9126 15.5779 29.9212H35.8561V26.4962H26.8811C26.6671 26.5052 26.4527 26.4953 26.2404 26.4665C26.0524 26.4404 25.8804 26.3466 25.7565 26.2029C25.6325 26.0591 25.5652 25.8751 25.567 25.6853C25.5373 25.2712 25.7232 24.9478 26.117 24.8197C26.3608 24.7539 26.6131 24.7255 26.8654 24.7353C29.6529 24.7353 32.4404 24.7353 35.2279 24.7353H35.8436C36.0623 23.3462 36.4904 22.9791 37.8295 22.9775H44.9639C45.1701 22.9775 45.3748 22.9603 45.5779 22.9509V7.02124H19.9342C19.7206 7.03515 19.5061 7.0294 19.2936 7.00406C18.8092 6.91187 18.5342 6.60718 18.5498 6.10562C18.5654 5.62906 18.8467 5.35405 19.3061 5.27592C19.4997 5.25609 19.6946 5.25192 19.8889 5.26343H40.5561V2.00875H2.25449Z" fill="white"/>
<path d="M26.3952 21.34H15.4577C15.2639 21.34 15.0186 21.4056 14.8842 21.3134C14.6061 21.1197 14.2764 20.8806 14.1702 20.5869C14.0264 20.1869 14.2717 19.815 14.6952 19.6759C14.9578 19.6051 15.2297 19.5751 15.5014 19.5869C22.7931 19.5869 30.0848 19.5869 37.3764 19.5869H37.6108C38.3467 19.6025 38.7327 19.9197 38.7217 20.4978C38.7108 21.0759 38.3452 21.3431 37.628 21.3431L26.3952 21.34Z" fill="white"/>
<path d="M26.443 14.6587C24.1836 14.6587 21.9237 14.6587 19.6633 14.6587C18.9196 14.6587 18.5352 14.3462 18.5461 13.7744C18.5571 13.2322 18.9477 12.9056 19.6399 12.9041C24.1795 12.9041 28.719 12.9041 33.2586 12.9041C34.0727 12.9041 34.5321 13.5072 34.243 14.1541C34.0571 14.5681 33.7039 14.6666 33.2805 14.6666C31.0024 14.6556 28.7227 14.6587 26.443 14.6587Z" fill="white"/>
<path d="M21.5696 40.2884C23.653 40.2884 25.7363 40.2884 27.8197 40.2884C28.5322 40.2884 28.904 40.5837 28.9134 41.1384C28.9228 41.6931 28.5228 42.0431 27.7993 42.0447C23.6108 42.0447 19.4212 42.0447 15.2306 42.0447C14.5368 42.0447 14.1446 41.7244 14.1368 41.1806C14.129 40.6369 14.5196 40.2916 15.2525 40.29C17.3598 40.2858 19.4655 40.2853 21.5696 40.2884Z" fill="white"/>
<path d="M19.0556 26.5134C17.7899 26.5134 16.5243 26.5134 15.2571 26.5134C14.5149 26.5134 14.1274 26.2009 14.1399 25.6244C14.1524 25.0478 14.5337 24.7619 15.2337 24.7603C17.8056 24.7541 20.3769 24.7541 22.9478 24.7603C23.6821 24.7603 24.0884 25.1759 23.9899 25.7791C23.9009 26.3181 23.5321 26.5134 23.0243 26.5119L19.0556 26.5134Z" fill="white"/>
</g>
<defs>
<clipPath id="clip0">
<rect width="53.1141" height="60" fill="white" transform="translate(0.443359 0.224365)"/>
</clipPath>
</defs>
</svg>
