<svg width="492" height="489" viewBox="0 0 492 489" fill="none" xmlns="http://www.w3.org/2000/svg">
<path d="M119.357 29.3612C102.88 52.9445 122.203 91.187 97.7535 108.924C73.9559 126.198 44.7233 97.8908 22.3145 112.756C-10.9559 134.805 -4.87789 235.696 43.746 298.387C58.3795 317.247 70.6041 324.577 76.0134 345.897C87.6379 391.683 46.7807 418.91 54.5818 441.559C72.0871 492.54 341.319 535.326 449.343 382.099C499.792 310.535 507.345 207.217 462.261 128.718C380.779 -13.1075 156.313 -23.5747 119.357 29.3612Z" fill="#F3F6F9"/>
<path d="M198.319 281.765L232.772 265.203C232.772 265.203 230.766 244.406 216.321 235.987C186.849 218.842 203.942 194.213 209.558 182.837C218.036 165.692 217.41 149.061 196.793 148.007C173.467 146.815 176.862 112.156 194.53 86.4122C211.829 61.2259 177.033 15.9453 134.59 67.0295C109.249 97.5309 130.904 129.541 138.019 148.307C145.134 167.072 119.039 181.44 138.791 199.039C155.653 214.067 177.127 220.617 171.984 238.996C166.84 257.376 172.601 272.43 198.319 281.765Z" fill="url(#paint0_linear)"/>
<g style="mix-blend-mode:soft-light" opacity="0.5">
<g style="mix-blend-mode:soft-light" opacity="0.5">
<path d="M214.727 277.796L215.378 277.316C215.087 276.913 185.76 236.347 168.82 187.372C153.21 142.254 145.22 80.5484 195.798 42.8374L195.318 42.1859C172.798 58.9797 159.819 81.8343 156.742 110.115C154.273 132.713 158.087 158.799 168.075 187.655C185.048 236.742 214.435 277.393 214.727 277.796Z" fill="#BBB8ED"/>
</g>
<g style="mix-blend-mode:soft-light" opacity="0.5">
<path d="M155.953 121.989L156.63 121.551C142.056 98.9711 134.83 60.4372 134.761 60.0514L133.964 60.1971C134.024 60.5829 141.328 99.2711 155.953 121.989Z" fill="#BBB8ED"/>
</g>
<g style="mix-blend-mode:soft-light" opacity="0.5">
<path d="M158.524 103.197C175.67 76.1679 202.073 72.4903 202.339 72.456L202.236 71.6588C201.97 71.6588 175.207 75.405 157.847 102.769L158.524 103.197Z" fill="#BBB8ED"/>
</g>
<g style="mix-blend-mode:soft-light" opacity="0.5">
<path d="M181.636 218.79C173.287 180.582 215.927 149.747 216.321 149.481L215.953 148.761C215.498 148.984 172.421 180.419 180.856 218.962L181.636 218.79Z" fill="#BBB8ED"/>
</g>
<g style="mix-blend-mode:soft-light" opacity="0.5">
<path d="M174.427 204.363L175.07 203.874C159.905 184.054 128.726 180.394 128.418 180.36L128.323 181.157C128.64 181.191 159.468 184.826 174.427 204.363Z" fill="#BBB8ED"/>
</g>
<g style="mix-blend-mode:soft-light" opacity="0.5">
<path d="M210.903 270.835C205.537 256.982 219.476 237.247 219.656 237.05L218.996 236.579C218.404 237.436 204.62 256.862 210.149 271.126L210.903 270.835Z" fill="#BBB8ED"/>
</g>
<g style="mix-blend-mode:soft-light" opacity="0.5">
<path d="M203.831 261.319L204.491 260.856C197.693 251.272 176.321 247.235 169.343 245.906C168.349 245.717 167.492 245.554 167.346 245.503L167.029 246.24C167.738 246.44 168.46 246.595 169.189 246.703C176.099 248.015 197.222 252.01 203.831 261.319Z" fill="#BBB8ED"/>
</g>
</g>
<path d="M164.174 247.895C175.97 248.332 177.316 258.748 181.157 266.206C180.713 267.098 180.384 268.043 180.179 269.018C177.102 279.108 173.638 282.734 169.035 292.215C168.049 294.255 163.317 299.348 161.251 301.302L157.342 304.886C157.342 304.886 130.51 300.599 131.273 285.117C132.036 269.635 107.064 262.34 94.3161 256.827C86.4893 253.398 84.0289 249.386 81.3199 247.68C53.0303 229.618 39.3912 233.613 33.7847 222.083C27.5952 209.352 42.3573 200.84 36.4079 186.635C29.627 170.595 6.20659 170.673 3.18902 154.059C2.45051 150.92 2.40953 147.657 3.06899 144.5C5.18643 135.208 13.459 131.316 10.0643 121.954C3.20618 103.095 9.20705 81.723 29.4899 77.951C49.507 74.2305 69.0182 102.297 71.7271 147.475C77.325 179.382 82.5972 182.623 96.9049 188.075C106.926 191.864 136.622 195.499 138.645 214.093C140.668 232.687 150.681 247.397 164.174 247.895Z" fill="url(#paint1_linear)"/>
<g style="mix-blend-mode:soft-light" opacity="0.5">
<g style="mix-blend-mode:soft-light" opacity="0.5">
<path d="M172.104 287.612L171.641 288.237C168.169 285.726 164.705 283.154 161.354 280.582C137.309 262.344 115.314 241.551 95.7559 218.568C80.3171 200.348 66.8354 180.557 55.5331 159.519C46.9263 143.474 39.8319 126.662 34.3416 109.301C30.7343 97.8556 27.9778 86.1593 26.0947 74.3075C25.7861 72.3358 25.5804 70.287 25.3832 68.3067C25.1261 65.6663 24.8518 62.9488 24.3374 60.3684L25.0661 60.1713C25.589 62.7431 25.8633 65.5206 26.1291 68.1696C26.3176 70.1413 26.5233 72.1729 26.8234 74.1275C28.7049 85.9442 31.4557 97.6061 35.0532 109.018C40.5243 126.363 47.5986 143.161 56.1846 159.194C67.4601 180.175 80.9072 199.914 96.3045 218.088C115.833 241.033 137.793 261.791 161.799 279.999C165.177 282.571 168.64 285.143 172.104 287.612Z" fill="#FBFCFD"/>
</g>
<g style="mix-blend-mode:soft-light" opacity="0.5">
<path d="M70.5098 183.411L69.8925 183.874C52.2501 158.388 0.52293 144.672 0 144.534L0.239954 143.806C0.762884 143.943 52.7216 157.719 70.5098 183.411Z" fill="#FBFCFD"/>
</g>
<g style="mix-blend-mode:soft-light" opacity="0.5">
<path d="M126.377 249.832L125.812 250.363C111.71 234.624 118.096 192.275 118.199 191.847L118.936 191.907C118.868 192.335 112.498 234.341 126.377 249.832Z" fill="#FBFCFD"/>
</g>
<g style="mix-blend-mode:soft-light" opacity="0.5">
<path d="M135.199 258.002L134.719 258.619C123.746 250.295 103.935 245.254 78.9453 244.423C77.6852 244.423 77.6852 244.423 77.5737 244.294L78.0452 243.677L77.8052 243.985L77.9167 243.617C78.0024 243.617 78.4738 243.617 79.0225 243.668C104.157 244.508 124.106 249.601 135.199 258.002Z" fill="#FBFCFD"/>
</g>
<g style="mix-blend-mode:soft-light" opacity="0.5">
<path d="M165.846 282.974L165.229 283.437C156.493 270.938 163.394 247.955 163.463 247.723L164.174 247.895C164.106 248.126 157.308 270.758 165.846 282.974Z" fill="#FBFCFD"/>
</g>
<g style="mix-blend-mode:soft-light" opacity="0.5">
<path d="M171.573 288.692C159.571 285.563 146.052 285.897 130.21 289.729L130.09 288.992C146.052 285.143 159.7 284.8 171.804 287.963L171.573 288.692Z" fill="#FBFCFD"/>
</g>
<g style="mix-blend-mode:soft-light" opacity="0.5">
<path d="M38.3285 118.885L37.6941 119.314C28.7014 104.526 15.7139 91.3756 11.4448 87.055C10.416 86.0006 10.0474 85.632 9.95312 85.4862L10.5703 85.0233C10.6561 85.1433 11.239 85.7434 11.9934 86.4978C16.2712 90.8356 29.3015 104.029 38.3285 118.885Z" fill="#FBFCFD"/>
</g>
<g style="mix-blend-mode:soft-light" opacity="0.5">
<path d="M49.2671 145.392L48.547 145.623C44.715 129.541 62.2631 99.6138 63.0346 98.3451L63.6605 98.6966C63.4805 99.0138 45.5123 129.609 49.2671 145.392Z" fill="#FBFCFD"/>
</g>
</g>
<path d="M177.651 247.655C176.407 249.172 184.397 254.864 170.475 252.798C167.046 252.292 178.585 240.839 170.475 252.798C168.906 255.121 138.757 238.499 137.145 240.797C130.527 239.494 124.535 237.042 127.012 228.555C130.853 215.37 112.181 203.694 103.583 202.683C92.9444 201.482 68.2553 198.165 73.8789 177.711C78.5681 160.685 85.0234 150.475 67.9467 138.731C50.87 126.986 46.2322 110.175 57.8224 94.0161C70.0212 76.9994 56.6737 48.864 73.2531 38.9455C102.177 21.6545 126.763 68.1782 118.782 105.726C110.801 143.274 132.404 132.079 147.381 140.017C149.365 141.222 151.199 142.661 152.841 144.303C165.7 157.068 158.474 174.307 163.72 193.167C170.887 218.911 179.751 245.091 177.651 247.655Z" fill="url(#paint2_linear)"/>
<g opacity="0.5">
<path opacity="0.5" d="M166.669 203.763L142.211 242.108C135.61 241.139 124.209 238.088 127.012 228.606C130.853 215.422 112.181 203.746 103.583 202.734C92.9444 201.534 68.2553 198.216 73.8789 177.762C78.5681 160.737 85.0234 150.527 67.9467 138.782C50.87 127.038 46.2322 110.227 57.8224 94.0674C70.0212 77.0508 56.6737 48.9154 73.2531 38.9969C102.177 21.7059 126.763 68.2296 118.782 105.778C110.801 143.326 132.404 132.13 147.381 140.068C167.826 150.93 146.052 176.348 149.172 188.452C151.624 197.959 160.685 201.98 166.669 203.763Z" fill="url(#paint3_linear)"/>
<g opacity="0.5">
<path opacity="0.5" d="M149.404 218.259L148.727 218.979C99.3999 172.07 74.1449 99.8197 82.9405 30.4328L83.8834 30.5014C75.1736 99.5968 100.274 171.547 149.404 218.259Z" fill="#FBFCFD"/>
<path opacity="0.5" d="M124.8 190.227L124.277 191.084C101.457 177.102 70.7157 186.695 70.4071 186.798L70.167 185.872C70.4756 185.752 101.62 176.022 124.8 190.227Z" fill="#FBFCFD"/>
<path opacity="0.5" d="M140.574 209.361L139.717 209.866C126.635 185.863 151.615 139.999 151.873 139.571L152.73 139.999C152.464 140.428 127.741 185.82 140.574 209.361Z" fill="#FBFCFD"/>
<path opacity="0.5" d="M94.0675 130.347L93.2616 130.913C81.2599 112.91 48.0668 108.624 47.7324 108.547L47.9039 107.595C48.2383 107.629 81.8429 112.036 94.0675 130.347Z" fill="#FBFCFD"/>
<path opacity="0.5" d="M84.0546 87.3465H83.103C83.9603 61.9458 108.307 36.6994 108.555 36.4508L109.215 37.1109C108.967 37.3852 84.9033 62.3401 84.0546 87.3465Z" fill="#FBFCFD"/>
</g>
</g>
<path d="M458.687 347.8H448.862C448.2 341.431 446.665 335.183 444.302 329.232L452.609 324.414C453.705 323.749 454.498 322.682 454.818 321.441C455.138 320.2 454.961 318.882 454.323 317.77L450.834 311.495C450.535 310.936 450.128 310.443 449.637 310.042C449.146 309.642 448.58 309.343 447.972 309.163C447.365 308.983 446.727 308.925 446.097 308.993C445.467 309.06 444.857 309.252 444.302 309.557L436.098 314.212C432.259 308.846 427.705 304.029 422.562 299.896L427.276 291.786C427.914 290.631 428.082 289.274 427.747 287.998C427.412 286.721 426.599 285.622 425.476 284.928L419.201 281.036C418.656 280.682 418.044 280.44 417.403 280.327C416.763 280.213 416.106 280.23 415.471 280.375C414.837 280.521 414.239 280.793 413.711 281.174C413.184 281.556 412.739 282.04 412.403 282.597L407.671 290.621C401.462 287.716 394.877 285.697 388.108 284.62V275.173C388.086 273.799 387.542 272.486 386.587 271.499C385.632 270.512 384.337 269.925 382.965 269.858L375.318 269.506C374.647 269.462 373.974 269.555 373.341 269.781C372.707 270.006 372.127 270.359 371.635 270.818C371.144 271.277 370.751 271.831 370.482 272.448C370.213 273.064 370.073 273.729 370.071 274.401V284.02C363.055 284.603 356.157 286.179 349.583 288.7L344.439 280.008C343.703 278.77 342.527 277.855 341.146 277.447C339.765 277.038 338.281 277.166 336.99 277.804L330.003 281.388C329.38 281.699 328.828 282.137 328.384 282.674C327.939 283.21 327.611 283.833 327.421 284.504C327.23 285.174 327.182 285.877 327.278 286.567C327.374 287.257 327.613 287.919 327.98 288.512L333.261 297.401C327.476 301.499 322.311 306.407 317.924 311.975L308.357 306.566C307.079 305.817 305.563 305.585 304.12 305.917C302.676 306.248 301.414 307.118 300.59 308.349L296.381 315.078C296.009 315.693 295.768 316.378 295.673 317.09C295.578 317.802 295.631 318.527 295.828 319.218C296.025 319.909 296.362 320.551 296.819 321.106C297.275 321.661 297.841 322.116 298.481 322.442L308.383 327.911C305.587 334.332 303.764 341.134 302.973 348.091H291.1C289.616 348.045 288.173 348.588 287.088 349.601C286.002 350.615 285.361 352.017 285.305 353.501V361.43C285.332 362.162 285.503 362.881 285.809 363.546C286.116 364.211 286.551 364.808 287.09 365.303C287.629 365.799 288.261 366.182 288.95 366.431C289.638 366.68 290.369 366.79 291.1 366.754L303.291 366.6C304.299 373.397 306.304 380.009 309.24 386.222L298.481 392.326C297.842 392.657 297.278 393.115 296.822 393.673C296.367 394.23 296.03 394.875 295.834 395.567C295.637 396.259 295.584 396.984 295.678 397.698C295.772 398.412 296.011 399.098 296.381 399.716L300.59 406.385C301.419 407.611 302.687 408.473 304.132 408.792C305.577 409.111 307.089 408.863 308.357 408.1L319.236 401.79C323.594 406.935 328.646 411.451 334.246 415.206L327.98 425.845C327.611 426.434 327.37 427.094 327.273 427.782C327.176 428.471 327.224 429.172 327.415 429.84C327.605 430.508 327.934 431.129 328.38 431.662C328.826 432.195 329.379 432.629 330.003 432.935L336.99 436.424C338.295 437.037 339.783 437.141 341.161 436.714C342.539 436.288 343.708 435.362 344.439 434.118L350.654 423.428C356.903 425.629 363.42 426.982 370.029 427.448V439.347C370.029 440.017 370.168 440.68 370.437 441.293C370.706 441.907 371.1 442.458 371.593 442.911C372.086 443.365 372.668 443.711 373.302 443.929C373.935 444.146 374.607 444.229 375.275 444.173L382.922 443.719C384.298 443.625 385.589 443.02 386.54 442.022C387.492 441.024 388.036 439.706 388.065 438.327V426.488C394.464 425.396 400.692 423.47 406.591 420.762L412.36 430.474C412.702 431.027 413.151 431.504 413.682 431.879C414.212 432.253 414.813 432.516 415.447 432.653C416.082 432.79 416.738 432.798 417.375 432.675C418.013 432.553 418.619 432.303 419.158 431.94L425.433 427.954C426.556 427.26 427.369 426.161 427.704 424.885C428.039 423.608 427.871 422.252 427.234 421.096L421.636 411.546C426.63 407.592 431.09 403.008 434.906 397.907L444.259 403.051C444.821 403.347 445.435 403.529 446.067 403.588C446.7 403.647 447.338 403.58 447.944 403.392C448.551 403.204 449.114 402.899 449.603 402.493C450.091 402.087 450.495 401.589 450.791 401.027L454.28 394.701C454.921 393.594 455.101 392.279 454.78 391.04C454.459 389.802 453.664 388.739 452.566 388.083L443.53 382.939C446.039 377.137 447.757 371.025 448.639 364.765L458.729 364.637C460.001 364.598 461.207 364.062 462.088 363.143C462.968 362.225 463.452 360.997 463.436 359.724V352.609C463.44 351.981 463.321 351.359 463.085 350.777C462.848 350.196 462.5 349.666 462.059 349.22C461.617 348.773 461.093 348.418 460.514 348.174C459.935 347.93 459.314 347.803 458.687 347.8ZM379.15 406.428C350.08 407.508 325.751 384.945 325.751 355.995C325.751 327.046 350.08 304.182 379.15 304.885C407.234 305.571 429.308 328.152 429.308 355.335C429.308 382.519 407.234 405.382 379.15 406.428Z" fill="#98A5B4"/>
<path d="M346.617 277.436L339.622 277.196L337.213 283.462L346.617 277.436Z" fill="#98A5B4"/>
<path d="M416.004 280.325L424.071 280.411V286.36L416.004 280.325Z" fill="#98A5B4"/>
<path d="M446.754 309.034L454.795 309.36L452.789 313.869L446.754 309.034Z" fill="#98A5B4"/>
<path d="M459.381 347.886L467.508 348.529L464.851 352.472L459.381 347.886Z" fill="#98A5B4"/>
<path d="M445.871 403.625L453.749 404.748L454.718 398.318L445.871 403.625Z" fill="#98A5B4"/>
<path d="M415.712 432.66L422.785 433.946L423.351 428.717L415.712 432.66Z" fill="#98A5B4"/>
<path d="M380.316 445.202L373.963 444.079L379.433 435.952L380.316 445.202Z" fill="#98A5B4"/>
<path d="M345.897 438.37L338.499 436.835L344.208 429.926L345.897 438.37Z" fill="#98A5B4"/>
<path d="M304.319 305.82L312.035 306.068L308.983 311.692L304.319 305.82Z" fill="#98A5B4"/>
<path d="M288.958 366.385L296.03 367.431L295.473 361.636L288.958 366.385Z" fill="#98A5B4"/>
<path d="M304.157 408.768L311.075 409.891L311.632 405.314L304.157 408.768Z" fill="#98A5B4"/>
<path d="M466.642 348.477H456.732C456.066 342.055 454.52 335.756 452.137 329.755L460.513 324.903C461.622 324.237 462.426 323.164 462.754 321.913C463.083 320.662 462.909 319.332 462.27 318.207L458.747 311.881C458.445 311.318 458.035 310.821 457.539 310.418C457.044 310.014 456.474 309.713 455.862 309.531C455.25 309.35 454.608 309.291 453.973 309.359C453.338 309.426 452.723 309.619 452.163 309.926L443.89 314.624C440.022 309.211 435.43 304.354 430.243 300.188L435.001 292.009C435.636 290.852 435.802 289.494 435.464 288.217C435.125 286.94 434.309 285.842 433.183 285.151L426.857 281.225C426.307 280.867 425.69 280.623 425.044 280.508C424.398 280.393 423.735 280.41 423.095 280.556C422.455 280.702 421.852 280.976 421.32 281.36C420.788 281.745 420.338 282.232 419.999 282.794L415.232 290.886C408.971 287.978 402.335 285.958 395.515 284.886V275.216C395.493 273.828 394.942 272.501 393.975 271.506C393.008 270.51 391.698 269.921 390.312 269.858L382.596 269.506C381.919 269.461 381.24 269.554 380.601 269.782C379.962 270.009 379.377 270.365 378.881 270.828C378.385 271.291 377.989 271.851 377.719 272.473C377.448 273.095 377.308 273.766 377.307 274.444V284.183C370.232 284.772 363.276 286.363 356.647 288.906L351.503 280.136C350.76 278.89 349.575 277.969 348.183 277.557C346.791 277.145 345.295 277.274 343.994 277.916L336.947 281.525C336.32 281.84 335.764 282.282 335.317 282.824C334.869 283.365 334.539 283.993 334.347 284.668C334.155 285.344 334.106 286.052 334.202 286.747C334.299 287.443 334.539 288.111 334.907 288.709L340.239 297.676C334.42 301.799 329.224 306.735 324.808 312.335L315.164 306.883C313.876 306.129 312.348 305.895 310.893 306.23C309.439 306.564 308.167 307.442 307.337 308.683L303.094 315.473C302.719 316.092 302.476 316.782 302.381 317.499C302.285 318.216 302.338 318.946 302.536 319.642C302.735 320.338 303.075 320.985 303.535 321.544C303.996 322.102 304.566 322.56 305.211 322.888L315.19 328.409C312.374 334.882 310.536 341.738 309.738 348.752H297.736C296.24 348.705 294.787 349.253 293.693 350.274C292.599 351.296 291.954 352.708 291.898 354.204V362.193C291.923 362.931 292.095 363.657 292.403 364.328C292.711 364.999 293.149 365.602 293.693 366.102C294.236 366.602 294.873 366.989 295.567 367.241C296.261 367.493 296.998 367.604 297.736 367.569L310.029 367.414C311.051 374.265 313.073 380.928 316.03 387.191L305.186 393.346C304.541 393.679 303.972 394.14 303.513 394.701C303.054 395.262 302.715 395.912 302.517 396.609C302.318 397.306 302.265 398.037 302.36 398.755C302.455 399.474 302.696 400.166 303.068 400.787L307.312 407.517C308.148 408.751 309.427 409.616 310.883 409.935C312.339 410.254 313.862 410.002 315.138 409.231L326.111 402.871C330.502 408.063 335.598 412.617 341.25 416.398L334.924 427.131C334.554 427.726 334.312 428.391 334.215 429.085C334.117 429.778 334.166 430.485 334.358 431.158C334.551 431.832 334.882 432.458 335.331 432.995C335.779 433.533 336.336 433.971 336.964 434.281L344.011 437.795C345.328 438.414 346.828 438.518 348.218 438.086C349.608 437.655 350.786 436.719 351.52 435.464L357.796 424.688C364.094 426.91 370.662 428.274 377.324 428.743V440.744C377.325 441.419 377.466 442.087 377.738 442.704C378.01 443.322 378.407 443.877 378.904 444.333C379.401 444.79 379.987 445.139 380.626 445.358C381.264 445.576 381.941 445.661 382.613 445.605L390.329 445.142C391.72 445.054 393.027 444.447 393.991 443.44C394.955 442.433 395.505 441.101 395.532 439.707V427.826C401.984 426.725 408.264 424.786 414.212 422.056L420.033 431.846C420.378 432.403 420.832 432.884 421.367 433.261C421.902 433.639 422.508 433.904 423.148 434.042C423.789 434.179 424.45 434.186 425.093 434.063C425.736 433.939 426.348 433.686 426.891 433.32L433.218 429.3C434.359 428.608 435.187 427.499 435.526 426.209C435.865 424.918 435.689 423.545 435.035 422.382L429.386 412.755C434.421 408.781 438.919 404.17 442.768 399.039L452.197 404.251C452.764 404.55 453.383 404.734 454.021 404.793C454.658 404.853 455.301 404.785 455.912 404.596C456.524 404.406 457.092 404.098 457.584 403.689C458.077 403.28 458.483 402.777 458.781 402.211L462.304 395.832C462.946 394.713 463.122 393.385 462.793 392.137C462.464 390.889 461.657 389.821 460.547 389.163L451.434 384.019C453.942 378.151 455.646 371.972 456.501 365.648L466.677 365.52C467.958 365.484 469.174 364.945 470.061 364.019C470.949 363.093 471.436 361.855 471.417 360.573V353.398C471.432 352.76 471.32 352.125 471.087 351.531C470.854 350.937 470.505 350.395 470.061 349.937C469.616 349.479 469.085 349.114 468.498 348.864C467.911 348.613 467.28 348.482 466.642 348.477ZM386.445 407.628C357.136 408.717 332.609 385.965 332.609 356.793C332.609 327.62 357.136 304.551 386.445 305.263C414.735 305.948 437.024 328.709 437.024 356.124C437.024 383.539 414.744 406.488 386.428 407.543L386.445 407.628Z" fill="#D8DDE6"/>
<path d="M343.102 322.571C336.781 322.775 330.533 321.162 325.1 317.924C308.709 308.091 284.483 291.863 262.682 270.612C235.019 243.651 219.133 216.244 215.653 189.326L215.602 188.906L214.924 74.0332C214.924 51.3414 229.729 32.8846 257.522 20.8144C280.479 10.8101 310.912 5.85508 343.068 6.7895C374.847 7.70677 404.251 14.2648 426.017 25.1864C451.889 38.1739 465.451 56.425 465.451 78.0623L464.833 187.792L464.791 188.195C461.61 213.964 446.985 240.608 421.147 267.543C400.419 289.155 376.99 306.274 360.908 316.887C355.613 320.394 349.449 322.361 343.102 322.571Z" fill="#32684C"/>
<path d="M349.411 322.571C343.177 322.767 337.019 321.154 331.683 317.924C315.498 308.091 291.589 291.864 270.08 270.612C242.794 243.651 227.106 216.244 223.677 189.326L223.625 188.906L222.957 74.0332C222.957 51.3414 237.53 32.8846 264.962 20.8144C287.62 10.8101 317.658 5.85508 349.386 6.7895C380.744 7.70677 409.754 14.2648 431.228 25.1864C456.766 38.1739 470.157 56.425 470.157 78.0623L469.548 187.792L469.505 188.195C466.368 213.964 451.94 240.608 426.436 267.543C405.982 289.155 382.87 306.274 366.994 316.887C361.781 320.392 355.689 322.361 349.411 322.571Z" fill="#4EA579"/>
<path d="M230.543 74.1532L231.212 188.409C238.73 246.703 307.243 293.904 337.084 311.855C341.345 314.369 346.229 315.631 351.174 315.498C356.12 315.364 360.928 313.84 365.048 311.101C394.263 291.881 459.021 243.48 465.948 187.432L466.556 78.0023C466.556 -3.1976 230.543 -10.6215 230.543 74.1532Z" fill="#68E2AA"/>
<path d="M351.101 294.229C350.322 294.248 349.554 294.043 348.889 293.638C336.604 286.206 312.79 270.621 292.069 250.269C269.686 228.28 256.785 206.909 253.818 186.832L253.184 74.4703C253.184 63.6859 261.757 54.4618 278.473 47.0379C297.145 38.791 323.668 34.4704 351.118 35.1219C378.293 35.7649 404.045 41.2342 421.876 50.0812C437.658 57.9166 445.64 67.1407 445.665 77.5136L445.048 185.983C442.288 205.409 430.174 226.351 408.906 248.366C388.906 269.069 365.537 285.477 353.329 293.449C352.674 293.913 351.902 294.183 351.101 294.229Z" fill="#4EA579"/>
<path d="M348.34 286.549C335.935 278.902 313.869 264.148 294.615 245.203C273.587 224.508 261.413 204.646 258.559 186.266L257.907 74.5476C257.907 66.8322 265.005 59.7683 278.91 53.6132C296.604 45.7778 321.945 41.6544 348.348 42.2459C374.486 42.8288 399.124 47.9981 416.072 56.3736C429.231 62.8802 435.883 69.9783 435.901 77.4965L435.223 185.597C432.54 203.437 421.053 222.931 400.984 243.677C382.339 262.905 360.65 278.387 348.34 286.549Z" fill="#F3F6F9"/>
<path d="M392.695 140.282L309.146 141.028C302.717 141.088 297.487 146.095 297.487 152.173V205.743C297.487 211.821 302.699 216.536 309.103 216.27L392.36 212.841C395.21 212.726 397.909 211.529 399.906 209.493C401.904 207.457 403.05 204.737 403.111 201.885L403.376 150.741C403.374 149.349 403.095 147.972 402.555 146.689C402.014 145.407 401.224 144.245 400.23 143.271C399.235 142.297 398.057 141.531 396.763 141.018C395.469 140.505 394.086 140.255 392.695 140.282Z" fill="#68E2AA"/>
<path d="M362.348 171.024C362.334 169.598 362.026 168.191 361.442 166.89C360.858 165.589 360.011 164.423 358.955 163.466C357.898 162.508 356.655 161.78 355.303 161.327C353.952 160.873 352.521 160.704 351.1 160.831C348.452 160.99 345.948 162.097 344.049 163.95C342.149 165.803 340.979 168.277 340.753 170.921C340.639 172.858 341.087 174.787 342.044 176.475C343.001 178.163 344.425 179.539 346.145 180.437C346.838 180.816 347.392 181.406 347.728 182.121C348.064 182.836 348.164 183.639 348.014 184.414L345.597 197.942C345.527 198.347 345.55 198.762 345.664 199.157C345.778 199.551 345.98 199.915 346.255 200.22C346.53 200.525 346.87 200.764 347.251 200.919C347.631 201.074 348.042 201.14 348.452 201.114L354.564 200.899C354.98 200.89 355.39 200.793 355.766 200.614C356.142 200.435 356.476 200.178 356.746 199.86C357.016 199.543 357.215 199.172 357.331 198.772C357.447 198.372 357.477 197.951 357.418 197.539L355.078 184.149C354.961 183.35 355.09 182.535 355.447 181.811C355.803 181.087 356.371 180.488 357.076 180.094C358.66 179.163 359.977 177.839 360.901 176.25C361.824 174.661 362.323 172.861 362.348 171.024Z" fill="url(#paint4_linear)"/>
<path d="M391.52 135.019C390.929 135.028 390.342 134.919 389.793 134.7C389.245 134.48 388.745 134.153 388.324 133.738C387.903 133.323 387.568 132.828 387.34 132.283C387.112 131.738 386.994 131.152 386.994 130.561L387.046 118.902C387.097 107.192 377.41 97.5566 365.348 97.4709L338.07 97.1966C325.588 97.0765 315.318 106.815 315.31 118.894V130.896C315.274 132.155 314.744 133.349 313.834 134.22C312.925 135.091 311.709 135.569 310.449 135.55C309.826 135.57 309.204 135.466 308.621 135.244C308.038 135.023 307.504 134.688 307.051 134.259C306.597 133.83 306.233 133.316 305.979 132.747C305.725 132.177 305.587 131.562 305.571 130.938V118.817C305.571 101.543 320.282 87.6809 338.147 87.9552L365.425 88.3324C382.571 88.5725 396.287 102.289 396.175 118.894L396.124 130.501C396.11 131.71 395.618 132.864 394.755 133.711C393.893 134.558 392.729 135.028 391.52 135.019Z" fill="#68E2AA"/>
<path d="M483.787 448.391L35.7905 444.568V455.867C35.7905 458.936 37.7365 461.542 40.3854 462.005L167.063 484.293C168.566 484.555 170.095 484.624 171.615 484.499L478.918 459.064C481.661 458.833 483.787 456.218 483.787 453.063V448.391Z" fill="#25274C"/>
<path d="M321.207 430.277L40.4198 450.954C39.2293 451.038 38.0345 450.87 36.9129 450.463C35.7912 450.055 34.7678 449.417 33.9087 448.588C33.0496 447.76 32.374 446.76 31.9258 445.654C31.4777 444.548 31.2669 443.36 31.3071 442.168V233.073C31.2703 230.615 32.2085 228.243 33.9163 226.476C35.6242 224.709 37.9626 223.69 40.4198 223.643H321.207C325.348 223.643 328.691 227.466 328.691 232.215V421.233C328.691 425.905 325.348 429.977 321.207 430.277Z" fill="#25274C"/>
<path d="M325.682 430.277L44.869 450.954C43.6789 451.038 42.4846 450.871 41.3634 450.463C40.2422 450.055 39.2192 449.416 38.3607 448.588C37.5023 447.759 36.8276 446.76 36.3804 445.654C35.9332 444.548 35.7235 443.36 35.7649 442.168V233.073C35.7259 230.616 36.6621 228.244 38.3686 226.477C40.0751 224.709 42.4126 223.69 44.869 223.643H325.657C329.797 223.643 333.149 227.466 333.149 232.215V421.233C333.175 425.905 329.823 429.977 325.682 430.277Z" fill="url(#paint5_linear)"/>
<path d="M316.938 416.955L55.4135 434.906C54.442 434.968 53.4682 434.825 52.555 434.488C51.6418 434.151 50.8093 433.626 50.1109 432.948C49.4125 432.27 48.8637 431.453 48.4998 430.55C48.136 429.647 47.9651 428.678 47.9982 427.705V244.637C47.9682 242.633 48.7303 240.699 50.1189 239.254C51.5075 237.809 53.4102 236.971 55.4135 236.922L316.938 235.79C320.367 235.79 323.111 238.91 323.111 242.794V409.531C323.111 413.38 320.35 416.724 316.938 416.955Z" fill="white"/>
<path d="M195.207 229.318C195.154 229.945 194.919 230.542 194.532 231.038C194.145 231.534 193.622 231.906 193.026 232.11C192.431 232.313 191.789 232.339 191.18 232.184C190.57 232.029 190.019 231.7 189.593 231.237C189.167 230.774 188.885 230.197 188.782 229.576C188.678 228.956 188.758 228.318 189.01 227.742C189.263 227.166 189.678 226.676 190.204 226.332C190.731 225.987 191.346 225.804 191.975 225.803C192.865 225.854 193.7 226.249 194.303 226.905C194.907 227.562 195.231 228.427 195.207 229.318Z" fill="white"/>
<path d="M336.878 429.137L35.7905 450.894L167.063 473.946C168.565 474.21 170.095 474.282 171.615 474.16L483.787 448.391L341.662 429.283C340.077 429.067 338.473 429.018 336.878 429.137Z" fill="url(#paint6_linear)"/>
<path d="M79.7168 451.083L330.389 432.695L407.963 443.042L159.459 462.69L79.7168 451.083Z" fill="#25274C"/>
<path d="M160.934 427.345L54.2475 434.529C53.5066 434.578 52.7636 434.475 52.0642 434.226C51.3649 433.976 50.7242 433.586 50.1817 433.079C49.6393 432.572 49.2068 431.959 48.9108 431.278C48.6148 430.597 48.4616 429.862 48.4609 429.12V242.237C48.4609 240.802 49.0292 239.426 50.0413 238.409C51.0534 237.392 52.427 236.817 53.8617 236.81L160.934 236.382V427.345Z" fill="#D8DDE6"/>
<path d="M298.713 325.468L186.3 329.412V318.053L298.713 314.53V325.468Z" fill="#D8DDE6"/>
<path d="M298.713 343.385L186.3 348.04V336.673L298.713 332.446V343.385Z" fill="#D8DDE6"/>
<path d="M149.927 327.508L85.3833 329.712V321.216L149.927 319.193V327.508Z" fill="white"/>
<path d="M149.927 341.131L85.3833 343.625V335.13L149.927 332.815V341.131Z" fill="white"/>
<path d="M149.927 354.761L85.3833 357.539V349.043L149.927 346.446V354.761Z" fill="white"/>
<path d="M149.927 368.391L85.3833 371.46V362.965L149.927 360.067V368.391Z" fill="white"/>
<path d="M235.979 364.294L186.3 366.66V355.293L235.979 353.115V364.294Z" fill="#D8DDE6"/>
<path d="M227.98 275.224V292.301C227.996 293.486 228.251 294.656 228.729 295.741C229.207 296.825 229.899 297.803 230.763 298.614C231.627 299.425 232.646 300.054 233.759 300.463C234.871 300.872 236.055 301.052 237.239 300.993L249.901 300.668C252.302 300.628 254.594 299.659 256.295 297.965C257.996 296.27 258.973 293.981 259.022 291.581V274.693L227.98 275.224ZM239.639 292.875L241.997 285.743C241.484 285.492 241.053 285.103 240.75 284.62C240.447 284.137 240.285 283.578 240.282 283.008C240.298 282.148 240.649 281.327 241.261 280.722C241.872 280.117 242.696 279.774 243.557 279.768C243.978 279.752 244.397 279.82 244.791 279.969C245.185 280.117 245.545 280.343 245.85 280.633C246.156 280.923 246.4 281.271 246.568 281.657C246.737 282.043 246.826 282.459 246.832 282.879C246.824 283.458 246.66 284.023 246.358 284.516C246.057 285.009 245.628 285.412 245.117 285.683L247.466 292.695L239.639 292.875Z" fill="#D8DDE6"/>
<path d="M255.43 273.21C255.116 273.221 254.804 273.17 254.511 273.058C254.217 272.947 253.949 272.778 253.722 272.562C253.495 272.345 253.314 272.085 253.189 271.798C253.064 271.51 252.998 271.2 252.995 270.886C252.976 269.674 252.716 268.478 252.23 267.368C251.744 266.258 251.041 265.256 250.164 264.42C249.286 263.584 248.25 262.932 247.117 262.501C245.984 262.07 244.777 261.87 243.565 261.911C241.094 261.922 238.725 262.897 236.963 264.63C235.202 266.363 234.187 268.716 234.135 271.186C234.122 271.833 233.856 272.449 233.395 272.902C232.933 273.355 232.313 273.61 231.666 273.612C231.349 273.625 231.033 273.574 230.735 273.463C230.438 273.351 230.166 273.182 229.935 272.964C229.705 272.746 229.52 272.484 229.391 272.193C229.263 271.903 229.194 271.59 229.189 271.272C229.189 263.557 235.67 257.256 243.599 257.17C245.436 257.114 247.265 257.424 248.981 258.082C250.696 258.74 252.264 259.732 253.592 261.001C254.92 262.271 255.983 263.791 256.718 265.475C257.453 267.159 257.845 268.972 257.873 270.809C257.862 271.45 257.599 272.06 257.142 272.509C256.685 272.958 256.07 273.21 255.43 273.21Z" fill="#D8DDE6"/>
<g style="mix-blend-mode:soft-light" opacity="0.48">
<path d="M44.869 450.954L324.234 430.38L325.657 430.269C327.565 430.097 329.335 429.201 330.603 427.765C310.5 426.668 298.027 419.536 289.96 412.163C273.784 397.358 276.587 382.759 259.099 373.029C237.342 360.89 220.239 376.269 203.728 361.087C193.715 351.889 198.636 345.031 186.317 331.28C172.678 316.047 163.797 321.165 150.081 307.457C132.747 290.123 141.422 276.596 126.489 264.2C108.375 249.103 88.8379 263.077 71.6241 248.597C64.1831 242.348 60.1026 233.27 57.9765 223.617H44.869C42.4126 223.664 40.075 224.683 38.3685 226.451C36.6621 228.218 35.7258 230.59 35.7648 233.047V442.142C35.7198 443.336 35.9268 444.527 36.3723 445.636C36.8179 446.745 37.4919 447.748 38.3508 448.579C39.2096 449.41 40.2339 450.052 41.3569 450.461C42.48 450.87 43.6766 451.038 44.869 450.954Z" fill="white"/>
</g>
<path d="M232.61 370.672C237.65 367.371 234.89 350.955 226.9 339.81C215.542 324.054 192.756 317.813 188.572 323.068C184.389 328.323 199.091 346.334 201.491 349.24C210.244 359.819 226.669 374.581 232.61 370.672Z" fill="url(#paint7_linear)"/>
<path d="M287.997 472.592C287.14 473.749 287.02 475.764 287.946 476.689C288.872 477.615 290.063 476.775 293.655 476.612C297.496 476.449 298.567 477.281 301.122 476.364C302.151 475.995 303.959 475.155 303.865 474.401C303.805 473.878 302.836 473.672 299.579 472.849C294.984 471.674 294.992 471.597 294.032 471.503C291.623 471.289 289.189 471.066 287.997 472.592Z" fill="url(#paint8_linear)"/>
<path d="M289.994 466.154L292.386 472.412C291.921 472.91 291.329 473.271 290.672 473.455C290.016 473.64 289.322 473.641 288.666 473.457L285.348 467.457L289.994 466.154Z" fill="url(#paint9_linear)"/>
<path d="M264.097 480.016C263.188 481.173 263.119 483.187 264.045 484.105C264.971 485.022 266.163 484.19 269.746 484.036C273.595 483.865 274.658 484.696 277.213 483.787C278.242 483.419 280.05 482.57 279.965 481.824C279.896 481.301 278.927 481.096 275.678 480.273C271.083 479.098 271.101 479.013 270.132 478.927C267.757 478.704 265.288 478.49 264.097 480.016Z" fill="url(#paint10_linear)"/>
<path d="M266.086 473.577L268.486 479.835C268.019 480.331 267.426 480.689 266.77 480.872C266.114 481.055 265.421 481.055 264.765 480.873L261.448 474.872L266.086 473.577Z" fill="url(#paint11_linear)"/>
<path d="M146.489 327.286C154.932 323.684 163.91 321.494 173.064 320.805C185.991 319.853 196.381 319.09 204.002 324.662C222.502 338.216 205.648 375.181 217.573 400.762C218.876 403.556 222.716 412.463 220.702 422.519C220.325 424.371 219.39 426.025 217.787 428.82C208.357 445.245 178.885 448.717 164.32 436.158C156.604 429.514 150.269 431.306 149.498 423.145C146.437 390.912 149.069 358.344 146.489 327.286Z" fill="url(#paint12_linear)"/>
<path style="mix-blend-mode:multiply" opacity="0.3" d="M162.417 367.534C159.46 360.968 161.44 353.055 155.696 350.089C153.402 348.999 150.842 348.594 148.324 348.923C150.407 372.626 152.61 396.287 155.027 421.01C155.825 429.171 156.879 429.497 165.315 436.081C175.113 443.702 191.144 445.245 204.517 441.525C185.932 431.906 172.404 421.516 173.51 411.675C174.787 400.213 195.25 395.387 193.819 387.363C192.318 378.91 168.898 381.911 162.417 367.534Z" fill="url(#paint13_linear)"/>
<path d="M152.198 327.603C145.923 324.011 132.275 335.25 124.954 344.8C121.525 349.232 109.704 364.688 114.35 383.925C115.104 387.054 118.636 401.713 131.847 408.04C143.703 413.706 158.936 410.903 170.552 400.779L175.267 395.927C176.793 394.012 178.316 392.103 179.836 390.2C175.707 387.243 171.052 385.102 166.12 383.891C156.433 381.533 150.552 386.523 148.075 383.711C145.023 380.282 152.987 372.789 154.076 357.076C154.307 352.832 159.211 331.615 152.198 327.603Z" fill="url(#paint14_linear)"/>
<path d="M169.506 428.408C166.506 441.559 173.433 435.789 187.792 427.354C202.905 418.464 236.373 404.825 252.224 418.276C264.028 428.288 257.513 445.982 275.927 463.565C278.43 465.957 281.154 468.107 284.062 469.985L292.987 465.502C293.672 458.378 295.464 430.997 276.613 407.988C272.052 402.425 263.377 391.7 249.6 387.963C212.352 377.761 172.275 416.287 169.506 428.408Z" fill="url(#paint15_linear)"/>
<path d="M154.136 417.487C152.13 425.057 155.062 433.372 159.622 438.335C169.764 449.351 190.484 446.582 203.189 441.302C218.619 434.872 221.448 425.014 227.843 426.925C237.788 429.874 232.67 454.195 251.555 472.223C254.06 474.61 256.781 476.759 259.682 478.644L268.606 474.152C269.515 461.425 268.183 448.638 264.671 436.372C261.937 426.943 259.485 418.438 252.104 410.655C242.931 400.967 231.675 398.156 225.22 396.638C197.916 390.175 159.365 397.813 154.136 417.487Z" fill="url(#paint16_linear)"/>
<path d="M239.167 391.135L167.063 395.378L186.9 403.205L239.699 395.815L239.167 391.135Z" fill="url(#paint17_linear)"/>
<path d="M164.663 397.478C164.712 398.137 164.964 398.764 165.382 399.275C165.801 399.786 166.367 400.155 167.003 400.333L190.681 407.654L190.321 401.396L167.063 395.395C166.762 395.332 166.45 395.34 166.153 395.418C165.855 395.495 165.579 395.64 165.347 395.842C165.115 396.044 164.932 396.296 164.813 396.58C164.695 396.864 164.643 397.171 164.663 397.478Z" fill="url(#paint18_linear)"/>
<path d="M174.736 393.826C174.29 393.766 176.502 388.4 178.585 388.846C180.668 389.291 191.058 394.332 192.138 396.638L193.218 398.953C193.218 398.953 188.932 399.613 186.137 398.91C183.343 398.207 178.388 394.366 174.736 393.826Z" fill="url(#paint19_linear)"/>
<path d="M188.992 357.367L187.329 403.968C187.269 405.579 189.678 407.783 191.281 407.594L265.417 397.513C266.012 397.449 266.566 397.179 266.984 396.75C267.402 396.321 267.657 395.76 267.706 395.164L273.758 349.832C273.912 348.186 270.869 346.72 269.223 346.891L191.341 354.855C190.708 354.91 190.118 355.197 189.685 355.661C189.251 356.124 189.004 356.732 188.992 357.367Z" fill="url(#paint20_linear)"/>
<path d="M190.792 358.584L189.129 405.194C189.117 405.571 189.186 405.947 189.332 406.296C189.479 406.645 189.699 406.957 189.977 407.213C190.255 407.469 190.586 407.661 190.946 407.777C191.305 407.893 191.686 407.93 192.061 407.885L267.217 398.738C267.811 398.667 268.362 398.395 268.779 397.968C269.197 397.541 269.457 396.984 269.515 396.39L273.904 350.955C273.94 350.569 273.89 350.181 273.759 349.817C273.627 349.453 273.416 349.123 273.142 348.85C272.867 348.577 272.536 348.368 272.171 348.239C271.806 348.109 271.417 348.062 271.032 348.1L193.141 356.055C192.509 356.12 191.923 356.412 191.49 356.877C191.058 357.343 190.81 357.949 190.792 358.584Z" fill="url(#paint21_linear)"/>
<path style="mix-blend-mode:multiply" opacity="0.3" d="M237.642 390.029C230.852 387.731 232.781 382.236 224.517 376.175C213.613 368.186 203.437 372.746 199.271 366.24C197.976 364.216 197.188 360.967 198.782 355.498L193.141 356.072C192.512 356.136 191.928 356.426 191.496 356.888C191.064 357.35 190.814 357.952 190.792 358.584L189.129 405.194C189.117 405.571 189.186 405.947 189.332 406.296C189.479 406.645 189.699 406.957 189.977 407.213C190.255 407.469 190.586 407.661 190.946 407.777C191.305 407.893 191.686 407.93 192.061 407.885L267.217 398.738C267.811 398.667 268.362 398.395 268.779 397.968C269.197 397.541 269.457 396.984 269.515 396.39L270.115 390.123C267.447 388.869 264.602 388.037 261.679 387.654C250.449 386.197 245.469 392.686 237.642 390.029Z" fill="url(#paint22_linear)"/>
<path d="M172.97 303.042C173.292 306.796 173.235 310.573 172.798 314.315C172.438 317.341 172.078 318.139 171.589 318.807C170.861 319.81 169.703 320.685 162.957 322.896C159.288 324.105 158.808 324.114 158.748 324.491C158.482 326.326 169.129 331.743 179.553 329.48C185.931 328.091 191.555 323.977 191.024 322.073C190.492 320.17 184.165 321.679 181.979 318.302C180.462 315.961 181.697 312.378 183.257 309.369C181.302 306.291 174.924 306.128 172.97 303.042Z" fill="url(#paint23_linear)"/>
<path d="M186.952 308.186C187.924 307.182 188.567 305.906 188.793 304.527C189.02 303.148 188.82 301.733 188.22 300.47C187.072 298.31 184.791 297.607 183.411 297.196C179.433 295.978 173.981 296.741 171.538 300.153C170.072 302.168 171.538 307.191 171.718 308.083C171.898 308.975 172.635 309.549 173.184 310.381C173.947 311.538 175.13 313.364 177.059 316.381C177.463 315.485 177.942 314.625 178.491 313.81C179.204 312.746 180.051 311.778 181.011 310.929C183.6 308.726 185.177 309.772 186.952 308.186Z" fill="url(#paint24_linear)"/>
<path d="M174.033 313.569C174.663 315.033 175.661 316.309 176.931 317.272C178.2 318.235 179.698 318.852 181.277 319.064C186.095 319.622 188.744 309.077 186.12 306.257C185.495 305.714 184.767 305.304 183.978 305.052C183.19 304.8 182.358 304.711 181.534 304.791C180.505 304.885 180.102 305.228 178.422 305.348C176.879 305.468 176.485 305.228 175.97 305.52C175.327 305.888 174.71 306.96 175.113 310.252C174.376 309.172 173.347 308.614 172.541 308.837C172.251 308.934 171.993 309.109 171.796 309.343C170.827 310.44 171.658 312.198 174.033 313.569Z" fill="url(#paint25_linear)"/>
<path d="M175.876 304.842C176.073 305.057 175.216 305.785 174.941 306.986C174.41 309.317 176.27 312.575 178.662 313.261C180.068 313.664 180.625 312.875 183.043 313.055C184.224 313.158 185.381 313.447 186.472 313.912C186.746 316.63 185.614 319.056 183.626 319.913C181.534 320.856 179.339 319.647 178.37 319.142C176.848 318.397 175.65 317.123 175.002 315.558C174.213 313.321 175.576 312.301 174.496 310.689C173.956 309.832 173.124 309.412 172.515 307.911C172.385 307.588 172.279 307.256 172.198 306.917C173.664 305.854 175.584 304.534 175.876 304.842Z" fill="url(#paint26_linear)"/>
<path d="M184.603 314.53C183.648 314.745 182.655 314.718 181.714 314.452C181.628 314.452 181.534 314.452 181.517 314.452C181.731 314.791 182.033 315.065 182.391 315.245C182.749 315.425 183.149 315.503 183.548 315.473C184.328 315.404 185.04 314.804 184.971 314.615C184.903 314.427 184.74 314.53 184.603 314.53Z" fill="url(#paint27_linear)"/>
<defs>
<linearGradient id="paint0_linear" x1="334861" y1="74842.5" x2="324093" y2="127487" gradientUnits="userSpaceOnUse">
<stop stop-color="#68E2AA"/>
<stop offset="1" stop-color="#5C00FF"/>
</linearGradient>
<linearGradient id="paint1_linear" x1="452210" y1="-456708" x2="493100" y2="-389766" gradientUnits="userSpaceOnUse">
<stop stop-color="#68E2AA"/>
<stop offset="1" stop-color="#5C00FF"/>
</linearGradient>
<linearGradient id="paint2_linear" x1="-189130" y1="330756" x2="-159285" y2="370742" gradientUnits="userSpaceOnUse">
<stop stop-color="#68E2AA"/>
<stop offset="1" stop-color="#5C00FF"/>
</linearGradient>
<linearGradient id="paint3_linear" x1="41.6459" y1="69.8926" x2="178.036" y2="206.283" gradientUnits="userSpaceOnUse">
<stop stop-color="#68E2AA"/>
<stop offset="1" stop-color="#5C00FF"/>
</linearGradient>
<linearGradient id="paint4_linear" x1="339.879" y1="161.757" x2="367.406" y2="204.431" gradientUnits="userSpaceOnUse">
<stop stop-color="#5C00FF"/>
<stop offset="1" stop-color="#8D77ED"/>
</linearGradient>
<linearGradient id="paint5_linear" x1="35.7906" y1="337.299" x2="333.175" y2="337.299" gradientUnits="userSpaceOnUse">
<stop stop-color="#444D87"/>
<stop offset="1" stop-color="#25274C"/>
</linearGradient>
<linearGradient id="paint6_linear" x1="697750" y1="54482.1" x2="931869" y2="54482.1" gradientUnits="userSpaceOnUse">
<stop stop-color="#444D87"/>
<stop offset="1" stop-color="#25274C"/>
</linearGradient>
<linearGradient id="paint7_linear" x1="206.742" y1="352.838" x2="215.514" y2="339.871" gradientUnits="userSpaceOnUse">
<stop stop-color="#A184F1"/>
<stop offset="1" stop-color="#6068CF"/>
</linearGradient>
<linearGradient id="paint8_linear" x1="27046" y1="1530.71" x2="26755.9" y2="1635.65" gradientUnits="userSpaceOnUse">
<stop stop-color="#444D87"/>
<stop offset="1" stop-color="#25274C"/>
</linearGradient>
<linearGradient id="paint9_linear" x1="289.282" y1="469.45" x2="279.059" y2="457.886" gradientUnits="userSpaceOnUse">
<stop stop-color="#A67C52"/>
<stop offset="1" stop-color="#754C24"/>
</linearGradient>
<linearGradient id="paint10_linear" x1="26636.8" y1="1663.12" x2="26346.5" y2="1768.12" gradientUnits="userSpaceOnUse">
<stop stop-color="#444D87"/>
<stop offset="1" stop-color="#25274C"/>
</linearGradient>
<linearGradient id="paint11_linear" x1="-13046.6" y1="13549.8" x2="-12986.3" y2="13431.6" gradientUnits="userSpaceOnUse">
<stop stop-color="#A67C52"/>
<stop offset="1" stop-color="#754C24"/>
</linearGradient>
<linearGradient id="paint12_linear" x1="89802.7" y1="166104" x2="95368.7" y2="161839" gradientUnits="userSpaceOnUse">
<stop stop-color="#A184F1"/>
<stop offset="1" stop-color="#6068CF"/>
</linearGradient>
<linearGradient id="paint13_linear" x1="67813.1" y1="127535" x2="72013" y2="124377" gradientUnits="userSpaceOnUse">
<stop stop-color="#A184F1"/>
<stop offset="1" stop-color="#6068CF"/>
</linearGradient>
<linearGradient id="paint14_linear" x1="78073.4" y1="111081" x2="82058.2" y2="107083" gradientUnits="userSpaceOnUse">
<stop stop-color="#A184F1"/>
<stop offset="1" stop-color="#6068CF"/>
</linearGradient>
<linearGradient id="paint15_linear" x1="216.756" y1="467.542" x2="265.231" y2="395.859" gradientUnits="userSpaceOnUse">
<stop stop-color="#29ABE2"/>
<stop offset="1" stop-color="#2E3192"/>
</linearGradient>
<linearGradient id="paint16_linear" x1="150097" y1="112973" x2="144447" y2="121544" gradientUnits="userSpaceOnUse">
<stop stop-color="#29ABE2"/>
<stop offset="1" stop-color="#2E3192"/>
</linearGradient>
<linearGradient id="paint17_linear" x1="216.103" y1="422.685" x2="205.565" y2="398.647" gradientUnits="userSpaceOnUse">
<stop stop-color="#2D1B42"/>
<stop offset="1" stop-color="#7F3F73"/>
</linearGradient>
<linearGradient id="paint18_linear" x1="33454.3" y1="13993.9" x2="33500.1" y2="14314.1" gradientUnits="userSpaceOnUse">
<stop stop-color="#2D1B42"/>
<stop offset="1" stop-color="#7F3F73"/>
</linearGradient>
<linearGradient id="paint19_linear" x1="174.796" y1="394.639" x2="192.844" y2="393.305" gradientUnits="userSpaceOnUse">
<stop stop-color="#A67C52"/>
<stop offset="1" stop-color="#E3765E"/>
</linearGradient>
<linearGradient id="paint20_linear" x1="118116" y1="71690.5" x2="116948" y2="69711.9" gradientUnits="userSpaceOnUse">
<stop stop-color="#444D87"/>
<stop offset="1" stop-color="#25274C"/>
</linearGradient>
<linearGradient id="paint21_linear" x1="112884" y1="73675.7" x2="114481" y2="67684.7" gradientUnits="userSpaceOnUse">
<stop stop-color="#2D1B42"/>
<stop offset="1" stop-color="#7F3F73"/>
</linearGradient>
<linearGradient id="paint22_linear" x1="105441" y1="61116.7" x2="113156" y2="60546.1" gradientUnits="userSpaceOnUse">
<stop stop-color="#2D1B42"/>
<stop offset="1" stop-color="#7F3F73"/>
</linearGradient>
<linearGradient id="paint23_linear" x1="168.063" y1="341.119" x2="185.633" y2="296.37" gradientUnits="userSpaceOnUse">
<stop stop-color="#C69C6D"/>
<stop offset="1" stop-color="#754C24"/>
</linearGradient>
<linearGradient id="paint24_linear" x1="152.627" y1="333.51" x2="170.196" y2="305.281" gradientUnits="userSpaceOnUse">
<stop stop-color="#2D1B42"/>
<stop offset="1" stop-color="#643D73"/>
</linearGradient>
<linearGradient id="paint25_linear" x1="11488.1" y1="11939.5" x2="11388.8" y2="12687.9" gradientUnits="userSpaceOnUse">
<stop stop-color="#A67C52"/>
<stop offset="1" stop-color="#E3765E"/>
</linearGradient>
<linearGradient id="paint26_linear" x1="-40470.7" y1="9812.1" x2="-40703.9" y2="9263.62" gradientUnits="userSpaceOnUse">
<stop stop-color="#2D1B42"/>
<stop offset="1" stop-color="#643D73"/>
</linearGradient>
<linearGradient id="paint27_linear" x1="5817.97" y1="2359.09" x2="5816.51" y2="2365.79" gradientUnits="userSpaceOnUse">
<stop stop-color="#A67C52"/>
<stop offset="1" stop-color="#E3765E"/>
</linearGradient>
</defs>
</svg>
